<svg xmlns="http://www.w3.org/2000/svg" width="30" height="30" viewBox="0 0 30 30" fill="none"><path opacity="0.2" d="M15 1C22.732 1 29 7.26801 29 15C29 22.732 22.732 29 15 29C7.26801 29 1 22.732 1 15C1 7.26801 7.26801 1 15 1Z" stroke="#17CFCF" stroke-width="2"></path><path d="M15.0008 5H15.0003C9.47758 5 5.00049 9.47709 5.00049 14.9999V15.0003C5.00049 20.5231 9.47758 25.0001 15.0003 25.0001H15.0008C20.5235 25.0001 25.0006 20.5231 25.0006 15.0003V14.9999C25.0006 9.47709 20.5235 5 15.0008 5Z" fill="#17CFCF"></path><path d="M19 12L13.5 17.5L11 15" stroke="white" stroke-width="1.5" stroke-linecap="round" stroke-linejoin="round"></path></svg>