<svg xmlns="http://www.w3.org/2000/svg" width="46" height="46" viewBox="0 0 46 46" fill="none"><rect width="46" height="46" rx="12" fill="#00CBAF"></rect><mask id="path-2-inside-1_5138_1901" fill="white"><path fill-rule="evenodd" clip-rule="evenodd" d="M14 14H15.125V30.875H32V32H14V14ZM30.6691 17.5021C30.7263 17.5489 30.7738 17.6066 30.8087 17.6717C30.8436 17.7369 30.8653 17.8082 30.8726 17.8818C30.88 17.9554 30.8727 18.0296 30.8513 18.1004C30.8299 18.1711 30.7947 18.237 30.7479 18.2941L25.6854 24.4816C25.6356 24.5424 25.5737 24.592 25.5036 24.6274C25.4335 24.6627 25.3568 24.683 25.2783 24.6869C25.1999 24.6909 25.1216 24.6783 25.0483 24.6501C24.975 24.6219 24.9084 24.5787 24.8529 24.5233L21.9425 21.6129L17.8295 27.2682C17.7395 27.3827 17.6087 27.4577 17.4645 27.4777C17.3204 27.4977 17.1741 27.461 17.0564 27.3753C16.9387 27.2897 16.8588 27.1618 16.8334 27.0184C16.8081 26.8751 16.8393 26.7276 16.9205 26.6068L21.4205 20.4193C21.4683 20.3535 21.5297 20.2988 21.6006 20.259C21.6716 20.2193 21.7503 20.1954 21.8313 20.189C21.9124 20.1825 21.9938 20.1938 22.0701 20.2219C22.1464 20.25 22.2157 20.2943 22.2733 20.3517L25.2084 23.288L29.8771 17.5809C29.9239 17.5237 29.9816 17.4762 30.0467 17.4413C30.1119 17.4064 30.1832 17.3847 30.2568 17.3774C30.3304 17.37 30.4046 17.3773 30.4754 17.3987C30.5461 17.4201 30.612 17.4553 30.6691 17.5021Z"></path></mask><path fill-rule="evenodd" clip-rule="evenodd" d="M14 14H15.125V30.875H32V32H14V14ZM30.6691 17.5021C30.7263 17.5489 30.7738 17.6066 30.8087 17.6717C30.8436 17.7369 30.8653 17.8082 30.8726 17.8818C30.88 17.9554 30.8727 18.0296 30.8513 18.1004C30.8299 18.1711 30.7947 18.237 30.7479 18.2941L25.6854 24.4816C25.6356 24.5424 25.5737 24.592 25.5036 24.6274C25.4335 24.6627 25.3568 24.683 25.2783 24.6869C25.1999 24.6909 25.1216 24.6783 25.0483 24.6501C24.975 24.6219 24.9084 24.5787 24.8529 24.5233L21.9425 21.6129L17.8295 27.2682C17.7395 27.3827 17.6087 27.4577 17.4645 27.4777C17.3204 27.4977 17.1741 27.461 17.0564 27.3753C16.9387 27.2897 16.8588 27.1618 16.8334 27.0184C16.8081 26.8751 16.8393 26.7276 16.9205 26.6068L21.4205 20.4193C21.4683 20.3535 21.5297 20.2988 21.6006 20.259C21.6716 20.2193 21.7503 20.1954 21.8313 20.189C21.9124 20.1825 21.9938 20.1938 22.0701 20.2219C22.1464 20.25 22.2157 20.2943 22.2733 20.3517L25.2084 23.288L29.8771 17.5809C29.9239 17.5237 29.9816 17.4762 30.0467 17.4413C30.1119 17.4064 30.1832 17.3847 30.2568 17.3774C30.3304 17.37 30.4046 17.3773 30.4754 17.3987C30.5461 17.4201 30.612 17.4553 30.6691 17.5021Z" fill="white"></path><path d="M14 14V12.875H12.875V14H14ZM15.125 14H16.25V12.875H15.125V14ZM15.125 30.875H14V32H15.125V30.875ZM32 30.875H33.125V29.75H32V30.875ZM32 32V33.125H33.125V32H32ZM14 32H12.875V33.125H14V32ZM30.6691 17.5021L29.9558 18.3721L29.9567 18.3728L30.6691 17.5021ZM30.7479 18.2941L29.8779 17.5808L29.8772 17.5817L30.7479 18.2941ZM25.6854 24.4816L26.5556 25.1946L26.5561 25.194L25.6854 24.4816ZM24.8529 24.5233L24.0574 25.3187L24.0581 25.3195L24.8529 24.5233ZM21.9425 21.6129L22.738 20.8174L21.807 19.8864L21.0327 20.9512L21.9425 21.6129ZM17.8295 27.2682L18.7138 27.9637L18.7269 27.9471L18.7393 27.9299L17.8295 27.2682ZM16.9205 26.6068L16.0107 25.9451L15.9984 25.9619L15.9868 25.9792L16.9205 26.6068ZM21.4205 20.4193L22.3303 21.0809L22.3309 21.0801L21.4205 20.4193ZM22.2733 20.3517L23.0689 19.5564L23.0683 19.5559L22.2733 20.3517ZM25.2084 23.288L24.4127 24.0833L25.2918 24.9628L26.0791 24.0003L25.2084 23.288ZM29.8771 17.5809L29.0065 16.8684L29.0064 16.8685L29.8771 17.5809ZM14 15.125H15.125V12.875H14V15.125ZM14 14V30.875H16.25V14H14ZM15.125 32H32V29.75H15.125V32ZM30.875 30.875V32H33.125V30.875H30.875ZM32 30.875H14V33.125H32V30.875ZM15.125 32V14H12.875V32H15.125ZM29.9567 18.3728C29.8995 18.326 29.8521 18.2684 29.8171 18.2032L31.8002 17.1402C31.6954 16.9448 31.5532 16.7719 31.3816 16.6315L29.9567 18.3728ZM29.8171 18.2032C29.7822 18.1381 29.7605 18.0667 29.7532 17.9931L31.9921 17.7705C31.9702 17.5498 31.905 17.3356 31.8002 17.1402L29.8171 18.2032ZM29.7532 17.9931C29.7459 17.9196 29.7531 17.8453 29.7745 17.7745L31.9281 18.4262C31.9923 18.214 32.0141 17.9912 31.9921 17.7705L29.7532 17.9931ZM29.7745 17.7745C29.7959 17.7038 29.8311 17.638 29.8779 17.5808L31.6178 19.0075C31.7584 18.836 31.8638 18.6385 31.9281 18.4262L29.7745 17.7745ZM29.8772 17.5817L24.8147 23.7692L26.5561 25.194L31.6186 19.0065L29.8772 17.5817ZM24.8151 23.7687C24.8649 23.7079 24.9268 23.6583 24.9969 23.6229L26.0103 25.6318C26.2206 25.5257 26.4063 25.3768 26.5556 25.1946L24.8151 23.7687ZM24.9969 23.6229C25.067 23.5876 25.1438 23.5673 25.2222 23.5633L25.3345 25.8105C25.5698 25.7988 25.8 25.7379 26.0103 25.6318L24.9969 23.6229ZM25.2222 23.5633C25.3006 23.5594 25.379 23.572 25.4522 23.6002L24.6443 25.7001C24.8642 25.7847 25.0993 25.8223 25.3345 25.8105L25.2222 23.5633ZM25.4522 23.6002C25.5255 23.6283 25.5921 23.6716 25.6476 23.727L24.0581 25.3195C24.2248 25.4859 24.4245 25.6155 24.6443 25.7001L25.4522 23.6002ZM25.6484 23.7278L22.738 20.8174L21.147 22.4084L24.0574 25.3187L25.6484 23.7278ZM21.0327 20.9512L16.9197 26.6066L18.7393 27.9299L22.8523 22.2746L21.0327 20.9512ZM16.9452 26.5728C17.0352 26.4584 17.166 26.3833 17.3102 26.3634L17.6189 28.5921C18.0514 28.5322 18.4439 28.3069 18.7138 27.9637L16.9452 26.5728ZM17.3102 26.3634C17.4543 26.3434 17.6006 26.3801 17.7183 26.4657L16.3944 28.285C16.7475 28.5419 17.1864 28.652 17.6189 28.5921L17.3102 26.3634ZM17.7183 26.4657C17.836 26.5514 17.9159 26.6793 17.9413 26.8226L15.7256 27.2143C15.8016 27.6443 16.0413 28.028 16.3944 28.285L17.7183 26.4657ZM17.9413 26.8226C17.9666 26.9659 17.9354 27.1135 17.8542 27.2343L15.9868 25.9792C15.7432 26.3416 15.6496 26.7843 15.7256 27.2143L17.9413 26.8226ZM17.8303 27.2684L22.3303 21.0809L20.5107 19.7576L16.0107 25.9451L17.8303 27.2684ZM22.3309 21.0801C22.2831 21.1459 22.2217 21.2006 22.1508 21.2404L21.0505 19.2777C20.8378 19.397 20.6534 19.561 20.5101 19.7584L22.3309 21.0801ZM22.1508 21.2404C22.0798 21.2801 22.0011 21.304 21.9201 21.3104L21.7425 19.0675C21.4994 19.0867 21.2633 19.1584 21.0505 19.2777L22.1508 21.2404ZM21.9201 21.3104C21.839 21.3169 21.7576 21.3056 21.6813 21.2775L22.459 19.1662C22.2301 19.0819 21.9857 19.0482 21.7425 19.0675L21.9201 21.3104ZM21.6813 21.2775C21.605 21.2494 21.5357 21.2051 21.4782 21.1476L23.0683 19.5559C22.8958 19.3835 22.6879 19.2505 22.459 19.1662L21.6813 21.2775ZM21.4776 21.1471L24.4127 24.0833L26.004 22.4927L23.0689 19.5564L21.4776 21.1471ZM26.0791 24.0003L30.7479 18.2932L29.0064 16.8685L24.3376 22.5757L26.0791 24.0003ZM30.7478 18.2933C30.701 18.3505 30.6434 18.3979 30.5782 18.4329L29.5152 16.4498C29.3198 16.5546 29.1469 16.6968 29.0065 16.8684L30.7478 18.2933ZM30.5782 18.4329C30.5131 18.4678 30.4417 18.4895 30.3681 18.4968L30.1455 16.2579C29.9248 16.2798 29.7107 16.345 29.5152 16.4498L30.5782 18.4329ZM30.3681 18.4968C30.2946 18.5041 30.2203 18.4969 30.1495 18.4755L30.8012 16.3219C30.589 16.2577 30.3662 16.2359 30.1455 16.2579L30.3681 18.4968ZM30.1495 18.4755C30.0788 18.4541 30.013 18.4189 29.9558 18.3721L31.3825 16.6322C31.211 16.4916 31.0135 16.3862 30.8012 16.3219L30.1495 18.4755Z" fill="white" mask="url(#path-2-inside-1_5138_1901)"></path></svg>