<svg xmlns="http://www.w3.org/2000/svg" width="121" height="121" viewBox="0 0 121 121" fill="none"><rect x="0.5" y="0.5" width="120" height="120" rx="2.62" stroke="#00F7CA" stroke-opacity="0.2"></rect><path d="M64.7744 51.25C66.3616 51.5597 67.8203 52.3359 68.9638 53.4794C70.1073 54.6229 70.8835 56.0816 71.1932 57.6687M64.7744 44.75C68.072 45.1163 71.147 46.593 73.4946 48.9376C75.8421 51.2822 77.3227 54.3554 77.6932 57.6525M76.0682 70.62V75.495C76.07 75.9476 75.9773 76.3955 75.796 76.8102C75.6147 77.2249 75.3488 77.5971 75.0153 77.903C74.6818 78.209 74.2881 78.4419 73.8594 78.5869C73.4307 78.7319 72.9764 78.7857 72.5257 78.745C67.5253 78.2017 62.7221 76.493 58.5019 73.7563C54.5757 71.2613 51.2469 67.9325 48.7519 64.0063C46.0057 59.767 44.2966 54.9404 43.7632 49.9175C43.7226 49.4681 43.776 49.0152 43.92 48.5876C44.064 48.16 44.2955 47.7671 44.5997 47.4339C44.9039 47.1006 45.2741 46.8344 45.6869 46.6521C46.0996 46.4698 46.5457 46.3754 46.9969 46.375H51.8719C52.6606 46.3672 53.4251 46.6465 54.0231 47.1607C54.621 47.675 55.0116 48.3891 55.1219 49.17C55.3277 50.7301 55.7093 52.2619 56.2594 53.7363C56.4781 54.3179 56.5254 54.95 56.3958 55.5577C56.2662 56.1654 55.9651 56.7232 55.5282 57.165L53.4644 59.2287C55.7777 63.297 59.1462 66.6655 63.2144 68.9787L65.2782 66.915C65.72 66.4781 66.2778 66.177 66.8855 66.0474C67.4932 65.9178 68.1253 65.9651 68.7069 66.1837C70.1813 66.7339 71.7131 67.1155 73.2732 67.3213C74.0626 67.4326 74.7835 67.8302 75.2988 68.4384C75.8141 69.0466 76.088 69.8231 76.0682 70.62Z" stroke="#00F7CA" stroke-linecap="round" stroke-linejoin="round"></path></svg>