<svg xmlns="http://www.w3.org/2000/svg" width="121" height="121" viewBox="0 0 121 121" fill="none"><rect x="0.5" y="0.5" width="120" height="120" rx="2.62" stroke="#00F7CA" stroke-opacity="0.2"></rect><path d="M66.5 67.5L60 61L53.5 67.5" stroke="#00F7CA" stroke-linecap="round" stroke-linejoin="round"></path><path d="M60 61V75.625" stroke="#00F7CA" stroke-linecap="round" stroke-linejoin="round"></path><path d="M73.6336 71.3837C75.2186 70.5196 76.4706 69.1523 77.1922 67.4977C77.9137 65.843 78.0637 63.9952 77.6185 62.2458C77.1732 60.4964 76.158 58.9451 74.7332 57.8368C73.3084 56.7284 71.555 56.1261 69.7499 56.1249H67.7024C67.2105 54.2224 66.2938 52.4562 65.021 50.959C63.7483 49.4618 62.1527 48.2727 60.3543 47.4809C58.5558 46.6891 56.6013 46.3154 54.6376 46.3877C52.6739 46.4601 50.7521 46.9767 49.0168 47.8986C47.2815 48.8206 45.7777 50.124 44.6186 51.7107C43.4595 53.2975 42.6752 55.1264 42.3247 57.0599C41.9742 58.9934 42.0665 60.9813 42.5948 62.874C43.1231 64.7666 44.0736 66.5149 45.3749 67.9874" stroke="#00F7CA" stroke-linecap="round" stroke-linejoin="round"></path><path d="M66.5 67.5L60 61L53.5 67.5" stroke="#00F7CA" stroke-linecap="round" stroke-linejoin="round"></path></svg>