<svg xmlns="http://www.w3.org/2000/svg" width="32" height="33" viewBox="0 0 32 33" fill="none"><g clip-path="url(#clip0_5122_1462)"><path d="M31.5 16.8101C31.5 8.24965 24.5604 1.31006 16 1.31006C7.43959 1.31006 0.5 8.24965 0.5 16.8101C0.5 25.3705 7.43959 32.3101 16 32.3101C24.5604 32.3101 31.5 25.3705 31.5 16.8101Z" stroke="#4D617B"></path><path d="M11.581 23.8101H8.264V13.1281H11.581V23.8101ZM9.921 11.6701C8.86 11.6701 8 10.7921 8 9.73106C7.99987 9.47875 8.04947 9.22889 8.14596 8.99577C8.24245 8.76264 8.38395 8.55082 8.56236 8.37241C8.74076 8.19401 8.95258 8.05251 9.18571 7.95602C9.41884 7.85953 9.66869 7.80993 9.921 7.81006C10.1733 7.80993 10.4232 7.85953 10.6563 7.95602C10.8894 8.05251 11.1012 8.19401 11.2796 8.37241C11.4581 8.55082 11.5995 8.76264 11.696 8.99577C11.7925 9.22889 11.8421 9.47875 11.842 9.73106C11.842 10.7921 10.981 11.6701 9.921 11.6701ZM23.996 23.8101H20.686V18.6101C20.686 17.3711 20.661 15.7811 18.961 15.7811C17.236 15.7811 16.972 17.1271 16.972 18.5201V23.8101H13.658V13.1281H16.839V14.5851H16.885C17.328 13.7461 18.41 12.8601 20.024 12.8601C23.381 12.8601 23.998 15.0711 23.998 17.9421V23.8101H23.994H23.996Z" fill="#00CBAF"></path></g><defs><clipPath id="clip0_5122_1462"><rect width="32" height="32" fill="white" transform="translate(0 0.810059)"></rect></clipPath></defs></svg>