<svg xmlns="http://www.w3.org/2000/svg" width="17" height="12" viewBox="0 0 17 12" fill="none"><path d="M9.8 11.2748C9.6 11.0748 9.504 10.8331 9.512 10.5498C9.5207 10.2665 9.625 10.0248 9.825 9.82481L12.65 6.99981H1.5C1.21667 6.99981 0.979 6.90381 0.787 6.71181C0.59567 6.52051 0.5 6.28311 0.5 5.99981C0.5 5.71651 0.59567 5.47881 0.787 5.28681C0.979 5.09551 1.21667 4.99981 1.5 4.99981H12.65L9.8 2.1498C9.6 1.9498 9.5 1.71213 9.5 1.4368C9.5 1.16213 9.6 0.924804 9.8 0.724804C10 0.524804 10.2377 0.424805 10.513 0.424805C10.7877 0.424805 11.025 0.524804 11.225 0.724804L15.8 5.29981C15.9 5.39981 15.971 5.50811 16.013 5.62481C16.0543 5.74151 16.075 5.86651 16.075 5.99981C16.075 6.13311 16.0543 6.25811 16.013 6.37481C15.971 6.49151 15.9 6.59981 15.8 6.69981L11.2 11.2998C11.0167 11.4831 10.7877 11.5748 10.513 11.5748C10.2377 11.5748 10 11.4748 9.8 11.2748Z" fill="#00CBAF"></path></svg>