<svg xmlns="http://www.w3.org/2000/svg" width="32" height="33" viewBox="0 0 32 33" fill="none"><g clip-path="url(#clip0_5122_1459)"><path d="M31.5 16.8101C31.5 8.24965 24.5604 1.31006 16 1.31006C7.43959 1.31006 0.5 8.24965 0.5 16.8101C0.5 25.3705 7.43959 32.3101 16 32.3101C24.5604 32.3101 31.5 25.3705 31.5 16.8101Z" stroke="#4D617B"></path><path d="M22.458 14.05L22.467 14.477C22.467 18.814 19.374 23.811 13.72 23.811C11.978 23.811 10.36 23.273 8.99902 22.338C9.24602 22.368 9.48402 22.379 9.74102 22.379C11.178 22.379 12.501 21.861 13.558 20.977C12.207 20.947 11.074 20.002 10.684 18.702C10.874 18.732 11.065 18.753 11.265 18.753C11.5385 18.752 11.8106 18.7143 12.074 18.641C10.665 18.336 9.60902 17.016 9.60902 15.421V15.38C10.0305 15.6323 10.5083 15.7752 10.999 15.796C10.171 15.207 9.62802 14.202 9.62802 13.064C9.62802 12.455 9.78002 11.896 10.047 11.409C11.56 13.4 13.835 14.7 16.386 14.842C16.3367 14.5947 16.3113 14.3432 16.31 14.091C16.31 12.283 17.681 10.811 19.384 10.811C19.8107 10.8128 20.2321 10.9063 20.6196 11.085C21.0071 11.2637 21.3517 11.5236 21.63 11.847C22.325 11.705 22.991 11.431 23.581 11.055C23.353 11.817 22.867 12.457 22.23 12.863C22.849 12.792 23.448 12.609 24 12.355C23.5846 13.0027 23.0634 13.576 22.458 14.051V14.05Z" fill="#00CBAF"></path></g><defs><clipPath id="clip0_5122_1459"><rect width="32" height="32" fill="white" transform="translate(0 0.810059)"></rect></clipPath></defs></svg>