<?xml version="1.0" encoding="utf-8"?>
<!-- Generator: Adobe Illustrator 21.0.2, SVG Export Plug-In . SVG Version: 6.00 Build 0)  -->
<svg version="1.1" id="Layer_1" xmlns="http://www.w3.org/2000/svg" xmlns:xlink="http://www.w3.org/1999/xlink" x="0px" y="0px"
	 viewBox="0 0 16 16" style="enable-background:new 0 0 16 16;" xml:space="preserve">
<path class="st0" d="M8,0.4L0,6.2l3,9.4h9.9L16,6.2L8,0.4z M10,14.1H4.7l1-3.1L10,14.1z M3.3,5.7l3.2-2.3L5.8,5.7H3.3z M5.3,7.3
	L4.9,8.5L3.4,7.3C3.4,7.3,5.3,7.3,5.3,7.3z M14,7.3l-2,6.3L6.2,9.5l0.7-2.1L14,7.3L14,7.3z M7.4,5.7l1-3.1l4.3,3.1H7.4z M4.4,10
	l-0.7,2.3L2.4,8.6L4.4,10z"/>
</svg>
