<?xml version="1.0" encoding="utf-8"?>
<!-- Generator: Adobe Illustrator 24.3.0, SVG Export Plug-In . SVG Version: 6.00 Build 0)  -->
<svg version="1.1" id="door" xmlns="http://www.w3.org/2000/svg" xmlns:xlink="http://www.w3.org/1999/xlink" x="0px" y="0px"
	 viewBox="0 0 43 43" style="enable-background:new 0 0 43 43;" xml:space="preserve">
<style type="text/css">
	.st0{fill:#3C3950;}
</style>
<g>
	<g>
		<path class="st0" d="M26.1,25.2c-0.5-0.1-0.9,0.3-1,0.8l-0.9,9.1c-0.1,0.5,0.3,0.9,0.8,1c0,0,0.1,0,0.1,0c0.5,0,0.9-0.4,0.9-0.8
			l0.9-9.1C27,25.6,26.6,25.2,26.1,25.2z M22.6,25.2c-0.5-0.1-1,0.2-1.1,0.7L19.7,35c-0.1,0.5,0.2,1,0.7,1.1c0.1,0,0.1,0,0.2,0
			c0.4,0,0.8-0.3,0.9-0.7l1.8-9.1C23.4,25.7,23.1,25.3,22.6,25.2z M29.6,25.2c-0.5,0-0.9,0.5-0.8,1l0.9,9.1c0,0.5,0.4,0.8,0.9,0.8
			c0,0,0.1,0,0.1,0c0.5-0.1,0.9-0.5,0.8-1L30.6,26C30.6,25.5,30.1,25.1,29.6,25.2z M33.2,25.2c-0.5,0.1-0.8,0.6-0.7,1.1l1.8,9.1
			c0.1,0.4,0.5,0.7,0.9,0.7c0.1,0,0.1,0,0.2,0c0.5-0.1,0.8-0.6,0.7-1.1l-1.8-9.1C34.1,25.4,33.6,25.1,33.2,25.2z M37.9,18.7
			c0-0.2-0.1-0.3-0.2-0.5c0-0.1-0.1-0.1-0.1-0.2c0,0,0,0-0.1,0l-6.9-5.2v-1.4c0-6.5-5.3-11.9-11.9-11.9c-6.5,0-11.9,5.3-11.9,11.9
			v22.8H6c-0.5,0-0.9,0.4-0.9,0.9v3.6c0,0.5,0.4,0.9,0.9,0.9h0.9v2.7c0,0.5,0.4,0.9,0.9,0.9h3.6c0.5,0,0.9-0.4,0.9-0.9v-2.7h0.9
			c0.5,0,0.9-0.4,0.9-0.9v-3.6c0-0.5-0.4-0.9-0.9-0.9h-0.9V11.5c0-3.5,2.9-6.4,6.4-6.4c3.5,0,6.4,2.9,6.4,6.4v1.4L18.2,18
			c0,0,0,0-0.1,0c-0.1,0-0.1,0.1-0.1,0.2c-0.1,0.1-0.2,0.3-0.2,0.5c0,0,0,0.1,0,0.1v3.6c0,0.5,0.4,0.9,0.9,0.9H37
			c0.5,0,0.9-0.4,0.9-0.9L37.9,18.7C37.9,18.7,37.9,18.7,37.9,18.7z M10.6,41.6H8.7v-1.8h1.8V41.6z M12.4,37.9h-0.9H6.9v-1.8h5.5
			V37.9z M18.8,3.3c-4.5,0-8.2,3.7-8.2,8.2v22.8H8.7V11.5c0-5.5,4.5-10,10-10c5.5,0,10,4.5,10,10v0.9H27v-0.9
			C27,6.9,23.3,3.3,18.8,3.3z M26.4,14.2h3l4.9,3.6H21.5L26.4,14.2z M36.1,21.5H19.7v-1.8h16.4V21.5z"/>
	</g>
</g>
</svg>
