<?xml version="1.0" encoding="utf-8"?>
<!-- Generator: Adobe Illustrator 24.3.0, SVG Export Plug-In . SVG Version: 6.00 Build 0)  -->
<svg version="1.1" id="door" xmlns="http://www.w3.org/2000/svg" xmlns:xlink="http://www.w3.org/1999/xlink" x="0px" y="0px"
	 viewBox="0 0 45.1 47" style="enable-background:new 0 0 45.1 47;" xml:space="preserve">
<style type="text/css">
	.st0{fill:#3C3950;}
</style>
<g>
	<g>
		<path class="st0" d="M23.9,35v-2.1h17.6L23.9,7.2V0h-2v24.4c-2-3.6-3.3-9-1.8-16.6c0.1-0.5-0.2-0.9-0.6-1.1s-0.9,0-1.2,0.4
			L3.2,31.4c-0.2,0.3-0.2,0.7,0,1c0.2,0.3,0.5,0.5,0.9,0.5h17.8V35H0.1l6.5,12h30.2c4.6,0,8.2-3.7,8.2-8.3V35H23.9z M23.9,10.8
			l13.8,20.1h-9.4c-0.2-0.1-2.3-1.1-4.4-3.6V10.8z M5.8,30.9l11.8-18.8c-0.6,10.3,4.1,16.1,7.1,18.8H5.8z M43.1,38.7
			c0,3.5-2.8,6.3-6.2,6.3H7.8l-4.4-8h39.7V38.7z M38.5,39.8h-2v2.3h2V39.8z M29.5,39.8h-2v2.3h2V39.8z M11.6,39.8h-2v2.3h2V39.8z
			 M20.5,39.8h-2v2.3h2V39.8z"/>
	</g>
</g>
</svg>
