<?xml version="1.0" encoding="utf-8"?>
<!-- Generator: Adobe Illustrator 24.3.0, SVG Export Plug-In . SVG Version: 6.00 Build 0)  -->
<svg version="1.1" id="Слой_1" xmlns="http://www.w3.org/2000/svg" xmlns:xlink="http://www.w3.org/1999/xlink" x="0px" y="0px"
	 viewBox="0 0 80.3 82.6" style="enable-background:new 0 0 80.3 82.6;" xml:space="preserve">
<style type="text/css">
	.st0{fill:#66686D;}
</style>
<path class="st0" d="M67.9,53.4l-9.2-25l0,0h-0.2l-1.9,5.1l-3.4,9.4l0,0c-1.2-1-2.9-1.7-5-1.9l-0.6-0.1l0.6-0.1
	c3.5-0.6,5.8-2.8,5.8-5.4c0-3.6-3.4-6.1-8.3-6.1H35.6v0.2h3v18.6l-7.2-19.6l0,0h-0.2l-1.9,5.1L22,53.3l0,0c-0.1,0-0.2,0-0.4,0
	c-0.2,0-0.4,0-0.5,0h-7.3l14-24l0.1-0.2H10.7v7.4h0.2c0-3.6,2.2-7.2,6.8-7.2h5.7L9.3,53.6h18.9v-7.1H28c0,3.2-1.8,6.1-5.7,6.8h-0.1
	l3-8.1h8.3l3,8.2h-3v0.2h11.7v-0.2h-3V41h3.4c3.5,0,5.5,1.6,5.5,4.3v2.2c0,0.2,0,0.6,0,0.9l0,0l-1.8,5h-2.4v0.2h5v-0.2h-2.4l1.7-4.6
	v0.1v0.4v0.3c0.3,1.7,0.9,2.9,1.9,3.7l0.1,0.1c0.8,0.5,1.7,0.8,2.8,0.8c1.5,0,2.4-0.4,3.3-1.2l0.1-0.2c-0.7,0.7-1.4,1-2.2,1
	c-1.3,0-2-1.6-2-3.2v-3.1c0-0.8-0.1-1.5-0.4-2.3v-0.1l0,0h6.1l3,8.2h-3v0.2H71v-0.2L67.9,53.4z M25.2,45l4.2-11.2L33.5,45H25.2z
	 M42.2,40.8V29.4h2.6c3.5,0,5.4,2.1,5.4,6c0,4.2-1.1,5.4-4.5,5.4H42.2z M54.7,45L54.7,45c-0.3-0.7-0.7-1.3-1.2-1.8L53.3,43l0,0
	l3.4-9.2L60.8,45H54.7L54.7,45z"/>
</svg>
