<?xml version="1.0" encoding="utf-8"?>
<!-- Generator: Adobe Illustrator 21.0.2, SVG Export Plug-In . SVG Version: 6.00 Build 0)  -->
<svg version="1.1" id="Layer_1" xmlns="http://www.w3.org/2000/svg" xmlns:xlink="http://www.w3.org/1999/xlink" x="0px" y="0px"
	 viewBox="0 0 100 100" style="enable-background:new 0 0 100 100;" xml:space="preserve">
<style type="text/css">
	.st0{fill:#BDBDC0;}
	.st1{fill-rule:evenodd;clip-rule:evenodd;fill:#BDBDC0;}
</style>
<g>
	<path class="st1" d="M64.5,47.2c0.7,0,1.1-0.6,1.1-1.3c0-0.4-0.2-0.7-0.6-0.7c-0.6,0-1.2,0.8-1.2,1.4C63.8,47,64.1,47.2,64.5,47.2z
		"/>
	<path class="st1" d="M86.8,49.1c-2,0-3.7,1.3-5.1,2.6l1.3-2.5h-1.8L80.8,50c-0.3,0.6-0.8,1.1-1.2,1.6c-1.1,1.3-2.4,2.5-3.7,3.6
		c-1.6,1.3-4.8,3.5-7,3.5c-0.9,0-1.7-0.7-1.7-1.7c0-0.7,0.3-1.3,0.5-1.9c0.8,0,1.7-0.1,2.5-0.3c1.6-0.4,3.4-1.2,4.5-2.4
		c0.5-0.6,1.1-1.3,1.1-2.1c0-1.1-1.1-1.6-2-1.6c-3,0-5.9,3.3-7.6,5.3L62.7,57c-0.8,0.7-1.9,1.5-3,1.5c-0.4,0-0.6-0.3-0.6-0.7
		c0-0.3,0.1-0.6,0.3-0.9l4.4-7.7H62l-0.8,1.3c-0.3,0.5-0.6,1-0.9,1.4c-0.6,0.9-1.4,1.7-2.1,2.4c-1.1,1-2.2,2.1-3.4,3
		c-0.7,0.5-1.4,1-2.2,1c-0.4,0-0.9-0.2-0.9-0.6c0-0.3,0.2-0.7,0.3-1l4.5-7.7h2.7l0.1-0.3h-2.7l2.3-4h-1.8L55.7,47
		c-1,1.7-2.5,3.1-4.1,4.1c-0.3,0.2-0.6,0.4-0.9,0.4c-0.1,0-0.2,0-0.2-0.1c0.4-0.3,0.6-0.7,0.6-1.2c0-0.7-0.6-1-1.3-1
		c-1.1,0-2.2,0.5-3.2,1l0.5-0.9h-1.9l-1.1,2.1c-1.2,2.3-3.1,4.1-5.1,5.6c-0.8,0.6-2,1.5-3,1.5c-0.4,0-0.9-0.3-0.9-0.7
		c0-0.4,0.2-0.8,0.4-1.1l4.3-7.4h-1.8l-1,1.7c0-1.5-0.8-2.2-2.3-2.2c-2.9,0-5.6,2.3-7.3,4.4c-0.5,0.7-0.9,1.4-1.3,2.2
		c-2.2,1.5-5.4,3.6-8.2,3.6c-2.5,0-3.9-1.6-3.9-4.1c0-2.1,0.7-4.1,1.6-6c1.9-3.9,5-7.3,8.9-9.2c1.1-0.5,2.3-0.9,3.5-0.9
		c1.6,0,4,0.9,4,2.8c0,0.4-0.1,0.8-0.2,1.1l0.3,0.2c0.6-1.7,1.3-2.7,2.8-3.7l-0.3-0.3c-0.6,0.5-1.3,0.9-2.2,0.9
		c-0.2,0-0.5,0-0.7-0.1l-1.1-0.6c-0.8-0.4-1.7-0.5-2.6-0.5c-0.7,0-1.3,0.1-2,0.2c-2.4,0.6-4.7,1.8-6.6,3.3c-2.5,2-4.6,4.6-6,7.4
		C12.6,51,12,52.7,12,54.3c0,3.1,2.2,5.1,5.3,5.1c3,0,6.3-2,8.7-3.7c-0.1,0.4-0.2,0.8-0.2,1.3c0,1.4,1.2,2.3,2.5,2.3
		c2.1,0,3.9-1.4,5.3-2.9c-0.2,0.5-0.4,0.9-0.4,1.5c0,0.8,0.7,1.2,1.5,1.2c2.9,0,5.9-2.9,7.8-4.9l-2.8,4.8h1.9l3.9-6.8
		c0.5-0.8,1-1.5,1.7-2c0.8-0.5,1.8-0.9,2.7-0.9c0.3,0,0.8,0.2,0.8,0.6c0,0.1,0,0.2-0.1,0.3c-0.1-0.1-0.3-0.1-0.4-0.1
		c-0.5,0-1,0.4-1,1s0.5,0.9,1,0.9c0.8,0,1.6-0.6,2.2-1.1c0.7-0.6,1.4-1.2,2.1-1.8l-3.8,6.6c-0.3,0.6-0.8,1.3-0.8,2
		c0,0.9,0.8,1.3,1.6,1.3c1.2,0,2.4-0.6,3.3-1.3c1.8-1.2,3.3-2.8,4.8-4.4L58,56.1c-0.3,0.5-0.8,1.1-0.8,1.8c0,1,0.7,1.3,1.6,1.3
		c2.4,0,4.8-2.4,6.5-4c-0.1,0.5-0.2,1-0.2,1.5c0,1.7,1.5,2.6,3.1,2.6c1.7,0,3.2-0.7,4.6-1.6c1.4-0.8,2.6-1.7,3.8-2.7
		c1.1-0.9,2-1.9,2.9-3l-4.2,7.2h1.9l2.6-4.4c1-1.8,2.4-3.4,4.2-4.4c0.8-0.5,1.7-0.9,2.7-0.9c0.4,0,0.7,0.2,0.8,0.5
		c-0.1,0-0.2,0-0.3,0c-0.5,0-1.1,0.4-1.1,1c0,0.4,0.4,0.7,0.7,0.7c0.7,0,1.2-0.7,1.2-1.3C88,49.6,87.5,49.1,86.8,49.1z M73.3,49.2
		c0.5,0,1.1,0.2,1.1,0.8c0,1.1-1,2.3-1.8,3c-1.1,1.1-2.8,1.9-4.4,1.9c-0.2,0-0.3,0-0.5,0C68.7,53.2,71,49.2,73.3,49.2z M28.8,58.8
		c-1,0-1.5-0.8-1.5-1.7c0-0.8,0.3-1.5,0.6-2.2c0.9-1.9,2.3-3.6,4-4.8c0.8-0.6,1.7-1.1,2.8-1.1c1,0,1.8,0.6,1.8,1.6
		c0,1.4-1.1,3-1.9,4C33.4,56.3,31.1,58.8,28.8,58.8z"/>
</g>
</svg>
