<?xml version="1.0" encoding="utf-8"?>
<!-- Generator: Adobe Illustrator 21.0.2, SVG Export Plug-In . SVG Version: 6.00 Build 0)  -->
<svg version="1.1" id="Layer_1" xmlns="http://www.w3.org/2000/svg" xmlns:xlink="http://www.w3.org/1999/xlink" x="0px" y="0px"
	 viewBox="0 0 100 100" style="enable-background:new 0 0 100 100;" xml:space="preserve">
<style type="text/css">
	.st0{fill:#BDBDC0;}
	.st1{fill-rule:evenodd;clip-rule:evenodd;fill:#BDBDC0;}
</style>
<g>
	<polygon class="st0" points="21.1,59.4 19.6,59.4 19.6,58 18.8,58 18.8,61.6 19.6,61.6 19.6,60 21.1,60 21.1,61.6 21.9,61.6 
		21.9,58 21.1,58 	"/>
	<path class="st0" d="M28.8,59.9c0,0.6,0,1.1-0.8,1.1c-0.8,0-0.8-0.5-0.8-1.1V58h-0.8v2.2c0,1,0.7,1.4,1.6,1.4
		c0.9,0,1.6-0.5,1.6-1.4V58h-0.8V59.9z"/>
	<path class="st0" d="M35.9,60.3h0.7V61c-0.2,0.1-0.4,0.1-0.7,0.1c-0.7,0-1.1-0.5-1.1-1.3c0-0.8,0.3-1.3,1-1.3
		c0.5,0,0.8,0.3,0.8,0.6h0.8c0-0.7-0.6-1.2-1.6-1.2c-0.8,0-1.8,0.4-1.8,1.9c0,1.4,1,1.9,1.9,1.9c0.8,0,1.2-0.2,1.5-0.3v-1.7h-1.5
		V60.3z"/>
	<path class="st0" d="M72.4,59.5c-0.2-0.1-0.4-0.1-0.6-0.2c-0.4-0.1-0.6-0.2-0.6-0.5c0-0.3,0.2-0.5,0.6-0.5c0.4,0,0.6,0.3,0.6,0.6
		h0.8c0-0.7-0.7-1.1-1.4-1.1c-0.7,0-1.4,0.4-1.4,1.1c0,0.5,0.4,0.8,0.9,0.9c0.2,0,0.4,0.1,0.6,0.2c0.5,0.1,0.7,0.3,0.7,0.6
		c0,0.4-0.4,0.5-0.6,0.5c-0.6,0-0.8-0.3-0.8-0.7h-0.8c0,0.8,0.6,1.3,1.6,1.3c0.8,0,1.5-0.4,1.5-1.1C73.4,60,73,59.7,72.4,59.5z"/>
	<path class="st0" d="M80.2,59.5c-0.2-0.1-0.4-0.1-0.6-0.2c-0.4-0.1-0.6-0.2-0.6-0.5c0-0.3,0.2-0.5,0.6-0.5c0.4,0,0.6,0.3,0.6,0.6
		H81c0-0.7-0.7-1.1-1.4-1.1c-0.7,0-1.4,0.4-1.4,1.1c0,0.5,0.4,0.8,0.9,0.9c0.2,0,0.4,0.1,0.6,0.2c0.5,0.1,0.7,0.3,0.7,0.6
		c0,0.4-0.4,0.5-0.6,0.5c-0.6,0-0.8-0.3-0.8-0.7h-0.8c0,0.8,0.6,1.3,1.6,1.3c0.8,0,1.5-0.4,1.5-1.1C81.2,60,80.7,59.7,80.2,59.5z"/>
	<path class="st0" d="M43.7,57.9c-1.2,0-1.8,0.8-1.8,1.9c0,1.1,0.6,1.9,1.8,1.9c1.2,0,1.8-0.8,1.8-1.9
		C45.5,58.7,44.9,57.9,43.7,57.9z M43.7,61.1c-0.8,0-0.9-0.7-0.9-1.3c0-0.6,0.2-1.3,0.9-1.3c0.8,0,0.9,0.7,0.9,1.3
		C44.6,60.4,44.5,61.1,43.7,61.1z"/>
	<path class="st0" d="M56.7,59.7c0.3,0,0.7-0.4,0.7-0.8c0-0.6-0.5-0.9-1.3-0.9h-1.6v3.7h1.6c0.7,0,1.4-0.4,1.4-1
		C57.6,60.1,57.1,59.7,56.7,59.7z M55.3,58.5H56c0.3,0,0.5,0.2,0.5,0.5c0,0.3-0.3,0.5-0.5,0.5h-0.7V58.5z M56,61.1h-0.7V60H56
		c0.4,0,0.6,0.1,0.6,0.5C56.7,60.9,56.4,61.1,56,61.1z"/>
	<path class="st0" d="M64,57.9c-1.2,0-1.8,0.8-1.8,1.9c0,1.1,0.6,1.9,1.8,1.9c1.2,0,1.8-0.8,1.8-1.9C65.8,58.7,65.2,57.9,64,57.9z
		 M64,61.1c-0.8,0-1-0.7-1-1.4c0-0.6,0.2-1.4,1-1.4c0.8,0,1,0.7,1,1.4C64.9,60.4,64.8,61.1,64,61.1z"/>
	<path class="st0" d="M62.7,44.7c-2.2-0.8-5.1-1.6-5.1-3.3c0-1.8,1.5-2.4,3.1-2.3c2.8,0.2,4,2.1,4.4,4.1h0.6v-3.7
		c-1.4-0.6-3.2-1-5-1.1c-3.3-0.1-6.1,1.9-5.7,5c0.3,2.6,2.7,3.6,5.1,4.5c2.2,0.9,4.5,1.6,4.5,3.7c0,1.8-1.7,2.8-4,2.7
		c-3.9-0.2-5-4.3-5.1-4.8h-0.6v4.4c1.2,0.5,4.1,1.3,6.4,1.2c5.3-0.2,6.1-3.7,5.9-5.5C67,46.7,64.9,45.6,62.7,44.7z"/>
	<path class="st0" d="M82,49.6c-0.3-2.9-2.4-4-4.6-4.9c-2.2-0.8-5.1-1.6-5.1-3.3c0-1.8,1.5-2.4,3.1-2.3c2.8,0.2,4,2.1,4.4,4.1h0.6
		v-3.7c-1.4-0.6-3.2-1-5-1.1c-3.3-0.1-6.1,1.9-5.7,5c0.3,2.6,2.7,3.6,5.1,4.5c2.2,0.9,4.5,1.6,4.5,3.7c0,1.8-1.7,2.8-4,2.7
		c-3.9-0.2-5-4.3-5.1-4.8h-0.6v4.4c1.2,0.5,4.1,1.3,6.4,1.2C81.3,54.9,82.2,51.4,82,49.6z"/>
	<path class="st0" d="M43.8,38.3c-4.7,0-8.6,3.8-8.6,8.5c0,4.7,3.8,8.5,8.6,8.5c4.7,0,8.6-3.8,8.6-8.5
		C52.4,42.1,48.6,38.3,43.8,38.3z M43.8,54.6c-3.4,0-4.5-4.3-4.5-7.8c0-3.5,1.3-7.8,4.5-7.8c3.1,0,4.5,4.3,4.5,7.8
		C48.4,50.3,47.2,54.6,43.8,54.6z"/>
	<path class="st0" d="M28.3,46c1.8-0.3,4-1.8,3.9-4c-0.1-2.3-2.6-3.4-4.9-3.4l-9.2,0v0.6h0.5c0.3,0,0.9,0.1,0.9,0.6v13.6
		c0,0.5-0.5,0.7-1.1,0.7H18v0.6h8.7c3.1,0,6.4-1.4,6.4-4.6C33.2,46.7,29.4,46.1,28.3,46z M23.2,39.3H25c1.8,0,3.2,1.1,3.3,3.1
		c0.1,1.9-1.4,3.4-3.2,3.4h-1.9V39.3z M25.3,54.2h-2.2v-7.8h2.2c2.4,0,3.7,1.7,3.8,3.6C29.3,52.4,27.5,54.2,25.3,54.2z"/>
</g>
</svg>
