<?xml version="1.0" encoding="utf-8"?>
<!-- Generator: Adobe Illustrator 21.0.2, SVG Export Plug-In . SVG Version: 6.00 Build 0)  -->
<svg version="1.1" id="Layer_1" xmlns="http://www.w3.org/2000/svg" xmlns:xlink="http://www.w3.org/1999/xlink" x="0px" y="0px"
	 viewBox="0 0 100 100" style="enable-background:new 0 0 100 100;" xml:space="preserve">
<style type="text/css">
	.st0{fill:#BDBDC0;}
	.st1{fill-rule:evenodd;clip-rule:evenodd;fill:#BDBDC0;}
</style>
<g>
	<path class="st0" d="M69.4,35.4c-0.8,0.4-1.4,0-2.4,1.9c-3,6.1-5.3,11-8.1,18.2c0.1-5.9,1.1-10.5,1.8-16.2c0.1-1,0.3-2.5,0.3-3.6
		c0-0.8-0.9-1-2.6-0.1c-0.9,0.5-2.1,0.4-2.5,1.5c-1.8,4.7-6.1,17.9-8.1,25.4c-0.5,1.8,1.3,2.1,1.9,0.2c1.3-4.4,4.3-14.3,6-19.3
		c-0.2,4.6-1.4,12-0.8,15.8c0.2,1.2,1.3,1.7,1.9,2.8c0.4,0.7,1.1,0.8,1.4-0.2c1.7-4.7,5.1-12.9,8.3-19.5c-0.6,2.9-3.1,15.3-3.8,20.1
		c-0.1,1,1.1,1,2.2,2.5c0.2,0.3,1.2,0.7,1.3-0.2c0.6-2.9,4.3-22.1,5.8-28.1C72.6,34.9,72.5,34.1,69.4,35.4z"/>
	<path class="st0" d="M44.8,49.4c1.3-1.9,1.7-1.5,2-2.1c0.4-0.7,0.1-1.4-1.3-1.3c0,0-0.5,0-1.5,0.1c1.6-3.9,2.9-7.2,3.9-9.8
		c0.3-0.9,0.4-1.5-0.2-1.6c-0.6-0.1-2.3,0.8-3.3,0.9c-0.3,0.1-0.6,0.4-0.7,0.7c-1.6,3.7-3.1,7.3-4.4,10.5c-1.6,0.3-3.5,0.7-5.7,1.1
		c1.5-3.9,3.1-7.7,4.6-11.3c0.7-1.8-1.2-2-2-0.2c-1,2.4-2.8,6.8-4.8,12c-1.5,0.4-3.1,0.8-4.7,1.3c-1.2,0.3-1.3,0.6-0.7,1.4
		c0.3,0.4,0.9,0.3,1.1,0.6c0.7,0.7,1.1,1.6,2.4,1.7c-1.2,3-2.3,6.1-3.3,9c-0.6,1.9,1.2,2.2,1.9,0.3c1.1-3.1,2.3-6.3,3.5-9.6
		c1-0.2,3.5-0.7,5.7-1.2c-1.8,4.9-3,8.6-3.4,10.4c-0.1,0.3,0.1,0.5,0.2,0.7c0.6,0.9,1.2,0.9,2,2c0.2,0.3,0.9,0.4,1.2-0.3
		c1.7-5,3.3-9.7,4.9-13.9C42.8,50.7,44,50.4,44.8,49.4z"/>
	<path class="st0" d="M46,57c-0.1,0.1-0.2,0.2-0.4,0.4c-0.1-0.4-0.3-0.9-0.4-1.3c0.4-0.5,0.8-1,1.1-1.4c1.4-2.1-1.3-3.3-2.4-1.9
		c-0.6,0.7-0.5,1.4-0.3,2c0,0.2,0.1,0.5,0.2,0.8c-0.3,0.3-0.7,0.7-1.2,1.3c-1.3,1.5-0.9,3.4,0.4,3.9c0.8,0.3,1.6-0.1,2.3-0.7
		c0,0.1,0.1,0.2,0.1,0.2c0.4,0.9,1.5,0.6,1.1-0.5c-0.1-0.2-0.2-0.4-0.3-0.7c0.2-0.3,0.4-0.6,0.6-0.8C47.6,57,46.8,56.3,46,57z
		 M44.2,58.6c-0.5,0.3-0.9,0-0.2-0.9c0.1-0.2,0.2-0.3,0.3-0.5c0.1,0.3,0.2,0.7,0.4,1.1C44.5,58.3,44.4,58.5,44.2,58.6z M44.8,54.5
		c0-0.1-0.1-0.2-0.1-0.3c-0.4-1.4,1.3-1.1,0.4-0.1C45,54.3,44.9,54.4,44.8,54.5z"/>
</g>
</svg>
