<?xml version="1.0" encoding="utf-8"?>
<!-- Generator: Adobe Illustrator 21.0.2, SVG Export Plug-In . SVG Version: 6.00 Build 0)  -->
<svg version="1.1" id="Layer_1" xmlns="http://www.w3.org/2000/svg" xmlns:xlink="http://www.w3.org/1999/xlink" x="0px" y="0px"
	 viewBox="0 0 100 100" style="enable-background:new 0 0 100 100;" xml:space="preserve">
<style type="text/css">
	.st0{fill:#BDBDC0;}
	.st1{fill-rule:evenodd;clip-rule:evenodd;fill:#BDBDC0;}
</style>
<g>
	<path class="st0" d="M26,55.5L26,55.5c-1.1,0.6-3.4,0.9-4.3,0.9H20V44c0-0.2,0.1-0.4,0.2-0.6l0.6-0.8c0-0.1,0-0.2,0-0.2h-4.3
		c0,0.1,0,0.2,0,0.2l0.6,0.8c0.1,0.2,0.2,0.4,0.2,0.6v12.2c0,0.2-0.2,0.4-0.3,0.6l-0.6,0.5c0,0.1,0,0.2,0,0.3h9.3l0.5-2.1
		C26.2,55.5,26.1,55.5,26,55.5z"/>
	<path class="st0" d="M74.6,42.4H71c0,0.1,0,0.2,0,0.2l0.7,0.6c0.1,0.1,0.3,0.3,0.2,0.5l-3.2,10l-3.2-11.4c-0.5-0.1-1.1-0.1-1.6,0
		L60,53.7l-2.6-9.8c-0.1-0.1,0-0.3,0.1-0.4l0.7-0.8c0-0.1,0-0.2,0-0.2h-4.5c0,0.1,0,0.2,0,0.2l0.7,0.8c0.1,0.1,0.2,0.3,0.2,0.4
		l3.8,13.8c0.5,0.1,1.1,0.1,1.6,0l3.8-11.5l3.3,11.5c0.5,0.1,1,0.1,1.6,0l4.5-13.5c0.1-0.2,0.2-0.4,0.3-0.6l0.9-0.9
		C74.6,42.6,74.6,42.5,74.6,42.4L74.6,42.4z"/>
	<path class="st0" d="M52.5,55.8L52.5,55.8c-0.9,0.4-3.6,0.7-4.6,0.7h-1.5V51h2.6l0.8,0.5c0.1,0,0.2,0,0.3,0v-2.6
		c-0.1,0-0.2,0-0.3,0l-0.9,0.4h-2.6v-5.7h3.8l2,0.5c0.1,0,0.2,0,0.3,0l-0.4-1.7H43c0,0.1,0,0.2,0,0.2l0.6,0.8
		c0.1,0.2,0.2,0.3,0.2,0.6v12.2c0,0.2-0.2,0.5-0.4,0.6L43,57.3c0,0.1,0,0.2,0,0.3h9.3l0.5-1.9C52.7,55.7,52.6,55.7,52.5,55.8z"/>
	<path class="st0" d="M85.1,55.7L85.1,55.7c-0.9,0.5-3.6,0.7-4.6,0.7h-1.5V51h2.6l0.8,0.5c0.1,0,0.2,0,0.3,0v-2.6
		c-0.1,0-0.2,0-0.3,0l-0.9,0.4h-2.6v-5.7h3.8l2,0.4c0.1,0,0.2,0,0.4,0l-0.4-1.7h-9.2c0,0.1,0,0.2,0,0.2l0.6,0.8
		c0.1,0.2,0.2,0.3,0.2,0.6v12.2c0,0.2-0.2,0.4-0.3,0.6l-0.6,0.5c0,0.1,0,0.2,0,0.3H85l0.5-1.9C85.4,55.7,85.2,55.7,85.1,55.7z"/>
	<path class="st0" d="M34.2,42.2c-1.1,0-2.3,0.2-3.3,0.7c-2.7,1.3-4.7,4.3-4.7,7.3c0,4.2,3.5,7.6,7.4,7.6c1,0,2-0.2,3-0.5
		c2.9-1.2,5-3.9,5-7.6l0,0C41.5,45.7,38.4,42.2,34.2,42.2z M36.3,56.3c-4.5,0.6-7.6-2.4-7.6-6.7c0-2.2,0.7-4.3,2.5-5.6l0,0
		c4.8-0.9,7.8,2.5,7.8,6.5C39.2,52.7,38.2,54.9,36.3,56.3z"/>
</g>
</svg>
