<?xml version="1.0" encoding="utf-8"?>
<!-- Generator: Adobe Illustrator 21.0.2, SVG Export Plug-In . SVG Version: 6.00 Build 0)  -->
<svg version="1.1" id="Layer_1" xmlns="http://www.w3.org/2000/svg" xmlns:xlink="http://www.w3.org/1999/xlink" x="0px" y="0px"
	 viewBox="0 0 100 100" style="enable-background:new 0 0 100 100;" xml:space="preserve">
<style type="text/css">
	.st0{fill:#3C3950;}
	.st1{fill-rule:evenodd;clip-rule:evenodd;fill:#3C3950;}
</style>
<g>
	<path class="st1" d="M83.3,32.8c-0.6-0.7-1.5-0.1-2,0.1c-3.1,1.8-3.5,5-4.6,6.8c-0.8,1.5-2.2,2.5-3.4,2.6c-0.9,0.1-1.9-0.1-2.9-0.5
		c-2.4-1-3.7-2.4-4-2.6c-0.6-0.5-5.7-5.4-9.7-5.6c0,0-0.5-1-0.6-1c-0.3,0-0.6,0.6-0.8,0.7c-0.2,0.1-0.5-0.7-0.8-0.7
		c-0.2,0-0.4,0.8-0.8,1.2C53.4,34,53,34,52.8,34.3c-0.1,0.1,0,0.4-0.1,0.6c-0.2,0.4-0.7,0.5-0.7,0.9c0,0.5,0.5,0.6,0.9,1
		c0.3,0.3,0.4,0.5,0.7,0.6c0.3,0.1,0.8-0.3,1.3-0.1c0.4,0.1,0.7,0.2,0.8,0.6c0.1,0.3,0,0.9-0.5,0.8c-0.2,0-0.8-0.2-1.6-0.2
		c-1,0.1-2.1,0.4-2.2,1.5c-0.1,0.6,0.7,1.3,1.4,1.2c0.5-0.1,0.3-0.7,0.5-1c0.4-0.4,2.4,1.3,4.2,1.3c0.8,0,1.4-0.2,2-0.8
		c0.1,0,0.1-0.1,0.2-0.2c0.1,0,0.2,0.1,0.3,0.1c1.5,1.2,2.6,3.6,8.2,3.6c0.8,0,1.7,0.4,2.4,1c0.6,0.6,1,1.5,1.4,2.5
		c0.6,1.4,1.5,2.8,3.1,4.3c0.1,0.1,1.3,1,1.4,1.1c0,0,0.1,0.2,0.1,0.3c0,0.9-0.2,3.6,1.8,3.7c0.5,0,0.4-0.3,0.4-0.5
		c0-0.5-0.1-0.9,0.2-1.4c0.3-0.6-0.7-0.9-0.7-2.4c0-1-0.9-0.9-1.3-1.7c-0.3-0.5-0.5-0.7-0.5-1.3c0.1-3.2-0.7-5.3-1.1-5.8
		c-0.3-0.4-0.6-0.5-0.3-0.7c1.7-1.1,2-2.1,2-2.1c0.9-2.1,1.7-3.9,2.8-4.8c0.2-0.2,0.8-0.6,1.1-0.8c1-0.5,1.6-0.8,1.9-1.1
		C83.3,34.3,83.7,33.4,83.3,32.8z"/>
	<path class="st1" d="M37.3,61c0,0.4-0.3,0.7-0.7,0.7c-0.4,0-0.7-0.3-0.7-0.7l0-12.6h-4.2v13.9c0,0.7,0.6,1.2,1.2,1.2h7.3
		c0.7,0,1.2-0.6,1.2-1.2V48.4h-4.2L37.3,61z"/>
	<path class="st1" d="M56.9,48.4h-6.3h-6.3c-0.7,0-1.4,0.6-1.4,1.4v13.7h4.2V50.9c0-0.4,0.3-0.7,0.7-0.7c0.4,0,0.7,0.3,0.7,0.7v12.6
		h4.2V50.9c0-0.4,0.3-0.7,0.7-0.7c0.4,0,0.7,0.3,0.7,0.7v12.6h4.2V49.8C58.2,49,57.6,48.4,56.9,48.4z"/>
	<path class="st1" d="M28.9,48.4h-8.4v15.1h4.2v-3.8h4.2c0.8,0,1.4-0.6,1.4-1.4v-8.6C30.3,49,29.7,48.4,28.9,48.4z M26.1,57.1
		c0,0.4-0.3,0.7-0.7,0.7h-0.7v-7.6h0.7c0.4,0,0.7,0.3,0.7,0.7V57.1z"/>
	<path class="st1" d="M72.5,59.8c-1,0-1.8,0.8-1.8,1.9c0,1,0.8,1.9,1.9,1.9c1,0,1.9-0.8,1.9-1.9C74.4,60.7,73.6,59.8,72.5,59.8z
		 M72.6,63.3c-0.9,0-1.6-0.7-1.6-1.6c0-0.9,0.7-1.6,1.5-1.6h0c0.9,0,1.6,0.7,1.6,1.6C74.1,62.6,73.4,63.3,72.6,63.3z"/>
	<path class="st1" d="M72.8,61.9c0.3-0.1,0.4-0.3,0.4-0.6c0-0.4-0.3-0.6-0.9-0.6h-0.4v2.1h0.4v-0.8l0.6,0.8h0.5L72.8,61.9L72.8,61.9
		z M72.4,61.6L72.4,61.6L72.3,61h0.1c0.3,0,0.4,0.1,0.4,0.3C72.8,61.5,72.7,61.6,72.4,61.6z"/>
	<path class="st1" d="M68,48.4h-7c-0.7,0-1.4,0.6-1.4,1.4v13.7h4.2v-3.8h1.4v3.8h4.2V49.8C69.4,49,68.8,48.4,68,48.4z M65.2,57.8
		h-1.4v-6.9c0-0.4,0.3-0.7,0.7-0.7c0.4,0,0.7,0.3,0.7,0.7V57.8z"/>
</g>
</svg>
