<?xml version="1.0" encoding="utf-8"?>
<!-- Generator: Adobe Illustrator 21.0.2, SVG Export Plug-In . SVG Version: 6.00 Build 0)  -->
<svg version="1.1" id="Layer_1" xmlns="http://www.w3.org/2000/svg" xmlns:xlink="http://www.w3.org/1999/xlink" x="0px" y="0px"
	 viewBox="0 0 100 100" style="enable-background:new 0 0 100 100;" xml:space="preserve">
<style type="text/css">
	.st0{fill:#BDBDC0;}
	.st1{fill-rule:evenodd;clip-rule:evenodd;fill:#BDBDC0;}
</style>
<g>
	<path class="st0" d="M76.9,61.2c-0.1,0-0.2-0.1-0.3-0.1c-0.5-0.2-1.4-0.4-2.6-0.7c-1-0.2-1.6-0.5-1.6-0.9c0-0.3,0.1-0.5,0.3-0.6
		c0.2-0.2,0.7-0.3,1.3-0.3c0.6,0,1.1,0.1,1.3,0.4c0.2,0.2,0.3,0.5,0.4,0.9h0.8h1.6c0-0.6-0.1-1.1-0.4-1.6c-0.2-0.4-0.6-0.8-1.1-1.1
		c-0.1,0-0.1-0.1-0.2-0.1c-0.7-0.3-1.6-0.5-2.7-0.5c-1.4,0-2.4,0.4-3.1,1.1C70.2,58.3,70,59,70,59.9c0,1,0.5,1.8,1.6,2.3
		c0.4,0.2,1.4,0.5,2.9,0.8c1,0.2,1.5,0.5,1.5,0.9c0,0.2-0.1,0.4-0.3,0.6c-0.3,0.2-0.7,0.4-1.3,0.4c-0.8,0-1.3-0.1-1.6-0.4
		c-0.3-0.2-0.5-0.6-0.5-1h-2.6c0,0.6,0.1,1.1,0.4,1.5c0.2,0.4,0.6,0.8,1.1,1.1c0.8,0.5,1.8,0.7,3.1,0.7c0.9,0,1.6-0.1,2.3-0.4
		c0.1-0.1,0.3-0.1,0.4-0.2c1-0.6,1.5-1.5,1.5-2.7C78.5,62.5,78,61.7,76.9,61.2z"/>
	<path class="st0" d="M76.2,54.2h0.2l0.2,0.1c0,0,0,0,0,0c0.1,0.1,0.1,0.2,0.2,0.3l0.1,0.3h0.3l-0.2-0.3l-0.2-0.3
		c0,0-0.1-0.1-0.1-0.1c0.1,0,0.2-0.1,0.3-0.1c0.1-0.1,0.1-0.2,0.1-0.3c0-0.1,0-0.2-0.1-0.2c-0.1-0.1-0.1-0.1-0.2-0.2
		c-0.1,0-0.2,0-0.3,0c0,0-0.1,0-0.1,0h-0.6v1.6h0.3V54.2z M76.2,53.5h0.3h0.1c0.1,0,0.1,0,0.2,0c0.1,0,0.1,0,0.1,0.1
		c0,0,0,0.1,0,0.1c0,0.1,0,0.1-0.1,0.2c0,0-0.1,0.1-0.2,0.1c0,0-0.1,0-0.1,0h-0.3V53.5z"/>
	<path class="st0" d="M75.8,55.4c0.2,0.1,0.5,0.2,0.7,0.2c0,0,0,0,0,0c0.3,0,0.5-0.1,0.7-0.2c0.2-0.1,0.4-0.3,0.5-0.5
		c0.1-0.2,0.2-0.5,0.2-0.7c0-0.3-0.1-0.5-0.2-0.8c-0.1-0.2-0.3-0.4-0.6-0.5c-0.2-0.1-0.5-0.2-0.7-0.2c0,0,0,0,0,0
		c-0.2,0-0.5,0.1-0.7,0.2c-0.2,0.1-0.4,0.3-0.6,0.5c-0.1,0.2-0.2,0.5-0.2,0.8c0,0.2,0.1,0.5,0.2,0.7C75.4,55.1,75.6,55.3,75.8,55.4z
		 M75.5,53.5c0.1-0.2,0.3-0.4,0.5-0.5c0.2-0.1,0.4-0.2,0.6-0.2c0,0,0,0,0,0c0.2,0,0.4,0.1,0.6,0.2c0.2,0.1,0.4,0.3,0.5,0.5
		c0.1,0.2,0.2,0.4,0.2,0.6c0,0.2-0.1,0.4-0.2,0.6c-0.1,0.2-0.3,0.3-0.5,0.5c-0.2,0.1-0.4,0.2-0.6,0.2c0,0,0,0,0,0
		c-0.2,0-0.4-0.1-0.6-0.2c-0.2-0.1-0.4-0.3-0.5-0.5c-0.1-0.2-0.2-0.4-0.2-0.6C75.3,53.9,75.4,53.7,75.5,53.5z"/>
	<polygon class="st0" points="59.2,53.7 63.5,53.7 70.5,53.7 63.5,42 55.7,29 52.5,31 47.4,34 52.5,42.5 	"/>
	<path class="st0" d="M66.2,57.6c-0.8-0.5-1.7-0.8-2.7-0.8c0,0,0,0,0,0c-2.8,0-5.1,2.3-5.1,5.1c0,2.8,2.3,5.1,5.1,5.1c0,0,0,0,0,0
		c1,0,2-0.3,2.7-0.8v0.5h2.3v-4.8V57h-2.3V57.6z M66.2,62.4c-0.2,1.3-1.4,2.3-2.7,2.3c0,0,0,0,0,0c-1.5,0-2.8-1.3-2.8-2.8
		c0-1.5,1.2-2.8,2.8-2.8c0,0,0,0,0,0c1.4,0,2.5,1,2.7,2.3V62.4z"/>
	<path class="st0" d="M55.3,57.6c-0.8-0.5-1.7-0.8-2.7-0.8c0,0,0,0,0,0c-2.8,0-5.1,2.3-5.1,5.1c0,2.8,2.3,5.1,5.1,5.1c0,0,0,0,0,0
		c1,0,1.9-0.3,2.7-0.8v0.5h2.3v-4.8v-8.1h-2.3V57.6z M55.3,62.4c-0.2,1.3-1.4,2.3-2.7,2.3c0,0,0,0,0,0c-1.5,0-2.8-1.3-2.8-2.8
		c0-1.5,1.2-2.8,2.8-2.8c0,0,0,0,0,0c1.4,0,2.5,1,2.7,2.3V62.4z"/>
	<polygon class="st0" points="55.2,53.7 52.5,49.1 45.7,37.8 37.7,42.7 37.4,42.8 37.7,43.3 43.9,53.7 52.5,53.7 	"/>
	<rect x="44" y="56.8" class="st0" width="2.5" height="9.9"/>
	<rect x="44" y="53.8" class="st0" width="2.5" height="2.2"/>
	<path class="st0" d="M40.4,57.6c-0.8-0.5-1.7-0.8-2.8-0.8c0,0,0,0,0,0c-2.8,0-5.1,2.3-5.1,5.1c0,2.8,2.3,5.1,5.1,5.1c0,0,0,0,0,0
		c1,0,2-0.3,2.8-0.8v0.5h2.3v-4.8v-8.1h-2.3V57.6z M40.4,62.4c-0.2,1.3-1.4,2.3-2.8,2.3c0,0,0,0,0,0c-1.5,0-2.8-1.3-2.8-2.8
		c0-1.5,1.2-2.8,2.8-2.8c0,0,0,0,0,0c1.4,0,2.5,1,2.8,2.3V62.4z"/>
	<polygon class="st0" points="37.7,53.7 40,53.7 37.7,49.9 35.7,46.6 27.4,51.6 28.7,53.7 	"/>
	<path class="st0" d="M29.3,57.6c-0.8-0.5-1.7-0.8-2.8-0.8c0,0,0,0,0,0c-2.8,0-5.1,2.3-5.1,5.1c0,2.8,2.3,5.1,5.1,5.1c0,0,0,0,0,0
		c1,0,2-0.3,2.8-0.8v0.5h2.3v-4.8V57h-2.3V57.6z M29.3,62.4c-0.2,1.3-1.4,2.3-2.8,2.3c0,0,0,0,0,0c-1.5,0-2.8-1.3-2.8-2.8
		c0-1.5,1.2-2.8,2.8-2.8c0,0,0,0,0,0c1.4,0,2.5,1,2.8,2.3V62.4z"/>
</g>
</svg>
