<?xml version="1.0" encoding="utf-8"?>
<!-- Generator: Adobe Illustrator 24.3.0, SVG Export Plug-In . SVG Version: 6.00 Build 0)  -->
<svg version="1.1" id="Слой_1" xmlns="http://www.w3.org/2000/svg" xmlns:xlink="http://www.w3.org/1999/xlink" x="0px" y="0px"
	 viewBox="0 0 80.3 82.6" style="enable-background:new 0 0 80.3 82.6;" xml:space="preserve">
<style type="text/css">
	.st0{fill-rule:evenodd;clip-rule:evenodd;fill:#66686D;}
</style>
<g>
	<g>
		<path class="st0" d="M14.2,41.8l-2.3-9.1H9.2v17h2.4V41l1.5,8.8h1.9l1.8-8.8l0,8.8h2.5v-17h-2.8L14.2,41.8z M24.5,32.5
			c-1.9,0-3.6,1-3.6,4.7v8.2c0,3.7,1.7,4.7,3.6,4.7c1.9,0,3.6-1,3.6-4.7v-8.2C28.1,33.5,26.3,32.5,24.5,32.5z M25.6,46.3
			c0,0.6-0.5,1.3-1.1,1.3c-0.6,0-1.1-0.6-1.1-1.3v-10c0-0.6,0.5-1.3,1.1-1.3c0.6,0,1.1,0.6,1.1,1.3V46.3z M75.5,37.2
			c0-3.7-1.7-4.7-3.6-4.7c-1.9,0-3.6,1-3.6,4.7v8.2c0,3.7,1.7,4.7,3.6,4.7c1.9,0,3.6-1,3.6-4.7V37.2z M73,46.3
			c0,0.6-0.5,1.3-1.1,1.3c-0.6,0-1.1-0.6-1.1-1.3v-10c0-0.6,0.5-1.3,1.1-1.3c0.6,0,1.1,0.6,1.1,1.3V46.3z M41.5,32.5
			c-1.9,0-3.5,1-3.5,4.7v8.2c0,3.7,1.7,4.7,3.5,4.7c2.4,0,3.6-1.4,3.6-4.5v-1.7h-2.6v2.3c0,0.6-0.4,1.3-1,1.3c-0.6,0-1-0.6-1-1.3
			v-10c0-0.6,0.4-1.3,1-1.3c0.6,0,1,0.6,1,1.3v2.2h2.6v-1.8C45.1,33.3,43.6,32.5,41.5,32.5z M51.1,40.2h-2.3v-7.4h-2.5v17h2.5v-7.5
			h2.3v7.5h2.4v-17h-2.4V40.2z M55.1,49.8h2.8v-17h-2.8V49.8z M64.4,40.4l-2.4-7.6h-2.8v17h2.7v-9l2.8,9h2.2v-17h-2.5V40.4z
			 M32.9,32.5c-1.9,0-3.6,1-3.6,4.7v0.6c0,0.2,0,1.7,1.4,2.7c1.6,1,3.2,1.9,3.2,3.6v2.1c0,0.6-0.4,1.3-1,1.3c-0.6,0-1-0.6-1-1.3
			v-2.2h-2.6v1.3c0,3.7,1.7,4.7,3.6,4.7c2.4,0,3.6-1.4,3.6-4.5v-1.6h0c0-3-2.4-4.4-3.4-4.9c-0.8-0.4-1.1-1.3-1.2-1.4v-1.4
			c0-0.6,0.4-1.3,1-1.3c0.6,0,1,0.6,1,1.3v1.5h2.6v-1C36.5,33.3,35,32.5,32.9,32.5z M6.7,47.7H4.6c-1.1,0-1.4,0.5-1.4,1
			c0,0.5,0.3,1,1.4,1h2.1c1.1,0,1.4-0.5,1.4-1C8.1,48.2,7.8,47.7,6.7,47.7z M7,48.9H4.3c-0.2,0-0.4-0.1-0.4-0.2
			c0-0.2,0.2-0.2,0.4-0.2H7c0.2,0,0.4,0,0.4,0.2C7.4,48.9,7.2,48.9,7,48.9z M6.8,45.1H6.2v0.8H7c0.2,0,0.4,0,0.4,0.2
			c0,0.2-0.2,0.2-0.4,0.2H4.3c-0.2,0-0.4,0-0.4-0.2c0-0.2,0.2-0.2,0.4-0.2H5v-0.8H4.5c-1,0-1.3,0.4-1.3,1c0,0.5,0.3,1,1.4,1h2.1
			c1.1,0,1.4-0.5,1.4-1C8.1,45.4,7.7,45.1,6.8,45.1z M6.8,42.5H6.2v0.8H7c0.2,0,0.4,0.1,0.4,0.2c0,0.2-0.2,0.2-0.4,0.2H4.3
			c-0.2,0-0.4,0-0.4-0.2c0-0.2,0.2-0.2,0.4-0.2H5v-0.8H4.5c-1,0-1.3,0.4-1.3,1c0,0.5,0.3,1,1.4,1h2.1c1.1,0,1.4-0.5,1.4-1
			C8.1,42.9,7.7,42.5,6.8,42.5z M8,41.3H5.8v-0.4H8V40H3.3v0.8H5v0.4H3.3v0.8H8V41.3z M8,38.8H3.3v0.8H8V38.8z M8,37.7l-1.2-0.2
			v-0.4L8,37v-0.8l-4.7,0.4v1.1L8,38.4V37.7z M6.2,37.5L4,37.3l2.1-0.1V37.5z M8,33.9H7.3v0.9h-4v0.8H8V33.9z M8,32.7H3.3v0.8H8
			V32.7z M76.3,48.3c-0.4,0-0.8,0.3-0.8,0.8s0.4,0.8,0.8,0.8c0.4,0,0.8-0.3,0.8-0.8S76.8,48.3,76.3,48.3z M76.3,49.7
			c-0.4,0-0.6-0.3-0.6-0.6c0-0.4,0.3-0.6,0.6-0.6c0.4,0,0.6,0.3,0.6,0.6C77,49.4,76.7,49.7,76.3,49.7z M76.7,48.9
			c0-0.2-0.1-0.2-0.3-0.2H76v0.9h0.1v-0.4h0.2l0.2,0.4h0.2l-0.3-0.4C76.6,49.1,76.7,49,76.7,48.9z M76.2,49v-0.3h0.2
			c0.1,0,0.2,0,0.2,0.1c0,0.1-0.1,0.1-0.2,0.1H76.2z"/>
	</g>
</g>
</svg>
