<?xml version="1.0" encoding="utf-8"?>
<!-- Generator: Adobe Illustrator 24.3.0, SVG Export Plug-In . SVG Version: 6.00 Build 0)  -->
<svg version="1.1" id="Слой_1" xmlns="http://www.w3.org/2000/svg" xmlns:xlink="http://www.w3.org/1999/xlink" x="0px" y="0px"
	 viewBox="0 0 80.3 82.6" style="enable-background:new 0 0 80.3 82.6;" xml:space="preserve">
<style type="text/css">
	.st0{fill:#66686D;}
</style>
<g>
	<g>
		<path class="st0" d="M60.6,26.7c-0.8,0.4-1.4,0-2.4,1.9c-3,6.1-5.3,11-8.1,18.2c0.1-5.9,1.1-10.5,1.8-16.2c0.1-1,0.3-2.5,0.3-3.6
			c0-0.8-0.9-1-2.6-0.1c-0.9,0.5-2.1,0.4-2.5,1.5c-1.8,4.7-6.1,17.9-8.1,25.4c-0.5,1.8,1.3,2.1,1.9,0.2c1.3-4.4,4.3-14.3,6-19.3
			c-0.2,4.6-1.4,12-0.8,15.8c0.2,1.2,1.3,1.7,1.9,2.8c0.4,0.7,1.1,0.8,1.4-0.2c1.7-4.7,5.1-12.9,8.3-19.5
			c-0.6,2.9-3.1,15.3-3.8,20.1c-0.1,1,1.1,1,2.2,2.5c0.2,0.3,1.2,0.7,1.3-0.2c0.6-2.9,4.3-22.1,5.8-28.1
			C63.8,26.2,63.6,25.4,60.6,26.7z M35.9,40.7c1.3-1.9,1.7-1.5,2-2.1c0.4-0.7,0.1-1.4-1.3-1.3c0,0-0.5,0-1.5,0.1
			c1.6-3.9,2.9-7.2,3.9-9.8c0.3-0.9,0.4-1.5-0.2-1.6c-0.6-0.1-2.3,0.8-3.3,0.9c-0.3,0.1-0.6,0.4-0.7,0.7c-1.6,3.7-3.1,7.3-4.4,10.5
			c-1.6,0.3-3.5,0.7-5.7,1.1c1.5-3.9,3.1-7.7,4.6-11.3c0.7-1.8-1.2-2-2-0.2c-1,2.4-2.8,6.8-4.8,12c-1.5,0.4-3.1,0.8-4.7,1.3
			c-1.2,0.3-1.3,0.6-0.7,1.4c0.3,0.4,0.9,0.3,1.1,0.6c0.7,0.7,1.1,1.6,2.4,1.7c-1.2,3-2.3,6.1-3.3,9c-0.6,1.9,1.2,2.2,1.9,0.3
			c1.1-3.1,2.3-6.3,3.5-9.6c1-0.2,3.5-0.7,5.7-1.2c-1.8,4.9-3,8.6-3.4,10.4c-0.1,0.3,0.1,0.5,0.2,0.7c0.6,0.9,1.2,0.9,2,2
			c0.2,0.3,0.9,0.4,1.2-0.3c1.7-5,3.3-9.7,4.9-13.9C34,42,35.2,41.7,35.9,40.7z M37.2,48.3c-0.1,0.1-0.2,0.2-0.4,0.4
			c-0.1-0.4-0.3-0.9-0.4-1.3c0.4-0.5,0.8-1,1.1-1.4c1.4-2.1-1.3-3.3-2.4-1.9c-0.6,0.7-0.5,1.4-0.3,2c0,0.2,0.1,0.5,0.2,0.8
			c-0.3,0.3-0.7,0.7-1.2,1.3c-1.3,1.5-0.9,3.4,0.4,3.9c0.8,0.3,1.6-0.1,2.3-0.7c0,0.1,0.1,0.2,0.1,0.2c0.4,0.9,1.5,0.6,1.1-0.5
			c-0.1-0.2-0.2-0.4-0.3-0.7c0.2-0.3,0.4-0.6,0.6-0.8C38.8,48.3,38,47.6,37.2,48.3z M35.4,49.9c-0.5,0.3-0.9,0-0.2-0.9
			c0.1-0.2,0.2-0.3,0.3-0.5c0.1,0.3,0.2,0.7,0.4,1.1C35.7,49.6,35.5,49.8,35.4,49.9z M35.9,45.8c0-0.1-0.1-0.2-0.1-0.3
			c-0.4-1.4,1.3-1.1,0.4-0.1C36.2,45.6,36,45.7,35.9,45.8z"/>
	</g>
</g>
</svg>
