<?xml version="1.0" encoding="utf-8"?>
<!-- Generator: Adobe Illustrator 24.3.0, SVG Export Plug-In . SVG Version: 6.00 Build 0)  -->
<svg version="1.1" id="Слой_1" xmlns="http://www.w3.org/2000/svg" xmlns:xlink="http://www.w3.org/1999/xlink" x="0px" y="0px"
	 viewBox="0 0 80.3 82.6" style="enable-background:new 0 0 80.3 82.6;" xml:space="preserve">
<style type="text/css">
	.st0{fill:#66686D;}
</style>
<g>
	<g>
		<path class="st0" d="M29,51.7h-0.4l0,0h-0.3v2.2h0.3l0,0H29c0.6,0,1-0.5,1-1.1C30,52.2,29.5,51.7,29,51.7z M28.8,53.7h-0.4V52h0.4
			c0.4,0.1,0.7,0.4,0.7,0.8C29.6,53.3,29.3,53.7,28.8,53.7z M35.4,51.7V52v0.6v0.3v0.8V54h0.3h0.8v-0.3h-0.8v-0.8h0.8v-0.3h-0.8V52
			h0.8v-0.3h-0.8H35.4z M31.3,51.7c-0.7,0-1.2,0.5-1.2,1.1s0.6,1.2,1.2,1.2c0.7,0,1.2-0.5,1.2-1.2C32.5,52.2,31.9,51.7,31.3,51.7z
			 M31.3,53.7c-0.5,0-0.9-0.4-0.9-0.9s0.4-0.9,0.9-0.9s0.9,0.4,0.9,0.9C32.1,53.3,31.8,53.7,31.3,53.7z M33.4,52.8
			c0,0.6,0.6,1.2,1.2,1.2c0.2,0,0.5-0.1,0.7-0.2v-0.4c-0.2,0.2-0.4,0.3-0.7,0.3c-0.5,0-0.9-0.4-0.9-0.9s0.4-0.9,0.9-0.9
			c0.3,0,0.5,0.1,0.7,0.3v-0.4c-0.2-0.1-0.4-0.2-0.7-0.2C33.9,51.7,33.4,52.2,33.4,52.8z M30.5,40C30.5,39.9,30.5,39.9,30.5,40v-0.2
			c0-0.1,0-0.2,0-0.3s0-0.2,0-0.3c-0.1-1.5-0.4-2.9-1-4.3c-0.6-1.4-1.4-2.6-2.5-3.5c-1.1-0.9-2.4-1.5-3.7-1.7
			c-1.3-0.2-2.6-0.3-4-0.3h-5.6V50h5c0.2,0,0.4,0,0.7,0c0.2,0,0.4,0,0.6,0c1.2,0,2.4-0.2,3.6-0.4s2.3-0.7,3.3-1.5
			c1.2-0.9,2.1-2.1,2.7-3.6C30.2,43,30.5,41.5,30.5,40z M26.5,39.6L26.5,39.6v0.2c0,0,0,0,0,0.1c0,1-0.2,2-0.5,2.9s-0.8,1.7-1.5,2.2
			c-0.4,0.4-0.9,0.6-1.5,0.8c-0.6,0.2-1.2,0.3-1.8,0.3c-0.2,0-0.4,0-0.6,0s-0.4,0-0.6,0c-0.1,0-0.2,0-0.3,0s-0.2,0-0.4,0
			c-0.1,0-0.1,0-0.1,0c-0.1,0-0.1,0-0.2,0c-0.2,0-0.3,0-0.5,0s-0.3,0-0.4,0v-13h2.2c0.1,0,0.3,0,0.4,0c0.1,0,0.3,0,0.4,0
			c0.7,0,1.3,0.1,1.9,0.3c0.6,0.2,1.1,0.5,1.6,0.9c0.6,0.6,1.1,1.4,1.4,2.3C26.2,37.5,26.5,38.5,26.5,39.6L26.5,39.6z M32.9,51.7
			h-0.3v2.2h0.2h0.1h0.6v-0.3h-0.6V51.7z M57,38.7v3.6h5.1L62,42.4c0,1.3-0.5,2.2-1.5,2.9s-2.1,1-3.3,1c-0.2,0-0.4,0-0.6,0
			c-0.2,0-0.4,0-0.6-0.1c-1.3-0.2-2.5-0.7-3.7-1.6c-1.1-0.9-1.8-2.2-2.1-3.8c0,0,0-0.1,0-0.2s0-0.1,0-0.2c0-0.1,0-0.1,0-0.2
			c0,0,0-0.1,0-0.2c0-0.1,0-0.2-0.1-0.3c0-0.1,0-0.2,0-0.3c0-1.5,0.4-2.8,1.2-4.1s1.9-2.2,3.5-2.7c0.4-0.1,0.7-0.1,1.1-0.2
			c0.3,0,0.7-0.1,1-0.1c1,0,2,0.2,2.9,0.7c0.9,0.4,1.8,1.1,2.6,1.9l3-2.2c-1.1-1.3-2.4-2.2-4-3c-1.5-0.7-3.1-1.1-4.7-1.1h-0.1
			c-0.1,0-0.1,0-0.2,0c-0.4,0-0.8,0-1.2,0.1c-0.4,0-0.8,0.1-1.3,0.2c-0.4,0.1-0.9,0.2-1.3,0.3c-0.4,0.1-0.8,0.3-1.2,0.5
			c-1.9,0.9-3.3,2.3-4.4,4.1c-1,1.8-1.6,3.6-1.6,5.6c0,0.2,0,0.4,0,0.5c0,0.2,0,0.4,0.1,0.5c0.1,0.9,0.3,1.7,0.6,2.5
			s0.7,1.6,1.1,2.3c1,1.3,2.2,2.4,3.8,3.2s3.2,1.3,4.8,1.4c0.1,0,0.3,0,0.4,0c0.1,0,0.3,0,0.4,0c0.2,0,0.4,0,0.7,0
			c0.2,0,0.4,0,0.7,0c0.7-0.1,1.4-0.2,2.1-0.4c0.7-0.2,1.3-0.5,1.9-0.9c1.8-1,3-2.3,3.6-3.9c0.6-1.6,0.9-3.4,0.9-5.2v-0.7
			C66.6,38.7,57,38.7,57,38.7z M45.6,52.7c0.1-0.1,0.2-0.3,0.2-0.4c0-0.3-0.2-0.5-0.6-0.5c-0.2,0-0.4,0-0.6,0l0,0h-0.2V54h0.4l0,0
			h0.5c0.4,0,0.7-0.3,0.7-0.6C46,53,45.8,52.8,45.6,52.7z M44.8,52h0.3c0.2,0,0.3,0.1,0.3,0.3s-0.2,0.3-0.3,0.3h-0.3V52z M45.2,53.7
			h-0.4V53h0.3h0.1c0.2,0,0.4,0,0.4,0.4C45.6,53.6,45.4,53.7,45.2,53.7z M49.8,53.4l-1.6-1.6H48V54h0.3v-1.6l1.5,1.6H50v-2.2h-0.2
			V53.4z M40.9,48.1l1.2,1.5h3.4l-2.7-3.4c0.2-0.2,0.4-0.4,0.6-0.6c0.2-0.2,0.4-0.4,0.6-0.6c0.2-0.2,0.4-0.4,0.6-0.6
			c0.2-0.2,0.4-0.4,0.6-0.6L43.5,42c-0.2,0.3-0.5,0.5-0.7,0.8s-0.5,0.5-0.8,0.8c-0.1,0.1-0.2,0.3-0.4,0.4c-0.1,0.1-0.2,0.3-0.4,0.4
			l-2.5-2.9c0.1-0.1,0.2-0.1,0.3-0.2c0.1-0.1,0.2-0.1,0.3-0.2c0.5-0.4,0.9-0.8,1.4-1.3c0.4-0.5,0.7-1.1,0.7-1.7v-0.3
			c0-1.1-0.4-1.8-1.3-2.4c-0.8-0.5-1.8-0.8-2.8-0.8c-0.8,0-1.6,0.2-2.3,0.5s-1.2,0.9-1.4,1.7c0,0.1,0,0.1-0.1,0.2
			c0,0.1,0,0.2-0.1,0.2c0,0.1,0,0.2,0,0.3s0,0.2,0,0.4c0,0.6,0.1,1.1,0.4,1.7c0.3,0.5,0.7,1.1,1.1,1.5c-0.7,0.4-1.4,1-2,1.5
			c-0.6,0.6-1,1.3-1.1,2.2v0.1V45c0,0,0,0,0,0.1l0,0c0,0.1,0,0.1,0,0.2c0,0.1,0,0.1,0,0.2c0,0.1,0,0.1,0,0.2c0,0.1,0,0.1,0,0.2
			c0.1,0.6,0.3,1.2,0.6,1.7c0.3,0.6,0.7,1,1.2,1.4c0.3,0.2,0.6,0.3,0.9,0.4c0.3,0.1,0.6,0.2,0.9,0.2c0.2,0,0.3,0,0.5,0.1
			c0.2,0,0.3,0,0.5,0c0.1,0,0.1,0,0.2,0s0.1,0,0.2,0c0.7-0.1,1.4-0.2,2.1-0.6C39.8,49,40.4,48.6,40.9,48.1z M36,37.9
			C36,37.8,36,37.8,36,37.9C36,37.8,36,37.8,36,37.9v-0.2c0-0.4,0.2-0.6,0.4-0.8s0.5-0.3,0.7-0.3h0.1c0,0,0,0,0.1,0h0.1h0.1
			c0.3,0.1,0.7,0.2,0.9,0.4c0.3,0.2,0.4,0.6,0.4,1v0.3c-0.1,0.4-0.3,0.7-0.5,1c-0.3,0.2-0.6,0.5-0.9,0.7l0,0c0,0,0,0-0.1,0.1
			c0,0,0,0-0.1,0c0,0,0,0-0.1,0C37.1,40,37.1,40,37,39.9c-0.1-0.1-0.1-0.1-0.2-0.2c-0.2-0.2-0.4-0.5-0.6-0.8
			C36.1,38.5,36,38.2,36,37.9L36,37.9z M37.8,47.4c-0.3,0.1-0.6,0.2-0.9,0.2c-0.2,0-0.3,0-0.5-0.1c-0.2,0-0.3-0.1-0.5-0.2
			c-0.2-0.1-0.3-0.2-0.5-0.3c-0.1-0.1-0.3-0.3-0.5-0.5c-0.1-0.1-0.2-0.3-0.2-0.4c-0.1-0.2-0.1-0.3-0.1-0.5c0-0.1,0-0.2,0-0.3
			s0-0.2,0.1-0.2c0.1-0.4,0.3-0.7,0.6-1s0.6-0.6,0.9-0.9c0,0,0.1-0.1,0.2-0.1c0.1,0,0.1-0.1,0.2-0.1l2.8,3.4
			c-0.3,0.3-0.5,0.5-0.7,0.6C38.4,47.1,38.1,47.3,37.8,47.4z M51.2,51.7l-0.9,2.2h0.3l0.3-0.6h0.8l0.3,0.6h0.3l-0.9-2.2H51.2z
			 M51,53l0.3-0.8l0.3,0.8H51z M46.8,51.7l-0.9,2.2h0.3l0.2-0.6h0.8l0.2,0.6h0.3L46.8,51.7L46.8,51.7z M46.6,53l0.3-0.8l0.3,0.8
			H46.6z M37.8,53.7L37.8,53.7C37.9,53.7,37.9,53.6,37.8,53.7C37.9,53.6,37.9,53.6,37.8,53.7l0.1-0.2c0,0,0,0-0.1,0.1
			C37.8,53.6,37.8,53.6,37.8,53.7l-0.3-0.3l0.1-0.1v-0.1c0-0.1,0-0.1-0.1-0.2c0,0-0.1-0.1-0.2-0.1l0,0l0,0h-0.1L37.2,53l0,0l0,0l0,0
			l0,0v0.1l0.1,0.1c-0.1,0-0.1,0.1-0.2,0.1c0,0.1-0.1,0.1-0.1,0.2l0,0l0,0l0,0l0,0l0,0l0,0v0.1l0.1,0.1c0,0,0.1,0,0.1,0.1h0.1l0,0
			l0,0c0.1,0,0.1,0,0.1-0.1c0.1,0,0.1,0,0.1-0.1l0.1,0.1h0.1L37.8,53.7L37.8,53.7z M37.3,53.1C37.3,53,37.3,53,37.3,53.1
			C37.4,53,37.4,53,37.3,53.1L37.3,53.1l0.2-0.1c0,0,0,0,0,0.1l0,0C37.5,53.1,37.5,53.2,37.3,53.1c0.1,0.1,0.1,0.1,0,0.2l0,0l0,0
			C37.3,53.3,37.3,53.3,37.3,53.1C37.3,53.1,37.3,53.1,37.3,53.1L37.3,53.1z M37.6,53.7L37.6,53.7L37.6,53.7l-0.2,0.1l0,0
			c-0.1,0-0.1,0-0.1-0.1l-0.1-0.1l0,0l0,0l0,0l0,0c0,0,0,0,0.1-0.1c0,0,0,0,0.1,0l0,0L37.6,53.7L37.6,53.7z M43.9,52.7
			c0.1-0.1,0.2-0.3,0.2-0.4c0-0.3-0.2-0.5-0.6-0.5c-0.2,0-0.4,0-0.6,0l0,0h-0.1V54h0.3h0.1h0.5c0.4,0,0.7-0.3,0.7-0.6
			C44.3,53,44.2,52.8,43.9,52.7z M43.2,52h0.3c0.2,0,0.3,0.1,0.3,0.3s-0.2,0.3-0.3,0.3h-0.3V52z M43.5,53.7h-0.3V53h0.3h0.1l0,0
			c0.2,0,0.4,0,0.4,0.4C44,53.6,43.8,53.7,43.5,53.7z M40.5,52.8h-0.7V53h0.7c0,0.4-0.4,0.6-0.8,0.6c-0.5,0-0.9-0.4-0.9-0.9
			s0.4-0.9,0.9-0.9c0.3,0,0.6,0.2,0.8,0.4l0.3-0.1c-0.2-0.3-0.6-0.5-1-0.5c-0.7,0-1.2,0.5-1.2,1.2c0,0.6,0.5,1.2,1.2,1.2
			s1.1-0.5,1.1-1.2C40.8,52.8,40.5,52.8,40.5,52.8z M41.6,51.7l-0.9,2.2H41l0.2-0.6H42l0.2,0.6h0.3l-0.7-2.2H41.6z M41.4,53l0.3-0.8
			L42,53H41.4z"/>
	</g>
</g>
</svg>
