<?xml version="1.0" encoding="utf-8"?>
<!-- Generator: Adobe Illustrator 21.0.2, SVG Export Plug-In . SVG Version: 6.00 Build 0)  -->
<svg version="1.1" id="Layer_1" xmlns="http://www.w3.org/2000/svg" xmlns:xlink="http://www.w3.org/1999/xlink" x="0px" y="0px"
	 viewBox="0 0 100 100" style="enable-background:new 0 0 100 100;" xml:space="preserve">
<style type="text/css">
	.st0{fill:#3C3950;}
	.st1{fill-rule:evenodd;clip-rule:evenodd;fill:#3C3950;}
</style>
<g>
	<path class="st0" d="M39.7,61.4h-0.4h0h-0.3v2.2h0.3h0h0.4c0.6,0,1-0.5,1-1.1C40.7,61.9,40.2,61.4,39.7,61.4z M39.6,63.4h-0.4v-1.7
		l0.4,0c0.4,0.1,0.7,0.4,0.7,0.8C40.4,63,40.1,63.4,39.6,63.4z"/>
	<polygon class="st0" points="46.1,61.4 46.1,61.7 46.1,62.3 46.1,62.6 46.1,63.4 46.1,63.6 46.5,63.6 47.3,63.6 47.3,63.4 
		46.5,63.4 46.5,62.6 47.3,62.6 47.3,62.3 46.5,62.3 46.5,61.7 47.3,61.7 47.3,61.4 46.5,61.4 	"/>
	<path class="st0" d="M42,61.4c-0.7,0-1.2,0.5-1.2,1.1c0,0.6,0.6,1.2,1.2,1.2c0.7,0,1.2-0.5,1.2-1.2C43.2,61.9,42.7,61.4,42,61.4z
		 M42,63.4c-0.5,0-0.9-0.4-0.9-0.9c0-0.5,0.4-0.9,0.9-0.9c0.5,0,0.9,0.4,0.9,0.9C42.9,63,42.5,63.4,42,63.4z"/>
	<path class="st0" d="M44.1,62.5c0,0.6,0.6,1.2,1.2,1.2c0.2,0,0.5-0.1,0.7-0.2v-0.4c-0.2,0.2-0.4,0.3-0.7,0.3
		c-0.5,0-0.9-0.4-0.9-0.9c0-0.5,0.4-0.9,0.9-0.9c0.3,0,0.5,0.1,0.7,0.3v-0.4c-0.2-0.1-0.4-0.2-0.7-0.2
		C44.7,61.4,44.1,61.9,44.1,62.5z"/>
	<path class="st0" d="M41.3,49.7c0-0.1,0-0.1,0-0.1c0,0,0-0.1,0-0.1c0-0.1,0-0.2,0-0.3c0-0.1,0-0.2,0-0.3c-0.1-1.5-0.4-2.9-1-4.3
		c-0.6-1.4-1.4-2.6-2.5-3.5c-1.1-0.9-2.4-1.5-3.7-1.7c-1.3-0.2-2.6-0.3-4-0.3h-5.6v20.6h5c0.2,0,0.4,0,0.7,0c0.2,0,0.4,0,0.6,0
		c1.2,0,2.4-0.2,3.6-0.4c1.2-0.2,2.3-0.7,3.3-1.5c1.2-0.9,2.1-2.1,2.7-3.6C41,52.7,41.3,51.2,41.3,49.7z M37.1,49.3c0,0,0,0.1,0,0.1
		c0,0,0,0.1,0,0.1c0,0,0,0,0,0.1c0,1-0.2,2-0.5,2.9c-0.3,0.9-0.8,1.7-1.5,2.2c-0.4,0.4-0.9,0.6-1.5,0.8c-0.6,0.2-1.2,0.3-1.8,0.3
		c-0.2,0-0.4,0-0.6,0c-0.2,0-0.4,0-0.6,0c-0.1,0-0.2,0-0.3,0c-0.1,0-0.2,0-0.4,0c-0.1,0-0.1,0-0.1,0c-0.1,0-0.1,0-0.2,0
		c-0.2,0-0.3,0-0.5,0c-0.2,0-0.3,0-0.4,0V42.8h2.2c0.1,0,0.3,0,0.4,0c0.1,0,0.3,0,0.4,0c0.7,0,1.3,0.1,1.9,0.3
		c0.6,0.2,1.1,0.5,1.6,0.9c0.6,0.6,1.1,1.4,1.4,2.3c0.3,0.9,0.5,1.9,0.5,2.9C37.1,49.2,37.1,49.2,37.1,49.3z"/>
	<polygon class="st0" points="43.7,61.4 43.3,61.4 43.3,63.6 43.5,63.6 43.7,63.6 44.3,63.6 44.3,63.4 43.7,63.4 	"/>
	<path class="st0" d="M67.8,48.4V52h5.1l-0.1,0.1c0,1.3-0.5,2.2-1.5,2.9c-1,0.7-2.1,1-3.3,1c-0.2,0-0.4,0-0.6,0
		c-0.2,0-0.4,0-0.6-0.1c-1.3-0.2-2.5-0.7-3.7-1.6c-1.1-0.9-1.8-2.2-2.1-3.8c0,0,0-0.1,0-0.2c0-0.1,0-0.1,0-0.2c0-0.1,0-0.1,0-0.2
		c0,0,0-0.1,0-0.2c0-0.1,0-0.2-0.1-0.3c0-0.1,0-0.2,0-0.3c0-1.5,0.4-2.8,1.2-4.1c0.8-1.3,1.9-2.2,3.5-2.7c0.4-0.1,0.7-0.1,1.1-0.2
		c0.3,0,0.7-0.1,1-0.1c1,0,2,0.2,2.9,0.7c0.9,0.4,1.8,1.1,2.6,1.9l3-2.2c-1.1-1.3-2.4-2.2-4-3c-1.5-0.7-3.1-1.1-4.7-1.1
		c0,0-0.1,0-0.1,0c-0.1,0-0.1,0-0.2,0c-0.4,0-0.8,0-1.2,0.1c-0.4,0-0.8,0.1-1.3,0.2c-0.4,0.1-0.9,0.2-1.3,0.3
		c-0.4,0.1-0.8,0.3-1.2,0.5c-1.9,0.9-3.3,2.3-4.4,4.1c-1,1.8-1.6,3.6-1.6,5.6c0,0.2,0,0.4,0,0.5c0,0.2,0,0.4,0.1,0.5
		c0.1,0.9,0.3,1.7,0.6,2.5c0.3,0.8,0.7,1.6,1.1,2.3c1,1.3,2.2,2.4,3.8,3.2c1.6,0.8,3.2,1.3,4.8,1.4c0.1,0,0.3,0,0.4,0
		c0.1,0,0.3,0,0.4,0c0.2,0,0.4,0,0.7,0c0.2,0,0.4,0,0.7,0c0.7-0.1,1.4-0.2,2.1-0.4c0.7-0.2,1.3-0.5,1.9-0.9c1.8-1,3-2.3,3.6-3.9
		c0.6-1.6,0.9-3.4,0.9-5.2v-0.7H67.8z"/>
	<path class="st0" d="M56.4,62.4c0.1-0.1,0.2-0.3,0.2-0.4c0-0.3-0.2-0.5-0.6-0.5c-0.2,0-0.4,0-0.6,0c0,0,0,0,0,0h-0.2v2.2h0.3h0.1
		h0.5c0.4,0,0.7-0.3,0.7-0.6C56.8,62.7,56.6,62.5,56.4,62.4z M55.6,61.7H56c0.2,0,0.3,0.1,0.3,0.3c0,0.2-0.2,0.3-0.3,0.3h-0.3V61.7z
		 M55.9,63.4h-0.3v-0.7h0.3H56c0.2,0,0.4,0,0.4,0.4C56.4,63.3,56.2,63.4,55.9,63.4z"/>
	<polygon class="st0" points="60.6,63.1 59.1,61.4 58.9,61.4 58.9,63.6 59.2,63.6 59.2,62 60.7,63.6 60.9,63.6 60.9,61.4 60.6,61.4 
			"/>
	<path class="st0" d="M51.7,57.8l1.2,1.5h3.4l-2.8-3.3c0.2-0.2,0.4-0.4,0.6-0.6c0.2-0.2,0.4-0.4,0.6-0.6c0.2-0.2,0.4-0.4,0.6-0.6
		c0.2-0.2,0.4-0.4,0.6-0.6l-1.7-1.8c-0.2,0.3-0.5,0.5-0.7,0.8c-0.2,0.3-0.5,0.5-0.8,0.8c-0.1,0.1-0.2,0.3-0.4,0.4
		c-0.1,0.1-0.2,0.3-0.4,0.4l-2.5-2.9c0.1-0.1,0.2-0.1,0.3-0.2c0.1-0.1,0.2-0.1,0.3-0.2c0.5-0.4,0.9-0.8,1.4-1.3
		c0.4-0.5,0.7-1.1,0.7-1.7v-0.3c0-1.1-0.4-1.8-1.3-2.4c-0.8-0.5-1.8-0.8-2.8-0.8c-0.8,0-1.6,0.2-2.3,0.5c-0.7,0.3-1.2,0.9-1.4,1.7
		c0,0.1,0,0.1-0.1,0.2c0,0.1,0,0.2-0.1,0.2c0,0.1,0,0.2,0,0.3c0,0.1,0,0.2,0,0.4c0,0.6,0.1,1.1,0.4,1.7c0.3,0.5,0.7,1.1,1.1,1.5
		c-0.7,0.4-1.4,1-2,1.5c-0.6,0.6-1,1.3-1.1,2.2c0,0,0,0.1,0,0.1c0,0,0,0.1,0,0.1c0,0,0,0,0,0.1c0,0,0,0,0,0c0,0.1,0,0.1,0,0.2
		c0,0.1,0,0.1,0,0.2c0,0.1,0,0.1,0,0.2c0,0.1,0,0.1,0,0.2c0.1,0.6,0.3,1.2,0.6,1.7c0.3,0.6,0.7,1,1.2,1.4c0.3,0.2,0.6,0.3,0.9,0.4
		c0.3,0.1,0.6,0.2,0.9,0.2c0.2,0,0.3,0,0.5,0.1c0.2,0,0.3,0,0.5,0c0.1,0,0.1,0,0.2,0s0.1,0,0.2,0c0.7-0.1,1.4-0.2,2.1-0.6
		C50.5,58.7,51.1,58.3,51.7,57.8z M46.8,47.5C46.8,47.5,46.8,47.5,46.8,47.5c0-0.1,0-0.1,0-0.1c0,0,0-0.1,0-0.1
		c0-0.4,0.2-0.6,0.4-0.8c0.2-0.2,0.5-0.3,0.7-0.3c0,0,0.1,0,0.1,0c0,0,0,0,0.1,0c0,0,0.1,0,0.1,0c0,0,0.1,0,0.1,0
		c0.3,0.1,0.7,0.2,0.9,0.4c0.3,0.2,0.4,0.6,0.4,1v0.3c-0.1,0.4-0.3,0.7-0.5,1c-0.3,0.2-0.6,0.5-0.9,0.7c0,0,0,0,0,0c0,0,0,0-0.1,0.1
		c0,0,0,0-0.1,0c0,0,0,0-0.1,0c-0.1-0.1-0.1-0.1-0.2-0.2c-0.1-0.1-0.1-0.1-0.2-0.2c-0.2-0.2-0.4-0.5-0.6-0.8
		C46.9,48.2,46.8,47.9,46.8,47.5C46.8,47.6,46.8,47.6,46.8,47.5z M48.6,57.1c-0.3,0.1-0.6,0.2-0.9,0.2c-0.2,0-0.3,0-0.5-0.1
		c-0.2,0-0.3-0.1-0.5-0.2c-0.2-0.1-0.3-0.2-0.5-0.3c-0.1-0.1-0.3-0.3-0.5-0.5c-0.1-0.1-0.2-0.3-0.2-0.4c-0.1-0.2-0.1-0.3-0.1-0.5
		c0-0.1,0-0.2,0-0.3c0-0.1,0-0.2,0.1-0.2c0.1-0.4,0.3-0.7,0.6-1c0.3-0.3,0.6-0.6,0.9-0.9c0,0,0.1-0.1,0.2-0.1c0.1,0,0.1-0.1,0.2-0.1
		l2.8,3.4c-0.3,0.3-0.5,0.5-0.7,0.6C49.2,56.8,48.9,57,48.6,57.1z"/>
	<path class="st0" d="M62,61.4L61,63.6h0.3l0.3-0.6h0.8l0.3,0.6h0.3l-0.9-2.2H62z M61.8,62.7l0.3-0.8l0.3,0.8H61.8z"/>
	<path class="st0" d="M57.6,61.4l-0.9,2.2H57l0.2-0.6h0.8l0.2,0.6h0.3l-0.9-2.2H57.6z M57.4,62.7l0.3-0.8l0.3,0.8H57.4z"/>
	<path class="st0" d="M48.6,63.4C48.6,63.4,48.6,63.4,48.6,63.4C48.6,63.4,48.7,63.3,48.6,63.4c0.1-0.1,0.1-0.1,0.1-0.1l-0.1-0.1
		c0,0,0,0-0.1,0.1C48.6,63.3,48.5,63.3,48.6,63.4L48.3,63c0,0,0.1-0.1,0.1-0.1c0,0,0-0.1,0-0.1c0-0.1,0-0.1-0.1-0.2
		c0,0-0.1-0.1-0.2-0.1c0,0,0,0,0,0c0,0,0,0,0,0c0,0-0.1,0-0.1,0c0,0-0.1,0.1-0.1,0.1c0,0,0,0,0,0c0,0,0,0,0,0c0,0,0,0,0,0v0
		c0,0,0,0.1,0,0.1c0,0,0.1,0.1,0.1,0.1c-0.1,0-0.1,0.1-0.2,0.1c0,0.1-0.1,0.1-0.1,0.2c0,0,0,0,0,0s0,0,0,0h0c0,0,0,0,0,0
		c0,0,0,0,0,0v0c0,0,0,0.1,0,0.1c0,0,0.1,0.1,0.1,0.1c0,0,0.1,0,0.1,0.1c0,0,0.1,0,0.1,0c0,0,0,0,0,0h0c0.1,0,0.1,0,0.1-0.1
		c0.1,0,0.1,0,0.1-0.1l0.1,0.1h0.1L48.6,63.4L48.6,63.4z M48.1,62.8C48.1,62.7,48.1,62.7,48.1,62.8c0.1-0.1,0.1-0.1,0.1-0.1
		c0,0,0,0,0,0c0,0,0.1,0,0.1,0s0,0,0,0.1c0,0,0,0,0,0c0,0,0,0.1-0.1,0.1c0,0,0,0-0.1,0.1h0c0,0,0,0,0,0c0,0,0,0,0-0.1
		C48.1,62.8,48.1,62.8,48.1,62.8L48.1,62.8z M48.4,63.4C48.4,63.4,48.4,63.4,48.4,63.4c0,0-0.1,0.1-0.1,0.1c0,0-0.1,0-0.1,0h0
		c-0.1,0-0.1,0-0.1-0.1c0,0-0.1-0.1-0.1-0.1v0c0,0,0,0,0,0v0c0,0,0,0,0,0c0,0,0,0,0.1-0.1c0,0,0,0,0.1,0c0,0,0,0,0,0L48.4,63.4
		C48.4,63.4,48.4,63.4,48.4,63.4z"/>
	<path class="st0" d="M54.7,62.4c0.1-0.1,0.2-0.3,0.2-0.4c0-0.3-0.2-0.5-0.6-0.5c-0.2,0-0.4,0-0.6,0c0,0,0,0,0,0h-0.2v2.2h0.3H54
		h0.5c0.4,0,0.7-0.3,0.7-0.6C55.1,62.7,54.9,62.5,54.7,62.4z M54,61.7h0.3c0.2,0,0.3,0.1,0.3,0.3s-0.2,0.3-0.3,0.3H54V61.7z
		 M54.3,63.4H54v-0.7h0.3h0.1h0c0.2,0,0.4,0,0.4,0.4C54.8,63.3,54.5,63.4,54.3,63.4z"/>
	<path class="st0" d="M51.3,62.5h-0.7v0.2h0.7c0,0.4-0.4,0.6-0.8,0.6c-0.5,0-0.9-0.4-0.9-0.9c0-0.5,0.4-0.9,0.9-0.9
		c0.3,0,0.6,0.2,0.8,0.4l0.3-0.1c-0.2-0.3-0.6-0.5-1-0.5c-0.7,0-1.2,0.5-1.2,1.2c0,0.6,0.5,1.2,1.2,1.2c0.7,0,1.1-0.5,1.1-1.2
		C51.6,62.5,51.3,62.5,51.3,62.5z"/>
	<path class="st0" d="M52.4,61.4l-0.9,2.2h0.3l0.2-0.6h0.8l0.2,0.6h0.3l-0.9-2.2H52.4z M52.2,62.7l0.3-0.8l0.3,0.8H52.2z"/>
</g>
</svg>
