<?xml version="1.0" encoding="utf-8"?>
<!-- Generator: Adobe Illustrator 24.3.0, SVG Export Plug-In . SVG Version: 6.00 Build 0)  -->
<svg version="1.1" id="Слой_1" xmlns="http://www.w3.org/2000/svg" xmlns:xlink="http://www.w3.org/1999/xlink" x="0px" y="0px"
	 viewBox="0 0 80.3 82.6" style="enable-background:new 0 0 80.3 82.6;" xml:space="preserve">
<style type="text/css">
	.st0{fill:#66686D;}
</style>
<g>
	<g>
		<path class="st0" d="M11.2,50.7H9.7v-1.4H8.9v3.6h0.8v-1.6h1.5v1.6H12v-3.6h-0.8V50.7z M19,51.2c0,0.6,0,1.1-0.8,1.1
			c-0.8,0-0.8-0.5-0.8-1.1v-1.9h-0.8v2.2c0,1,0.7,1.4,1.6,1.4c0.9,0,1.6-0.5,1.6-1.4v-2.2H19V51.2z M26.1,51.6h0.7v0.7
			c-0.2,0.1-0.4,0.1-0.7,0.1c-0.7,0-1.1-0.5-1.1-1.3c0-0.8,0.3-1.3,1-1.3c0.5,0,0.8,0.3,0.8,0.6h0.8c0-0.7-0.6-1.2-1.6-1.2
			c-0.8,0-1.8,0.4-1.8,1.9c0,1.4,1,1.9,1.9,1.9c0.8,0,1.2-0.2,1.5-0.3V51h-1.5V51.6z M62.6,50.8c-0.2-0.1-0.4-0.1-0.6-0.2
			c-0.4-0.1-0.6-0.2-0.6-0.5c0-0.3,0.2-0.5,0.6-0.5c0.4,0,0.6,0.3,0.6,0.6h0.8c0-0.7-0.7-1.1-1.4-1.1c-0.7,0-1.4,0.4-1.4,1.1
			c0,0.5,0.4,0.8,0.9,0.9c0.2,0,0.4,0.1,0.6,0.2c0.5,0.1,0.7,0.3,0.7,0.6c0,0.4-0.4,0.5-0.6,0.5c-0.6,0-0.8-0.3-0.8-0.7h-0.8
			c0,0.8,0.6,1.3,1.6,1.3c0.8,0,1.5-0.4,1.5-1.1C63.6,51.3,63.2,51,62.6,50.8z M70.3,50.8c-0.2-0.1-0.4-0.1-0.6-0.2
			c-0.4-0.1-0.6-0.2-0.6-0.5c0-0.3,0.2-0.5,0.6-0.5c0.4,0,0.6,0.3,0.6,0.6h0.8c0-0.7-0.7-1.1-1.4-1.1c-0.7,0-1.4,0.4-1.4,1.1
			c0,0.5,0.4,0.8,0.9,0.9c0.2,0,0.4,0.1,0.6,0.2c0.5,0.1,0.7,0.3,0.7,0.6c0,0.4-0.4,0.5-0.6,0.5c-0.6,0-0.8-0.3-0.8-0.7h-0.8
			c0,0.8,0.6,1.3,1.6,1.3c0.8,0,1.5-0.4,1.5-1.1C71.3,51.3,70.9,51,70.3,50.8z M33.9,49.2c-1.2,0-1.8,0.8-1.8,1.9
			c0,1.1,0.6,1.9,1.8,1.9c1.2,0,1.8-0.8,1.8-1.9C35.6,50,35.1,49.2,33.9,49.2z M33.9,52.4c-0.8,0-0.9-0.7-0.9-1.3
			c0-0.6,0.2-1.3,0.9-1.3c0.8,0,0.9,0.7,0.9,1.3C34.8,51.7,34.6,52.4,33.9,52.4z M46.9,51c0.3,0,0.7-0.4,0.7-0.8
			c0-0.6-0.5-0.9-1.3-0.9h-1.6v3.7h1.6c0.7,0,1.4-0.4,1.4-1C47.7,51.3,47.3,51,46.9,51z M45.5,49.8h0.7c0.3,0,0.5,0.2,0.5,0.5
			c0,0.3-0.3,0.5-0.5,0.5h-0.7V49.8z M46.2,52.3h-0.7v-1.1h0.7c0.4,0,0.6,0.1,0.6,0.5C46.8,52.2,46.5,52.3,46.2,52.3z M54.1,49.1
			c-1.2,0-1.8,0.8-1.8,1.9c0,1.1,0.6,1.9,1.8,1.9c1.2,0,1.8-0.8,1.8-1.9C55.9,50,55.4,49.1,54.1,49.1z M54.1,52.4
			c-0.8,0-1-0.7-1-1.4c0-0.6,0.2-1.4,1-1.4c0.8,0,1,0.7,1,1.4C55.1,51.7,54.9,52.4,54.1,52.4z M52.9,36c-2.2-0.8-5.1-1.6-5.1-3.3
			c0-1.8,1.5-2.4,3.1-2.3c2.8,0.2,4,2.1,4.4,4.1h0.6v-3.7c-1.4-0.6-3.2-1-5-1.1c-3.3-0.1-6.1,1.9-5.7,5c0.3,2.6,2.7,3.6,5.1,4.5
			c2.2,0.9,4.5,1.6,4.5,3.7c0,1.8-1.7,2.8-4,2.7c-3.9-0.2-5-4.3-5.1-4.8h-0.6v4.4c1.2,0.5,4.1,1.3,6.4,1.2c5.3-0.2,6.1-3.7,5.9-5.5
			C57.2,38,55,36.9,52.9,36z M72.2,40.9c-0.3-2.9-2.4-4-4.6-4.9c-2.2-0.8-5.1-1.6-5.1-3.3c0-1.8,1.5-2.4,3.1-2.3
			c2.8,0.2,4,2.1,4.4,4.1h0.6v-3.7c-1.4-0.6-3.2-1-5-1.1c-3.3-0.1-6.1,1.9-5.7,5c0.3,2.6,2.7,3.6,5.1,4.5c2.2,0.9,4.5,1.6,4.5,3.7
			c0,1.8-1.7,2.8-4,2.7c-3.9-0.2-5-4.3-5.1-4.8h-0.6v4.4c1.2,0.5,4.1,1.3,6.4,1.2C71.5,46.2,72.3,42.7,72.2,40.9z M34,29.6
			c-4.7,0-8.6,3.8-8.6,8.5c0,4.7,3.8,8.5,8.6,8.5c4.7,0,8.6-3.8,8.6-8.5C42.6,33.4,38.8,29.6,34,29.6z M34,45.9
			c-3.4,0-4.5-4.3-4.5-7.8c0-3.5,1.3-7.8,4.5-7.8c3.1,0,4.5,4.3,4.5,7.8C38.5,41.6,37.4,45.8,34,45.9z M18.5,37.3
			c1.8-0.3,4-1.8,3.9-4C22.2,31,19.8,30,17.5,30l-9.2,0v0.6h0.5c0.3,0,0.9,0.1,0.9,0.6v13.6c0,0.5-0.5,0.7-1.1,0.7H8.1v0.6h8.7
			c3.1,0,6.4-1.4,6.4-4.6C23.3,38,19.6,37.4,18.5,37.3z M13.3,30.6h1.8c1.8,0,3.2,1.1,3.3,3.1c0.1,1.9-1.4,3.4-3.2,3.4h-1.9V30.6z
			 M15.5,45.5h-2.2v-7.8h2.2c2.4,0,3.7,1.7,3.8,3.6C19.4,43.7,17.7,45.5,15.5,45.5z"/>
	</g>
</g>
</svg>
