<?xml version="1.0" encoding="utf-8"?>
<!-- Generator: Adobe Illustrator 21.0.2, SVG Export Plug-In . SVG Version: 6.00 Build 0)  -->
<svg version="1.1" id="Layer_1" xmlns="http://www.w3.org/2000/svg" xmlns:xlink="http://www.w3.org/1999/xlink" x="0px" y="0px"
	 viewBox="0 0 100 100" style="enable-background:new 0 0 100 100;" xml:space="preserve">
<style type="text/css">
	.st0{fill:#BDBDC0;}
	.st1{fill-rule:evenodd;clip-rule:evenodd;fill:#BDBDC0;}
</style>
<g>
	<path class="st0" d="M14.4,47.7h5v-2.9h-5.7c-1.3,0-2.4,1-2.4,2.3v6c0,1.3,1.1,2.3,2.4,2.3h5.7v-2.9h-5V47.7z"/>
	<path class="st0" d="M28.6,44.6h-6.4c-1.1,0-2,0.9-2,2v6.8c0,1.1,0.9,2,2,2h6.4c1.1,0,2-0.9,2-2v-6.8
		C30.6,45.5,29.7,44.6,28.6,44.6z M27.5,50.9l1.4,4.2l-3.5-2.7l-3.3,2.6l1.3-4.1l-3.1-2.3h3.8l1.2-3.8l1.3,3.8h3.6L27.5,50.9z"/>
	<polygon class="st0" points="45.6,51.3 43.5,44.8 40.2,44.8 43.8,55.4 47.4,55.4 51,44.8 47.8,44.8 	"/>
	<path class="st0" d="M38,44.8h-6.4v10.6h3.1v-7.8h2.6v7.8h3.1l0-8.3C40.4,45.8,39.3,44.8,38,44.8z"/>
	<path class="st0" d="M51,47.1v6c0,1.3,1.1,2.3,2.4,2.3h5.8v-2.9h-5.1v-1h5.1v-2.9h-5.1v-1h5.1v-2.9h-5.8C52,44.8,51,45.8,51,47.1z"
		/>
	<path class="st0" d="M79.7,47.1v6c0,1.3,1.1,2.3,2.4,2.3h5.8v-2.9h-5.1v-1h5.1v-2.9h-5.1v-1h5.1v-2.9H82
		C80.7,44.8,79.7,45.8,79.7,47.1z"/>
	<path class="st0" d="M90.4,45.3C90.2,45.1,90,45,89.7,45c-0.3,0-0.5,0.1-0.7,0.3c-0.2,0.2-0.3,0.5-0.3,0.7c0,0.3,0.1,0.5,0.3,0.7
		c0.2,0.2,0.5,0.3,0.7,0.3c0.3,0,0.5-0.1,0.8-0.3c0.2-0.2,0.3-0.5,0.3-0.7C90.7,45.7,90.6,45.5,90.4,45.3z M90.3,46.7
		c-0.2,0.2-0.4,0.3-0.6,0.3c-0.3,0-0.5-0.1-0.6-0.3c-0.2-0.2-0.3-0.4-0.3-0.6c0-0.2,0.1-0.5,0.3-0.6c0.2-0.2,0.4-0.3,0.6-0.3
		c0.3,0,0.5,0.1,0.6,0.3c0.2,0.2,0.3,0.4,0.3,0.6C90.6,46.3,90.5,46.5,90.3,46.7z"/>
	<path class="st0" d="M68.9,49.2v-2.1c0-1.3-1.1-2.3-2.4-2.3h-6.3v10.6h3.1v-6l2.8,6h3.2l-1.9-4C68.3,51.1,68.9,50.2,68.9,49.2z
		 M65.9,48.7h-2.6v-1h2.6V48.7z"/>
	<path class="st0" d="M76.4,48.7h-3.3v-1h5.2v-2.9h-6c-1.3,0-2.4,1-2.4,2.3v2.1c0,1.3,1.1,2.3,2.4,2.3h3.3v1H70v2.9h6.4
		c1.3,0,2.4-1,2.4-2.3V51C78.7,49.7,77.7,48.7,76.4,48.7z"/>
	<path class="st0" d="M90.1,46.5C90.1,46.5,90.1,46.5,90.1,46.5l0-0.2c0-0.1,0-0.1-0.1-0.2c0-0.1-0.1-0.1-0.2-0.1C90,46,90,46,90,46
		c0.1,0,0.1-0.1,0.1-0.2c0-0.1-0.1-0.2-0.2-0.3c-0.1,0-0.2,0-0.3,0h-0.4v1.2h0.2v-0.5h0.2c0.1,0,0.2,0,0.2,0c0.1,0,0.1,0.1,0.1,0.3
		v0.1l0,0c0,0,0,0,0,0l0,0L90.1,46.5L90.1,46.5C90.2,46.6,90.1,46.5,90.1,46.5z M89.8,46c0,0-0.1,0-0.2,0h-0.2v-0.4h0.2
		c0.1,0,0.2,0,0.2,0c0.1,0,0.1,0.1,0.1,0.2C90,45.9,89.9,45.9,89.8,46z"/>
</g>
</svg>
