<?xml version="1.0" encoding="utf-8"?>
<!-- Generator: Adobe Illustrator 21.0.2, SVG Export Plug-In . SVG Version: 6.00 Build 0)  -->
<svg version="1.1" id="Layer_1" xmlns="http://www.w3.org/2000/svg" xmlns:xlink="http://www.w3.org/1999/xlink" x="0px" y="0px"
	 viewBox="0 0 64 64" style="enable-background:new 0 0 64 64;" xml:space="preserve">
<style type="text/css">
	.st0{fill:#054835;}
	.st1{fill:#12F0B1;}
</style>
<circle class="st0" cx="41.7" cy="42" r="22"/>
<path class="st1" d="M27.5,11C25,11,23,13,23,15.5c0,0.4,0.1,0.9,0.2,1.3l-5.4,3.9c-0.7-0.4-1.5-0.7-2.3-0.7C13,20,11,22,11,24.5
	s2,4.5,4.5,4.5c0.4,0,0.7-0.1,1.1-0.1l4.1,5.3c-0.4,0.7-0.7,1.5-0.7,2.3c0,2.5,2,4.5,4.5,4.5c0.4,0,0.8-0.1,1.2-0.2l4,5.3
	c-0.5,0.7-0.7,1.5-0.7,2.4c0,2.5,2,4.5,4.5,4.5s4.5-2,4.5-4.5c0-0.5-0.1-0.9-0.2-1.3l5.2-3.9c0.7,0.5,1.6,0.8,2.5,0.8
	c2.5,0,4.5-2,4.5-4.5c0-1.6-0.9-3.1-2.2-3.8l1.3-6.7c2.2-0.3,3.9-2.2,3.9-4.4c0-2.5-2-4.5-4.5-4.5c-0.4,0-0.7,0.1-1.1,0.2l-1.3-2
	c0.6-0.8,0.9-1.7,0.9-2.7c0-2.5-2-4.5-4.5-4.5c-1.9,0-3.6,1.3-4.2,3h-6.6C31.1,12.3,29.4,11,27.5,11z M27.5,14
	c0.8,0,1.4,0.6,1.5,1.4c0,0.1,0,0.1,0,0.2c0,0.8-0.7,1.4-1.5,1.4c-0.8,0-1.5-0.7-1.5-1.5C26,14.7,26.7,14,27.5,14z M42.5,14
	c0.8,0,1.5,0.7,1.5,1.5c0,0.8-0.7,1.5-1.5,1.5c-0.8,0-1.4-0.6-1.5-1.4c0-0.1,0-0.1,0-0.2C41.1,14.6,41.7,14,42.5,14z M31.7,17h6.6
	c0.6,1.7,2.3,3,4.2,3c0.4,0,0.7-0.1,1.1-0.2l1.3,2c-0.6,0.8-0.9,1.7-0.9,2.7c0,1.6,0.9,3.1,2.2,3.8l-1.3,6.7
	c-2.2,0.3-3.9,2.2-3.9,4.4c0,0.5,0.1,0.9,0.2,1.3L36,44.8c-0.7-0.5-1.6-0.8-2.5-0.8c-0.5,0-0.9,0.1-1.4,0.2l-3.9-5.2
	c0.5-0.7,0.8-1.6,0.8-2.6c0-2.5-2-4.5-4.5-4.5c-0.5,0-1,0.1-1.5,0.3l-3.9-5.1c0.6-0.8,0.9-1.7,0.9-2.7c0-0.5-0.1-1-0.3-1.5l5.2-3.8
	c0.7,0.5,1.6,0.8,2.5,0.8C29.4,20,31.1,18.7,31.7,17z M15.5,23c0.4,0,0.7,0.1,1,0.4c0.1,0.1,0.2,0.2,0.3,0.3
	c0.1,0.2,0.3,0.5,0.3,0.8c0,0.8-0.7,1.5-1.5,1.5c-0.8,0-1.5-0.7-1.5-1.5S14.7,23,15.5,23z M48.5,23c0.8,0,1.5,0.7,1.5,1.5
	S49.3,26,48.5,26S47,25.3,47,24.5S47.7,23,48.5,23z M24.5,35c0.8,0,1.5,0.7,1.5,1.5S25.3,38,24.5,38S23,37.3,23,36.5
	c0-0.4,0.1-0.7,0.4-1c0.1-0.1,0.2-0.2,0.3-0.3C23.9,35.1,24.2,35,24.5,35z M45.5,38c0.8,0,1.5,0.7,1.5,1.5S46.3,41,45.5,41
	S44,40.3,44,39.5S44.7,38,45.5,38z M33.5,47c0.8,0,1.5,0.7,1.5,1.5S34.3,50,33.5,50S32,49.3,32,48.5S32.7,47,33.5,47z"/>
</svg>
