<?xml version="1.0" encoding="utf-8"?>
<!-- Generator: Adobe Illustrator 21.0.2, SVG Export Plug-In . SVG Version: 6.00 Build 0)  -->
<svg version="1.1" id="Layer_1" xmlns="http://www.w3.org/2000/svg" xmlns:xlink="http://www.w3.org/1999/xlink" x="0px" y="0px"
	 viewBox="0 0 64 64" style="enable-background:new 0 0 64 64;" xml:space="preserve">
<style type="text/css">
	.st0{fill:#054835;}
	.st1{fill:#12F0B1;}
</style>
<circle class="st0" cx="41.8" cy="22" r="22"/>
<path class="st1" d="M30.5,11C19.7,11,11,19.7,11,30.5S19.7,50,30.5,50c2.2,0,4.2-0.4,6.2-1c-0.8-0.7-1.4-1.6-1.6-2.6
	c-1.5,0.4-3,0.7-4.6,0.7C21.4,47,14,39.6,14,30.5S21.4,14,30.5,14c4,0,7.7,1.5,10.5,3.8l-4.3,4.3C35,20.8,32.9,20,30.5,20
	c-2.9,0-5.6,1.2-7.5,3.2c1,0.3,1.9,0.9,2.5,1.7c1.3-1.2,3-1.9,5-1.9c1.5,0,2.9,0.5,4.1,1.3l-5.2,5.2c-0.6,0.6-0.6,1.5,0,2.1
	c0.6,0.6,1.5,0.6,2.1,0c0,0,0,0,0,0L44.1,19c0.1-0.1,0.2-0.3,0.3-0.4l0.8-0.8C41.7,13.6,36.4,11,30.5,11z M47,20.2l-2.2,2.2
	c1.4,2.4,2.2,5.2,2.2,8.1C47,35,45.2,39,42.3,42c0.8,0.6,1.4,1.6,1.6,2.6c3.7-3.6,6.1-8.6,6.1-14.1C50,26.7,48.9,23.2,47,20.2z
	 M21.9,26c-0.8,0-1.5,0.7-1.5,1.5S21,29,21.9,29s1.5-0.7,1.5-1.5S22.7,26,21.9,26z M40.3,26.9l-2.4,2.4c0.1,0.4,0.1,0.8,0.1,1.1
	c0,4.1-3.4,7.5-7.5,7.5c-3.7,0-6.7-2.7-7.4-6.2c-0.4,0.1-0.8,0.2-1.3,0.2c-0.6,0-1.2-0.1-1.8-0.4c0.6,5.2,5,9.4,10.4,9.4
	C36.3,41,41,36.3,41,30.5C41,29.2,40.7,28,40.3,26.9z M39.5,44c-0.8,0-1.5,0.7-1.5,1.5s0.7,1.5,1.5,1.5s1.5-0.7,1.5-1.5
	S40.3,44,39.5,44z"/>
</svg>
