<?xml version="1.0" encoding="utf-8"?>
<!-- Generator: Adobe Illustrator 21.0.2, SVG Export Plug-In . SVG Version: 6.00 Build 0)  -->
<svg version="1.1" id="Layer_1" xmlns="http://www.w3.org/2000/svg" xmlns:xlink="http://www.w3.org/1999/xlink" x="0px" y="0px"
	 viewBox="0 0 64 64" style="enable-background:new 0 0 64 64;" xml:space="preserve">
<style type="text/css">
	.st0{fill:#054835;}
	.st1{fill:#12F0B1;}
</style>
<circle class="st0" cx="42" cy="42" r="22"/>
<path class="st1" d="M19.5,14c-2.1,0-4,1.5-4.4,3.6l-4.1,21v0.9V41v4.5c0,2.5,2,4.5,4.5,4.5h33c2.5,0,4.5-2,4.5-4.5V41v-1.5v-0.9
	l-4.1-21c-0.4-2.1-2.3-3.6-4.4-3.6H19.5z M19.5,17h25.1c0.7,0,1.3,0.5,1.5,1.2l3.3,16.9C49,35,48.8,35,48.5,35h-33
	c-0.3,0-0.5,0-0.8,0.1L18,18.2C18.1,17.5,18.7,17,19.5,17z M15.5,38h33c0.8,0,1.5,0.7,1.5,1.5V41v4.5c0,0.8-0.7,1.5-1.5,1.5H38v-6
	h-3v6h-3v-6h-3v6h-3v-6h-3v6h-3v-6h-3v6h-1.5c-0.8,0-1.5-0.7-1.5-1.5V41v-1.5C14,38.7,14.7,38,15.5,38z M45.5,41
	c-0.8,0-1.5,0.7-1.5,1.5s0.7,1.5,1.5,1.5s1.5-0.7,1.5-1.5S46.3,41,45.5,41z"/>
</svg>
