<?xml version="1.0" encoding="utf-8"?>
<!-- Generator: Adobe Illustrator 21.0.2, SVG Export Plug-In . SVG Version: 6.00 Build 0)  -->
<svg version="1.1" id="Layer_1" xmlns="http://www.w3.org/2000/svg" xmlns:xlink="http://www.w3.org/1999/xlink" x="0px" y="0px"
	 viewBox="0 0 64 64" style="enable-background:new 0 0 64 64;" xml:space="preserve">
<style type="text/css">
	.st0{fill:#054835;}
	.st1{fill:#12F0B1;}
</style>
<circle class="st0" cx="42" cy="22" r="22"/>
<path class="st1" d="M30.5,11C20.4,11,14,18.6,14,27.5c0,4.6,1.7,7.5,3.3,9.9c1.5,2.3,2.7,3.9,2.7,6.3V50h3v-6.4
	c0-3.4-1.8-5.7-3.3-7.9c-1.5-2.2-2.7-4.4-2.7-8.2C17,19.9,21.8,14,30.5,14c4.5,0,7.4,1.4,9.4,3.5c2,2.1,3.2,4.9,3.6,7.9
	c0.1,0.5,0.2,1,0.5,1.5l3,5.3c0.1,0.2,0,0.3-0.1,0.3L44,33.6v5.9c0,2.5-1,3.3-2.2,3.9C40.7,44,39.5,44,39.5,44H38v6h3v-3.4
	c0.7-0.1,1.1,0,2.2-0.5C45,45.2,47,43,47,39.5v-3.8l1-0.4l0,0c1.8-0.7,2.5-2.9,1.6-4.6l-3-5.3c-0.1-0.1-0.1-0.3-0.2-0.5
	c-0.5-3.4-1.8-6.9-4.4-9.6C39.5,12.7,35.6,11,30.5,11z M29,17v3.2c-1,0.2-1.8,0.6-2.6,1.1L24.1,19L22,21.1l2.3,2.3
	c-0.5,0.8-0.9,1.7-1.1,2.6H20v3h3.2c0.2,0.9,0.6,1.8,1.1,2.6L22,33.9l2.1,2.1l2.3-2.3c0.8,0.5,1.7,0.9,2.6,1.1V38h3v-3.2
	c1-0.2,1.8-0.6,2.6-1.1l2.3,2.3l2.1-2.1l-2.3-2.3c0.5-0.8,0.9-1.7,1.1-2.6H41v-3h-3.2c-0.2-0.9-0.6-1.8-1.1-2.6l2.3-2.3L36.9,19
	l-2.3,2.3c-0.8-0.5-1.7-0.9-2.6-1.1V17H29z M30.5,23c1.2,0,2.3,0.5,3.1,1.3l0.1,0.1c0.8,0.8,1.3,1.9,1.3,3.1s-0.5,2.3-1.3,3.1
	l-0.1,0.1c-0.8,0.8-1.9,1.3-3.1,1.3s-2.3-0.5-3.1-1.3l-0.1-0.1c-0.8-0.8-1.3-1.9-1.3-3.1s0.5-2.3,1.3-3.1l0.1-0.1
	C28.2,23.5,29.3,23,30.5,23z"/>
</svg>
