<?xml version="1.0" encoding="utf-8"?>
<!-- Generator: Adobe Illustrator 21.0.2, SVG Export Plug-In . SVG Version: 6.00 Build 0)  -->
<svg version="1.1" id="Layer_1" xmlns="http://www.w3.org/2000/svg" xmlns:xlink="http://www.w3.org/1999/xlink" x="0px" y="0px"
	 viewBox="0 0 52 52" style="enable-background:new 0 0 52 52;" xml:space="preserve">
<style type="text/css">
	.st0{fill:#FFE2A7;}
	.st1{fill:none;stroke:#3C3950;stroke-width:2;stroke-linecap:round;stroke-linejoin:round;stroke-miterlimit:10;}
	.st2{fill:#91D3BF;}
	.st3{fill:#98C496;}
</style>
<g>
	<path class="st2" d="M15.5,41.1l-2.9-9.3c-0.4-1.2,0.9-2.3,2-1.7l7.6,3.8c0.8,0.4,1.1,1.5,0.5,2.2L18,41.6
		C17.2,42.5,15.8,42.2,15.5,41.1z"/>
	<path class="st2" d="M42.5,25.2h-9.5c-2.7,0-4.9,1-4.9,3.7l0,0c0,0.9,0,2.1,1.5,2.9c0.2,0.1,0.3,0.1,0.5,0.2L35,34l3.8,7
		c0.3,1,2.4,2.4,3.1,1.7c3.1-3.2,5.2-7.5,5.5-12.3C47.4,30.5,46.9,25.2,42.5,25.2z"/>
	<path class="st2" d="M46,21.4c-1.5-3.7-4.1-6.9-7.5-9.1h-0.2c-4.6,0-8.3,3.7-8.3,8.3v0c0,1.2,1,2.2,2.2,2.2H44
		C44.9,22.8,45.7,22.2,46,21.4z"/>
	<path class="st2" d="M23.2,9.5c-0.3,0.5-0.5,1.1-0.5,1.7v1.2c0,1.4,0.9,2.7,2.1,3.2c0,0,1.3-3,4.8-3.2v-1.2c0-0.8-0.3-1.6-0.8-2.2
		c-0.4,0-0.8,0-1.3,0C26.1,9,24.6,9.2,23.2,9.5z"/>
	<path class="st2" d="M7.7,28.9c0,0.4,0,0.7,0,1.1l7-3.2c1.6-0.7,2.8-2.2,3.2-3.9l2.1-8.3c0.3-1.3,0.2-2.7-0.4-3.9
		C12.6,13.7,7.7,20.7,7.7,28.9z"/>
	<g>
		<circle class="st1" cx="24.4" cy="26" r="19.9"/>
		<path class="st1" d="M12.3,38.2l-2.9-9.3c-0.4-1.2,0.9-2.3,2-1.7L19,31c0.8,0.4,1.1,1.5,0.5,2.2l-4.7,5.5
			C14.1,39.6,12.7,39.3,12.3,38.2z"/>
		<path class="st1" d="M39.4,22.3h-9.5c-2.7,0-4.9,1-4.9,3.7l0,0c0,0.9,0,2.1,1.5,2.9c0.2,0.1,0.3,0.1,0.5,0.2l4.8,2.1l3.8,7
			c0.3,1,2.4,2.4,3.1,1.7c3.1-3.2,5.2-7.5,5.5-12.3C44.3,27.6,43.7,22.3,39.4,22.3z"/>
		<path class="st1" d="M42.9,18.5c-1.5-3.7-4.1-6.9-7.5-9.1h-0.2c-4.6,0-8.3,3.7-8.3,8.3l0,0c0,1.2,1,2.2,2.2,2.2h11.7
			C41.8,19.9,42.5,19.3,42.9,18.5z"/>
		<path class="st1" d="M20,6.6c-0.3,0.5-0.5,1.1-0.5,1.7v1.2c0,1.4,0.9,2.7,2.1,3.2c0,0,1.3-3,4.8-3.2V8.4c0-0.8-0.3-1.6-0.8-2.2
			c-0.4,0-0.8,0-1.3,0C22.9,6.1,21.4,6.3,20,6.6z"/>
		<path class="st1" d="M4.6,26c0,0.4,0,0.7,0,1.1l7-3.2c1.6-0.7,2.8-2.2,3.2-3.9l2.1-8.3c0.3-1.3,0.2-2.7-0.4-3.9
			C9.5,10.9,4.6,17.9,4.6,26z"/>
	</g>
</g>
</svg>
