<?xml version="1.0" encoding="utf-8"?>
<!-- Generator: Adobe Illustrator 21.0.2, SVG Export Plug-In . SVG Version: 6.00 Build 0)  -->
<svg version="1.1" id="Layer_1" xmlns="http://www.w3.org/2000/svg" xmlns:xlink="http://www.w3.org/1999/xlink" x="0px" y="0px"
	 viewBox="0 0 32 32" style="enable-background:new 0 0 32 32;" xml:space="preserve">
<style type="text/css">
	.st0{fill:#3C3950;}
</style>
<path class="st0" d="M8,4L7.2,4.9c0,0-0.5,0.6-1.1,1.4C5.9,6.7,5.6,7.1,5.4,7.6C5.2,8,5,8.5,5,9c0,1.3,0.8,2.4,2,2.8V14H6
	c-1.6,0-3,1.4-3,3v11h26V17c0-1.6-1.4-3-3-3h-1v-2.2c1.2-0.4,2-1.5,2-2.8c0-0.6-0.2-1-0.4-1.5c-0.2-0.4-0.5-0.9-0.8-1.3
	c-0.5-0.8-1.1-1.4-1.1-1.4L24,4l-0.8,0.9c0,0-0.5,0.6-1.1,1.4c-0.3,0.4-0.5,0.8-0.8,1.3C21.2,8,21,8.5,21,9c0,1.3,0.8,2.4,2,2.8V14
	h-6v-2.2c1.2-0.4,2-1.5,2-2.8c0-0.6-0.2-1-0.4-1.5c-0.2-0.4-0.5-0.9-0.8-1.3c-0.5-0.8-1.1-1.4-1.1-1.4L16,4l-0.8,0.9
	c0,0-0.5,0.6-1.1,1.4c-0.3,0.4-0.5,0.8-0.8,1.3C13.2,8,13,8.5,13,9c0,1.3,0.8,2.4,2,2.8V14H9v-2.2c1.2-0.4,2-1.5,2-2.8
	c0-0.6-0.2-1-0.4-1.5c-0.2-0.4-0.5-0.9-0.8-1.3C9.3,5.5,8.8,4.9,8.8,4.9L8,4z M8,7.2c0.1,0.1,0.1,0.1,0.2,0.2c0.2,0.3,0.5,0.7,0.6,1
	S9,9.1,9,9c0,0.5-0.4,1-0.9,1C8,10,8,10,8,10c0,0,0,0,0,0C7.4,10,7,9.6,7,9c0,0,0.1-0.3,0.2-0.6s0.4-0.7,0.6-1
	C7.9,7.3,7.9,7.3,8,7.2z M16,7.2c0.1,0.1,0.1,0.1,0.2,0.2c0.2,0.3,0.5,0.7,0.6,1S17,9.1,17,9c0,0.5-0.4,1-0.9,1c0,0-0.1,0-0.1,0
	c0,0,0,0,0,0C15.4,10,15,9.6,15,9c0,0,0.1-0.3,0.2-0.6s0.4-0.7,0.6-1C15.9,7.3,15.9,7.3,16,7.2z M24,7.2c0.1,0.1,0.1,0.1,0.2,0.2
	c0.2,0.3,0.5,0.7,0.6,1S25,9.1,25,9c0,0.5-0.4,1-0.9,1c0,0-0.1,0-0.1,0c0,0,0,0,0,0C23.4,10,23,9.6,23,9c0,0,0.1-0.3,0.2-0.6
	s0.4-0.7,0.6-1C23.9,7.3,23.9,7.3,24,7.2z M6,16h20c0.6,0,1,0.4,1,1v1.6c-0.7,0.7-2.2,1.4-3,1.4c-1.5,0-2.4-0.6-3.2-1.6l-0.8-1
	l-0.8,1C18.4,19.5,17.5,20,16,20s-2.4-0.6-3.2-1.6l-0.8-1l-0.8,1C10.4,19.5,9.5,20,8,20c-1.6,0-2.6-0.8-3-1.4V17C5,16.5,5.4,16,6,16
	z M12,20.3c1,1,2.3,1.7,4,1.7s3-0.7,4-1.7c1,1,2.3,1.7,4,1.7c1.1,0,2.1-0.4,3-0.9V26H5v-4.8C5.8,21.7,6.8,22,8,22
	C9.7,22,11,21.3,12,20.3z"/>
</svg>
