<?xml version="1.0" encoding="utf-8"?>
<!-- Generator: Adobe Illustrator 21.0.2, SVG Export Plug-In . SVG Version: 6.00 Build 0)  -->
<svg version="1.1" id="Layer_1" xmlns="http://www.w3.org/2000/svg" xmlns:xlink="http://www.w3.org/1999/xlink" x="0px" y="0px"
	 viewBox="0 0 32 32" style="enable-background:new 0 0 32 32;" xml:space="preserve">
<style type="text/css">
	.st0{fill:#FFFFFF;}
</style>
<path class="st0" d="M9.4,4C8.5,4,7.7,4.4,7.1,5L4.7,7.8l0,0C4.3,8.3,4,9,4,9.8V25c0,1.6,1.4,3,3,3h18c1.6,0,3-1.4,3-3V9.8
	c0-0.7-0.3-1.4-0.7-2l0,0L24.9,5c-0.6-0.6-1.4-1-2.3-1H9.4z M9.4,6h13.2c0.3,0,0.6,0.1,0.8,0.3L24.8,8H7.2l1.5-1.7
	C8.8,6.1,9.1,6,9.4,6z M6,10h20v15c0,0.6-0.4,1-1,1H7c-0.6,0-1-0.4-1-1V10z M12,12v2h8v-2H12z M19,16l-1,2v2h2v-2L19,16z M23,16
	l-1,2v2h2v-2L23,16z M18,22v2h6v-2H18z"/>
</svg>
