<?xml version="1.0" encoding="utf-8"?>
<!-- Generator: Adobe Illustrator 21.0.2, SVG Export Plug-In . SVG Version: 6.00 Build 0)  -->
<svg version="1.1" id="Layer_1" xmlns="http://www.w3.org/2000/svg" xmlns:xlink="http://www.w3.org/1999/xlink" x="0px" y="0px"
	 viewBox="0 0 48 30" style="enable-background:new 0 0 48 30;" xml:space="preserve">
<style type="text/css">
	.st0{fill:#009EE3;}
	.st1{fill:#113984;}
	.st2{fill:#172C70;}
	.st3{fill:url(#SVGID_1_);}
	.st4{fill:#FFFFFF;}
	.st5{fill:#FF5F00;}
	.st6{fill:#EB001B;}
	.st7{fill:#F79E1B;}
	.st8{fill:#7375CF;}
	.st9{fill:#00A2E5;}
	.st10{fill:#0065AD;}
	.st11{fill:#EC9D35;}
	.st12{fill:#E37527;}
	.st13{fill:#D42E34;}
	.st14{fill:url(#SVGID_2_);}
</style>
<g>
	<path class="st0" d="M6.558,12.164h3.014c1.62,0,2.228,0.818,2.134,2.025c-0.156,1.986-1.355,3.092-2.952,3.092H7.952
		c-0.218,0-0.366,0.148-0.428,0.537L7.181,20.1c-0.023,0.148-0.101,0.234-0.218,0.241H5.07c-0.179,0-0.241-0.14-0.195-0.428
		L6.028,12.6C6.075,12.304,6.238,12.164,6.558,12.164z"/>
	<path class="st1" d="M18.101,12.031c1.02,0,1.955,0.553,1.83,1.932c-0.156,1.636-1.036,2.539-2.415,2.547h-1.207
		c-0.171,0-0.257,0.14-0.304,0.428l-0.234,1.488c-0.039,0.226-0.148,0.335-0.319,0.335h-1.122c-0.179,0-0.241-0.117-0.203-0.374
		l0.927-5.951c0.047-0.296,0.156-0.405,0.358-0.405H18.101L18.101,12.031z M16.27,15.217h0.919c0.576-0.023,0.95-0.421,0.989-1.129
		c0.023-0.444-0.273-0.756-0.748-0.756h-0.865L16.27,15.217L16.27,15.217z M22.984,18.301c0.101-0.093,0.21-0.14,0.195-0.023
		L23.14,18.55c-0.016,0.148,0.039,0.218,0.171,0.218h0.997c0.171,0,0.249-0.07,0.288-0.327l0.615-3.863
		c0.031-0.195-0.016-0.288-0.164-0.288H23.95c-0.101,0-0.148,0.055-0.171,0.203l-0.039,0.234c-0.023,0.125-0.078,0.148-0.132,0.023
		c-0.187-0.444-0.662-0.639-1.324-0.623c-1.534,0.039-2.578,1.207-2.687,2.703c-0.086,1.161,0.748,2.072,1.838,2.072
		C22.229,18.901,22.587,18.667,22.984,18.301L22.984,18.301L22.984,18.301z M22.143,17.709c-0.662,0-1.122-0.53-1.028-1.176
		c0.093-0.646,0.717-1.176,1.379-1.176s1.122,0.53,1.028,1.176C23.428,17.18,22.813,17.709,22.143,17.709L22.143,17.709z
		 M27.167,14.282h-1.013c-0.21,0-0.296,0.156-0.226,0.35l1.254,3.684l-1.231,1.752c-0.101,0.148-0.023,0.28,0.125,0.28h1.137
		c0.132,0.016,0.265-0.047,0.335-0.164l3.863-5.546c0.117-0.171,0.062-0.35-0.132-0.35h-1.075c-0.187,0-0.257,0.07-0.366,0.226
		l-1.612,2.337l-0.724-2.344C27.471,14.36,27.362,14.282,27.167,14.282L27.167,14.282z"/>
	<path class="st0" d="M35.438,12.031c1.02,0,1.955,0.553,1.83,1.932c-0.156,1.636-1.036,2.539-2.415,2.547h-1.207
		c-0.171,0-0.257,0.14-0.304,0.428l-0.234,1.488c-0.039,0.226-0.148,0.335-0.319,0.335h-1.122c-0.179,0-0.241-0.117-0.203-0.374
		l0.927-5.958c0.047-0.296,0.156-0.405,0.358-0.405L35.438,12.031L35.438,12.031z M33.608,15.217h0.919
		c0.569-0.023,0.95-0.421,0.989-1.129c0.023-0.444-0.273-0.756-0.748-0.756h-0.865L33.608,15.217L33.608,15.217z M40.322,18.301
		c0.101-0.093,0.21-0.14,0.195-0.023l-0.039,0.273c-0.016,0.148,0.039,0.218,0.171,0.218h0.997c0.171,0,0.249-0.07,0.288-0.327
		l0.615-3.863c0.031-0.195-0.016-0.288-0.164-0.288h-1.098c-0.101,0-0.148,0.055-0.171,0.203l-0.039,0.234
		c-0.023,0.125-0.078,0.148-0.132,0.023c-0.187-0.444-0.662-0.639-1.324-0.623c-1.534,0.039-2.57,1.207-2.679,2.703
		c-0.086,1.161,0.748,2.072,1.838,2.072C39.574,18.901,39.933,18.667,40.322,18.301L40.322,18.301L40.322,18.301z M39.489,17.709
		c-0.662,0-1.122-0.53-1.028-1.176c0.093-0.646,0.717-1.176,1.379-1.176c0.662,0,1.122,0.522,1.028,1.176
		C40.774,17.187,40.151,17.709,39.489,17.709L39.489,17.709z M44.092,18.776h-1.153c-0.078,0-0.14-0.055-0.14-0.132
		c0-0.008,0-0.016,0-0.023l1.013-6.418c0.023-0.093,0.101-0.156,0.195-0.156h1.153c0.078,0,0.14,0.055,0.14,0.132
		c0,0.008,0,0.016,0,0.023l-1.013,6.418C44.263,18.714,44.185,18.776,44.092,18.776L44.092,18.776z"/>
	<path class="st1" d="M4.665,9.648h3.022c0.849,0,1.862,0.031,2.531,0.623c0.452,0.397,0.685,1.028,0.631,1.714
		c-0.187,2.305-1.566,3.598-3.419,3.598H5.95c-0.257,0-0.421,0.171-0.491,0.623l-0.413,2.648c-0.031,0.171-0.101,0.273-0.234,0.288
		H2.944c-0.203,0-0.28-0.156-0.226-0.498l1.34-8.49C4.112,9.812,4.299,9.648,4.665,9.648z"/>
	<path class="st2" d="M5.499,15.941l0.53-3.341c0.047-0.296,0.203-0.436,0.53-0.436h3.014c0.498,0,0.903,0.078,1.223,0.226
		c-0.304,2.056-1.628,3.193-3.373,3.193H5.935C5.74,15.583,5.592,15.684,5.499,15.941z"/>
</g>
</svg>
