<?xml version="1.0" encoding="utf-8"?>
<!-- Generator: Adobe Illustrator 21.0.2, SVG Export Plug-In . SVG Version: 6.00 Build 0)  -->
<svg version="1.1" id="Layer_1" xmlns="http://www.w3.org/2000/svg" xmlns:xlink="http://www.w3.org/1999/xlink" x="0px" y="0px"
	 viewBox="0 0 48 30" style="enable-background:new 0 0 48 30;" xml:space="preserve">
<style type="text/css">
	.st0{fill:#009EE3;}
	.st1{fill:#113984;}
	.st2{fill:#172C70;}
	.st3{fill:url(#SVGID_1_);}
	.st4{fill:#FFFFFF;}
	.st5{fill:#FF5F00;}
	.st6{fill:#EB001B;}
	.st7{fill:#F79E1B;}
	.st8{fill:#7375CF;}
	.st9{fill:#00A2E5;}
	.st10{fill:#0065AD;}
	.st11{fill:#EC9D35;}
	.st12{fill:#E37527;}
	.st13{fill:#D42E34;}
	.st14{fill:url(#SVGID_2_);}
</style>
<g>
	<path d="M45.967,4.468c-0.001-0.126-0.002-0.252-0.006-0.378c-0.007-0.274-0.023-0.551-0.072-0.822
		c-0.049-0.276-0.13-0.532-0.257-0.782c-0.125-0.246-0.289-0.471-0.484-0.666c-0.195-0.195-0.42-0.359-0.666-0.484
		c-0.25-0.127-0.506-0.208-0.782-0.258c-0.272-0.049-0.549-0.065-0.823-0.072c-0.126-0.003-0.252-0.005-0.378-0.006
		C42.35,1,42.201,1,42.051,1H5.954c-0.15,0-0.299,0-0.449,0.001C5.379,1.002,5.253,1.003,5.127,1.007
		C4.853,1.014,4.576,1.03,4.305,1.079c-0.275,0.05-0.532,0.13-0.782,0.258C3.277,1.462,3.052,1.625,2.857,1.82
		S2.498,2.24,2.373,2.486c-0.127,0.25-0.208,0.506-0.257,0.782C2.067,3.539,2.051,3.816,2.043,4.091
		C2.04,4.216,2.038,4.342,2.037,4.468c-0.001,0.15-0.001,0.299-0.001,0.449v20.166c0,0.15,0,0.299,0.001,0.449
		c0.001,0.126,0.002,0.252,0.006,0.378c0.007,0.274,0.024,0.551,0.073,0.822c0.049,0.276,0.13,0.532,0.257,0.782
		c0.125,0.246,0.289,0.471,0.484,0.666c0.195,0.195,0.42,0.359,0.666,0.484c0.25,0.128,0.506,0.209,0.782,0.258
		c0.271,0.048,0.548,0.065,0.823,0.072c0.126,0.003,0.252,0.005,0.378,0.005C5.654,29,5.804,29,5.954,29h36.098
		c0.149,0,0.299,0,0.448-0.001c0.126-0.001,0.252-0.002,0.378-0.005c0.274-0.007,0.551-0.024,0.823-0.072
		c0.275-0.049,0.531-0.13,0.782-0.258c0.246-0.125,0.47-0.288,0.666-0.484c0.195-0.195,0.358-0.42,0.484-0.666
		c0.128-0.25,0.208-0.506,0.257-0.782c0.049-0.271,0.065-0.548,0.072-0.822c0.003-0.126,0.005-0.252,0.006-0.378
		c0.001-0.15,0.001-0.299,0.001-0.449V4.917C45.968,4.767,45.968,4.618,45.967,4.468z M45.035,25.083c0,0.147,0,0.294-0.001,0.445
		c-0.001,0.119-0.002,0.238-0.005,0.357c-0.006,0.21-0.017,0.456-0.058,0.684c-0.035,0.197-0.089,0.363-0.17,0.522
		c-0.081,0.159-0.186,0.303-0.312,0.429c-0.127,0.127-0.271,0.231-0.43,0.312c-0.158,0.081-0.325,0.135-0.521,0.17
		c-0.233,0.042-0.488,0.053-0.68,0.058c-0.121,0.003-0.241,0.004-0.364,0.005c-0.147,0.001-0.294,0.001-0.441,0.001H5.954
		c-0.002,0-0.004,0-0.006,0c-0.145,0-0.291,0-0.438-0.001c-0.121-0.001-0.241-0.002-0.357-0.005
		c-0.196-0.005-0.452-0.017-0.683-0.058c-0.198-0.036-0.364-0.09-0.525-0.172c-0.158-0.08-0.302-0.185-0.429-0.312
		c-0.126-0.126-0.23-0.27-0.311-0.429c-0.081-0.159-0.135-0.325-0.171-0.525c-0.041-0.228-0.052-0.472-0.058-0.681
		c-0.003-0.12-0.005-0.239-0.005-0.358L2.97,25.176l0-0.093V4.917l0-0.093l0.001-0.35c0.001-0.12,0.002-0.239,0.005-0.359
		c0.006-0.209,0.017-0.453,0.058-0.683C3.07,3.235,3.124,3.069,3.205,2.909C3.286,2.751,3.39,2.607,3.517,2.48
		c0.126-0.126,0.27-0.231,0.429-0.312C4.105,2.087,4.272,2.033,4.47,1.998c0.228-0.041,0.473-0.052,0.683-0.058
		c0.12-0.003,0.239-0.005,0.358-0.005l0.443-0.001h36.098l0.442,0.001c0.12,0.001,0.239,0.002,0.36,0.005
		c0.209,0.006,0.454,0.017,0.682,0.058c0.198,0.036,0.365,0.09,0.524,0.171c0.158,0.08,0.302,0.185,0.428,0.311
		c0.127,0.127,0.232,0.271,0.313,0.431c0.081,0.158,0.135,0.324,0.17,0.524c0.041,0.226,0.052,0.471,0.058,0.682
		c0.003,0.119,0.005,0.238,0.005,0.359c0.001,0.147,0.001,0.294,0.001,0.442V25.083z"/>
	<path d="M14.633,8.678c-0.548,0.027-1.217,0.362-1.604,0.83c-0.348,0.401-0.656,1.057-0.575,1.672
		c0.615,0.053,1.23-0.308,1.618-0.763C14.446,9.949,14.7,9.32,14.633,8.678z"/>
	<path d="M15.44,14.45c-0.013-1.374,1.12-2.028,1.174-2.069c-0.64-0.947-1.641-1.054-1.987-1.08
		c-0.894-0.053-1.654,0.507-2.08,0.507c-0.427,0-1.081-0.48-1.787-0.467c-0.92,0.014-1.774,0.534-2.241,1.361
		c-0.96,1.655-0.253,4.11,0.68,5.458c0.453,0.667,1,1.401,1.72,1.375c0.68-0.027,0.947-0.441,1.774-0.441
		c0.826,0,1.067,0.441,1.787,0.427c0.747-0.013,1.214-0.667,1.667-1.335c0.52-0.76,0.733-1.494,0.747-1.535
		C16.88,16.638,15.453,16.091,15.44,14.45z"/>
	<path d="M22.407,9.441h-3.753v10.011h1.554v-3.42h2.151c1.963,0,3.344-1.346,3.344-3.302C25.702,10.78,24.35,9.441,22.407,9.441z
		 M21.991,14.727h-1.783v-3.975h1.79c1.346,0,2.116,0.722,2.116,1.984C24.114,13.999,23.344,14.727,21.991,14.727z"/>
	<path d="M29.411,12.021c-1.804,0-2.928,0.971-3.011,2.289h1.415c0.132-0.652,0.673-1.068,1.54-1.068
		c0.916,0,1.464,0.486,1.464,1.297v0.562l-1.998,0.118c-1.734,0.097-2.713,0.881-2.713,2.158c0,1.311,0.999,2.199,2.428,2.199
		c0.957,0,1.88-0.513,2.303-1.325h0.035v1.2h1.436v-5.03C32.31,12.958,31.18,12.021,29.411,12.021z M30.819,16.718
		c0,0.95-0.819,1.672-1.866,1.672c-0.805,0-1.332-0.416-1.332-1.054c0-0.624,0.506-1.02,1.401-1.082l1.797-0.111V16.718z"/>
	<path d="M36.441,18.092h-0.028l-1.846-5.938h-1.623l2.636,7.305c0,0.007-0.132,0.437-0.132,0.451
		c-0.229,0.749-0.603,1.041-1.297,1.041c-0.125,0-0.375,0-0.485-0.028v1.214c0.111,0.021,0.485,0.035,0.61,0.035
		c1.512,0,2.234-0.569,2.858-2.338l2.733-7.68h-1.582L36.441,18.092z"/>
</g>
</svg>
