<?xml version="1.0" encoding="utf-8"?>
<!-- Generator: Adobe Illustrator 21.0.2, SVG Export Plug-In . SVG Version: 6.00 Build 0)  -->
<svg version="1.1" id="Layer_1" xmlns="http://www.w3.org/2000/svg" xmlns:xlink="http://www.w3.org/1999/xlink" x="0px" y="0px"
	 viewBox="0 0 48 30" style="enable-background:new 0 0 48 30;" xml:space="preserve">
<style type="text/css">
	.st0{fill:#009EE3;}
	.st1{fill:#113984;}
	.st2{fill:#172C70;}
	.st3{fill:url(#SVGID_1_);}
	.st4{fill:#FFFFFF;}
	.st5{fill:#FF5F00;}
	.st6{fill:#EB001B;}
	.st7{fill:#F79E1B;}
	.st8{fill:#7375CF;}
	.st9{fill:#00A2E5;}
	.st10{fill:#0065AD;}
	.st11{fill:#EC9D35;}
	.st12{fill:#E37527;}
	.st13{fill:#D42E34;}
	.st14{fill:url(#SVGID_2_);}
</style>
<g>
	<g>
		<path class="st4" d="M16.748,29.108v-1.887c0.043-0.617-0.422-1.151-1.039-1.194c-0.048-0.003-0.096-0.004-0.144-0.001
			c-0.423-0.028-0.828,0.177-1.057,0.535c-0.208-0.347-0.59-0.552-0.994-0.535c-0.352-0.018-0.687,0.152-0.881,0.447v-0.371H11.98
			v3.007h0.66v-1.667c-0.053-0.385,0.215-0.74,0.6-0.793c0.045-0.006,0.091-0.008,0.136-0.006c0.434,0,0.654,0.283,0.654,0.792
			v1.673h0.66v-1.667c-0.05-0.388,0.224-0.744,0.613-0.794c0.041-0.005,0.082-0.007,0.123-0.005c0.447,0,0.66,0.283,0.66,0.792
			v1.673H16.748z M20.434,27.605v-1.503h-0.654v0.365c-0.227-0.292-0.581-0.456-0.95-0.44c-0.872,0.043-1.544,0.784-1.501,1.656
			c0.04,0.812,0.689,1.461,1.501,1.501c0.369,0.016,0.723-0.148,0.95-0.44v0.365h0.654V27.605z M17.999,27.605
			c0.029-0.502,0.459-0.886,0.961-0.857c0.502,0.029,0.886,0.459,0.857,0.961c-0.027,0.481-0.424,0.857-0.906,0.858
			c-0.498,0.007-0.907-0.392-0.914-0.89C17.997,27.653,17.998,27.629,17.999,27.605z M34.431,26.023
			c0.221-0.002,0.44,0.039,0.645,0.121c0.191,0.076,0.366,0.189,0.513,0.333c0.145,0.143,0.261,0.313,0.339,0.501
			c0.163,0.403,0.163,0.853,0,1.256c-0.078,0.188-0.194,0.358-0.339,0.501c-0.148,0.143-0.322,0.256-0.513,0.333
			c-0.415,0.161-0.875,0.161-1.29,0c-0.191-0.076-0.365-0.189-0.512-0.333c-0.145-0.143-0.259-0.313-0.337-0.501
			c-0.163-0.403-0.163-0.853,0-1.256c0.078-0.188,0.193-0.358,0.337-0.501c0.147-0.144,0.321-0.257,0.512-0.333
			C33.99,26.062,34.21,26.021,34.431,26.023z M34.431,26.641c-0.128-0.001-0.255,0.023-0.374,0.071
			c-0.112,0.045-0.213,0.112-0.298,0.198c-0.085,0.087-0.153,0.191-0.198,0.305c-0.096,0.252-0.096,0.53,0,0.782
			c0.045,0.114,0.112,0.217,0.198,0.305c0.085,0.086,0.186,0.153,0.298,0.198c0.24,0.094,0.507,0.094,0.747,0
			c0.112-0.045,0.214-0.112,0.3-0.198c0.086-0.087,0.154-0.191,0.199-0.305c0.096-0.252,0.096-0.53,0-0.782
			c-0.045-0.114-0.113-0.217-0.199-0.305c-0.086-0.085-0.188-0.153-0.3-0.198C34.685,26.664,34.558,26.64,34.431,26.641z
			 M23.993,27.605c-0.006-0.937-0.585-1.579-1.428-1.579c-0.871,0.046-1.541,0.789-1.495,1.661c0.043,0.824,0.714,1.477,1.539,1.497
			c0.449,0.016,0.888-0.134,1.233-0.421l-0.321-0.484c-0.248,0.199-0.556,0.31-0.874,0.314c-0.449,0.038-0.848-0.288-0.899-0.736
			h2.233C23.987,27.775,23.993,27.693,23.993,27.605z M21.754,27.341c0.024-0.42,0.379-0.744,0.799-0.73
			c0.411-0.008,0.752,0.318,0.761,0.73H21.754z M26.748,26.869c-0.285-0.164-0.608-0.253-0.937-0.258
			c-0.359,0-0.572,0.132-0.572,0.352c0,0.201,0.226,0.258,0.509,0.296l0.308,0.044c0.654,0.094,1.05,0.371,1.05,0.899
			c0,0.572-0.503,0.981-1.371,0.981c-0.465,0.013-0.921-0.124-1.302-0.39l0.308-0.509c0.289,0.214,0.641,0.325,1,0.315
			c0.447,0,0.686-0.132,0.686-0.365c0-0.17-0.17-0.264-0.528-0.314l-0.308-0.044c-0.673-0.094-1.038-0.396-1.038-0.887
			c0-0.598,0.491-0.962,1.252-0.962c0.431-0.015,0.856,0.094,1.227,0.315L26.748,26.869z M29.891,26.699h-1.069v1.359
			c0,0.302,0.107,0.503,0.434,0.503c0.204-0.007,0.403-0.065,0.579-0.17l0.189,0.56c-0.245,0.153-0.529,0.234-0.818,0.233
			c-0.774,0-1.044-0.415-1.044-1.113v-1.371h-0.61v-0.598h0.61l0-0.912h0.66l0,0.912h1.069L29.891,26.699z M32.155,26.026
			c0.159,0.001,0.316,0.028,0.465,0.082l-0.201,0.616c-0.13-0.052-0.269-0.077-0.409-0.075c-0.428,0-0.642,0.277-0.642,0.774v1.686
			h-0.654v-3.007h0.648v0.365C31.526,26.186,31.83,26.017,32.155,26.026L32.155,26.026z M36.683,28.671
			c0.041,0,0.081,0.008,0.118,0.023c0.036,0.015,0.069,0.037,0.097,0.064c0.028,0.027,0.05,0.06,0.065,0.095
			c0.032,0.074,0.032,0.158,0,0.232c-0.015,0.036-0.038,0.068-0.065,0.095c-0.028,0.027-0.061,0.049-0.097,0.065
			c-0.037,0.016-0.078,0.024-0.118,0.024c-0.123,0.001-0.234-0.071-0.283-0.183c-0.032-0.074-0.032-0.158,0-0.232
			c0.015-0.036,0.037-0.068,0.065-0.095c0.028-0.028,0.061-0.049,0.097-0.064C36.601,28.678,36.642,28.67,36.683,28.671z
			 M36.683,29.203c0.031,0,0.062-0.006,0.09-0.018c0.027-0.012,0.052-0.029,0.073-0.05c0.091-0.091,0.091-0.238,0-0.33
			c-0.021-0.021-0.046-0.038-0.074-0.05c-0.029-0.012-0.059-0.018-0.09-0.018c-0.032,0-0.063,0.006-0.092,0.018
			c-0.028,0.011-0.053,0.028-0.074,0.049c-0.091,0.091-0.091,0.239,0,0.33C36.561,29.179,36.621,29.203,36.683,29.203z
			 M36.701,28.83c0.029-0.002,0.059,0.007,0.083,0.024c0.019,0.016,0.03,0.04,0.029,0.065c0.001,0.021-0.008,0.042-0.023,0.057
			c-0.018,0.016-0.041,0.026-0.066,0.028l0.091,0.105h-0.071l-0.084-0.104h-0.027v0.104h-0.059V28.83H36.701z M36.632,28.882v0.074
			H36.7c0.013,0.001,0.026-0.003,0.037-0.009c0.009-0.006,0.015-0.017,0.014-0.028c0.001-0.011-0.005-0.022-0.014-0.028
			c-0.011-0.007-0.024-0.01-0.037-0.009H36.632z"/>
		<g>
			<rect x="19.04" y="3.155" class="st8" width="9.921" height="17.828"/>
			<path class="st6" d="M19.67,12.069c-0.003-3.479,1.594-6.766,4.33-8.914C19.078-0.714,11.95,0.14,8.08,5.063
				s-3.016,12.051,1.907,15.92c4.112,3.232,9.901,3.232,14.013,0C21.264,18.835,19.667,15.548,19.67,12.069z"/>
			<path class="st9" d="M41.263,19.095V18.73h0.147v-0.074h-0.375v0.074h0.147v0.365H41.263z M41.99,19.095v-0.44h-0.115
				l-0.132,0.303l-0.132-0.303h-0.115v0.44h0.081v-0.332l0.124,0.286h0.084l0.124-0.287v0.333H41.99z"/>
			<path class="st9" d="M42.344,12.069c0,6.262-5.076,11.338-11.337,11.338c-2.541,0-5.009-0.854-7.007-2.424
				c4.923-3.871,5.776-11,1.905-15.923c-0.557-0.708-1.196-1.348-1.905-1.905c4.923-3.87,12.05-3.016,15.92,1.907
				C41.491,7.06,42.345,9.528,42.344,12.069z"/>
		</g>
	</g>
</g>
</svg>
