<?xml version="1.0" encoding="utf-8"?>
<!-- Generator: Adobe Illustrator 21.0.2, SVG Export Plug-In . SVG Version: 6.00 Build 0)  -->
<svg version="1.1" id="Layer_1" xmlns="http://www.w3.org/2000/svg" xmlns:xlink="http://www.w3.org/1999/xlink" x="0px" y="0px"
	 viewBox="0 0 48 30" style="enable-background:new 0 0 48 30;" xml:space="preserve">
<style type="text/css">
	.st0{fill:#009EE3;}
	.st1{fill:#113984;}
	.st2{fill:#172C70;}
	.st3{fill:url(#SVGID_1_);}
	.st4{fill:#FFFFFF;}
	.st5{fill:#FF5F00;}
	.st6{fill:#EB001B;}
	.st7{fill:#F79E1B;}
	.st8{fill:#7375CF;}
	.st9{fill:#00A2E5;}
	.st10{fill:#0065AD;}
	.st11{fill:#EC9D35;}
	.st12{fill:#E37527;}
	.st13{fill:#D42E34;}
	.st14{fill:url(#SVGID_2_);}
</style>
<g>
	
		<radialGradient id="SVGID_1_" cx="-138.1522" cy="596.3231" r="37.2218" gradientTransform="matrix(1 0 0 -1 149.0522 602.3086)" gradientUnits="userSpaceOnUse">
		<stop  offset="0" style="stop-color:#9DD5F6"/>
		<stop  offset="0.0711" style="stop-color:#98D3F5"/>
		<stop  offset="0.1575" style="stop-color:#89CEF3"/>
		<stop  offset="0.2516" style="stop-color:#70C6EF"/>
		<stop  offset="0.3514" style="stop-color:#4EBBEA"/>
		<stop  offset="0.4546" style="stop-color:#23ADE3"/>
		<stop  offset="0.5" style="stop-color:#0DA6E0"/>
		<stop  offset="1" style="stop-color:#2E77BC"/>
	</radialGradient>
	<path class="st3" d="M43.941,1.144H3.821v27.711h40.119v-7.744c0.159-0.23,0.238-0.525,0.238-0.885
		c0-0.412-0.079-0.668-0.238-0.883"/>
	<path class="st4" d="M7.438,11.559L6.666,9.678l-0.767,1.881 M24.441,10.81c-0.155,0.094-0.338,0.097-0.558,0.097h-1.37V9.859
		h1.388c0.196,0,0.402,0.009,0.535,0.085c0.146,0.069,0.237,0.215,0.237,0.417C24.673,10.567,24.587,10.733,24.441,10.81z
		 M34.213,11.559l-0.78-1.881l-0.776,1.881H34.213z M15.996,13.594H14.84l-0.004-3.695l-1.635,3.695h-0.99l-1.639-3.698v3.698H8.278
		l-0.433-1.052H5.497l-0.438,1.052H3.834l2.019-4.718h1.675l1.918,4.467V8.877h1.84l1.476,3.2l1.356-3.2h1.877L15.996,13.594
		L15.996,13.594z M20.604,13.594h-3.767V8.877h3.767v0.982h-2.639v0.85h2.576v0.967h-2.576v0.942h2.639V13.594z M25.915,10.147
		c0,0.752-0.502,1.141-0.795,1.257c0.247,0.094,0.458,0.26,0.558,0.397c0.159,0.235,0.187,0.444,0.187,0.866v0.927h-1.137
		l-0.004-0.595c0-0.284,0.027-0.692-0.178-0.919c-0.165-0.166-0.416-0.202-0.822-0.202h-1.21v1.716h-1.128V8.877h2.594
		c0.576,0,1.001,0.015,1.365,0.226C25.701,9.313,25.915,9.621,25.915,10.147z M27.72,13.594h-1.151V8.877h1.151V13.594z
		 M41.068,13.594H39.47l-2.137-3.541v3.541h-2.296l-0.439-1.052h-2.342l-0.426,1.052h-1.32c-0.548,0-1.242-0.121-1.635-0.522
		c-0.396-0.401-0.603-0.943-0.603-1.801c0-0.7,0.123-1.339,0.608-1.845c0.364-0.377,0.935-0.55,1.712-0.55h1.092v1.011h-1.069
		c-0.411,0-0.644,0.061-0.868,0.28c-0.192,0.199-0.324,0.574-0.324,1.069c0,0.505,0.1,0.87,0.31,1.108
		c0.174,0.187,0.489,0.243,0.786,0.243h0.506l1.589-3.71h1.69l1.909,4.462V8.877h1.717l1.982,3.286V8.877h1.155V13.594
		L41.068,13.594z M3.821,14.521h1.927l0.434-1.048h0.973l0.433,1.048h3.791V13.72l0.338,0.805h1.968l0.338-0.816v0.813h9.421
		l-0.004-1.72h0.182c0.128,0.004,0.165,0.016,0.165,0.227v1.493h4.873v-0.4c0.393,0.211,1.004,0.4,1.809,0.4h2.05l0.439-1.048h0.973
		l0.429,1.048h3.95v-0.995l0.598,0.995h3.166v-6.58H38.94v0.777l-0.439-0.777h-3.215v0.777l-0.403-0.777h-4.342
		c-0.727,0-1.366,0.101-1.882,0.384V7.941h-2.997v0.384c-0.328-0.291-0.776-0.384-1.274-0.384H13.443l-0.735,1.699l-0.754-1.699
		H8.506v0.777L8.127,7.941H5.187l-1.366,3.128L3.821,14.521L3.821,14.521z"/>
	<path class="st4" d="M43.941,18.001h-2.055c-0.205,0-0.341,0.008-0.456,0.085c-0.119,0.076-0.165,0.19-0.165,0.339
		c0,0.178,0.1,0.299,0.247,0.352c0.119,0.041,0.247,0.053,0.435,0.053l0.611,0.016c0.617,0.015,1.028,0.121,1.279,0.38
		c0.046,0.036,0.073,0.076,0.105,0.117 M43.941,21.112c-0.274,0.4-0.808,0.604-1.53,0.604h-2.178v-1.012h2.169
		c0.215,0,0.366-0.028,0.456-0.117c0.079-0.073,0.133-0.179,0.133-0.308c0-0.138-0.055-0.247-0.138-0.312
		c-0.082-0.072-0.201-0.105-0.397-0.105c-1.059-0.036-2.38,0.033-2.38-1.46c0-0.685,0.435-1.405,1.618-1.405h2.246v-0.939h-2.087
		c-0.63,0-1.087,0.151-1.411,0.385v-0.385h-3.087c-0.494,0-1.073,0.122-1.347,0.385v-0.385h-5.512v0.385
		c-0.439-0.316-1.179-0.385-1.52-0.385H25.34v0.385c-0.347-0.336-1.119-0.385-1.589-0.385h-4.069l-0.931,1.008l-0.872-1.008h-6.079
		v6.584h5.964l0.959-1.024l0.904,1.024l3.676,0.003v-1.549h0.361c0.488,0.007,1.063-0.012,1.571-0.232v1.777h3.032v-1.716h0.146
		c0.187,0,0.205,0.008,0.205,0.194v1.522h9.212c0.585,0,1.196-0.15,1.535-0.421v0.421h2.922c0.608,0,1.202-0.085,1.654-0.303V21.112
		L43.941,21.112z M39.443,19.227c0.22,0.227,0.337,0.514,0.337,1c0,1.015-0.634,1.489-1.771,1.489h-2.196v-1.012H38
		c0.214,0,0.365-0.028,0.461-0.117c0.078-0.073,0.133-0.179,0.133-0.308c0-0.138-0.06-0.247-0.138-0.312
		c-0.086-0.072-0.205-0.105-0.402-0.105c-1.055-0.036-2.375,0.033-2.375-1.46c0-0.685,0.43-1.405,1.612-1.405h2.261v1.004h-2.069
		c-0.205,0-0.338,0.008-0.452,0.085c-0.123,0.076-0.169,0.19-0.169,0.339c0,0.178,0.105,0.299,0.247,0.352
		c0.119,0.041,0.247,0.053,0.439,0.053l0.607,0.016C38.767,18.862,39.187,18.968,39.443,19.227z M29.267,18.935
		c-0.151,0.089-0.337,0.097-0.557,0.097h-1.37v-1.06h1.389c0.201,0,0.402,0.004,0.538,0.085c0.146,0.076,0.233,0.223,0.233,0.424
		C29.501,18.684,29.414,18.847,29.267,18.935z M29.948,19.522c0.251,0.093,0.456,0.259,0.552,0.396
		c0.159,0.23,0.182,0.445,0.187,0.861v0.935h-1.132v-0.59c0-0.284,0.027-0.704-0.182-0.924c-0.165-0.169-0.416-0.21-0.827-0.21
		h-1.205v1.724h-1.133v-4.719h2.603c0.571,0,0.987,0.025,1.357,0.223c0.356,0.215,0.58,0.509,0.58,1.048
		C30.748,19.02,30.245,19.405,29.948,19.522z M31.373,16.996h3.764v0.976h-2.641v0.858h2.576v0.963h-2.576v0.939l2.641,0.004v0.979
		h-3.764V16.996z M23.765,19.174h-1.457v-1.202h1.47c0.407,0,0.69,0.166,0.69,0.578C24.468,18.959,24.198,19.174,23.765,19.174z
		 M21.185,21.286l-1.731-1.922l1.731-1.861V21.286z M16.713,20.732h-2.773v-0.939h2.476V18.83h-2.476v-0.858h2.827l1.233,1.375
		L16.713,20.732z M25.678,18.551c0,1.311-0.978,1.582-1.964,1.582h-1.407v1.583h-2.192l-1.388-1.562l-1.443,1.562h-4.467v-4.719
		h4.535l1.387,1.547l1.434-1.547h3.603C24.673,16.996,25.678,17.244,25.678,18.551z"/>
</g>
</svg>
