<?xml version="1.0" encoding="utf-8"?>
<!-- Generator: Adobe Illustrator 21.0.2, SVG Export Plug-In . SVG Version: 6.00 Build 0)  -->
<svg version="1.1" id="Layer_1" xmlns="http://www.w3.org/2000/svg" xmlns:xlink="http://www.w3.org/1999/xlink" x="0px" y="0px"
	 viewBox="0 0 48 30" style="enable-background:new 0 0 48 30;" xml:space="preserve">
<style type="text/css">
	.st0{fill:#009EE3;}
	.st1{fill:#113984;}
	.st2{fill:#172C70;}
	.st3{fill:url(#SVGID_1_);}
	.st4{fill:#FFFFFF;}
	.st5{fill:#FF5F00;}
	.st6{fill:#EB001B;}
	.st7{fill:#F79E1B;}
	.st8{fill:#7375CF;}
	.st9{fill:#00A2E5;}
	.st10{fill:#0065AD;}
	.st11{fill:#EC9D35;}
	.st12{fill:#E37527;}
	.st13{fill:#D42E34;}
	.st14{fill:url(#SVGID_2_);}
</style>
<g>
	<g>
		<g>
			<rect x="19.026" y="3.143" class="st5" width="9.921" height="17.828"/>
			<path class="st6" d="M19.656,12.057c-0.003-3.479,1.594-6.766,4.33-8.914c-4.923-3.87-12.051-3.016-15.92,1.907
				c-3.87,4.923-3.016,12.051,1.907,15.92c4.112,3.232,9.901,3.232,14.013,0C21.25,18.823,19.653,15.536,19.656,12.057z"/>
			<path class="st7" d="M42.331,12.057c0,6.262-5.076,11.338-11.337,11.338c-2.541,0-5.009-0.854-7.007-2.424
				c4.923-3.871,5.776-11,1.905-15.923c-0.557-0.708-1.196-1.348-1.905-1.905c4.923-3.87,12.05-3.016,15.92,1.907
				C41.477,7.048,42.331,9.516,42.331,12.057z"/>
			<path class="st7" d="M41.249,19.083v-0.365h0.147v-0.074h-0.375v0.074h0.147v0.365H41.249z M41.977,19.083v-0.44h-0.115
				l-0.132,0.303l-0.132-0.303h-0.115v0.44h0.081v-0.332l0.124,0.286h0.084l0.124-0.287v0.333H41.977z"/>
		</g>
	</g>
	<g>
		<path d="M11.658,26.394c0.231,0.232,0.347,0.579,0.347,1.042v1.798h-0.911v-1.658c0-0.249-0.052-0.435-0.155-0.557
			s-0.25-0.184-0.441-0.184c-0.214,0-0.383,0.069-0.508,0.207c-0.125,0.139-0.187,0.344-0.187,0.616v1.576H8.894v-1.658
			c0-0.494-0.198-0.741-0.595-0.741c-0.21,0-0.377,0.069-0.502,0.207c-0.125,0.139-0.187,0.344-0.187,0.616v1.576H6.699v-3.141h0.87
			v0.362c0.117-0.132,0.26-0.233,0.429-0.304c0.169-0.07,0.355-0.105,0.558-0.105c0.222,0,0.422,0.044,0.601,0.131
			c0.179,0.087,0.323,0.215,0.432,0.382c0.128-0.164,0.291-0.29,0.487-0.379c0.197-0.089,0.412-0.134,0.646-0.134
			C11.114,26.047,11.426,26.163,11.658,26.394z"/>
		<path d="M15.356,26.394c0.261,0.232,0.391,0.581,0.391,1.048v1.792h-0.853v-0.391c-0.171,0.292-0.49,0.438-0.957,0.438
			c-0.242,0-0.451-0.041-0.628-0.123c-0.177-0.082-0.312-0.195-0.406-0.339c-0.093-0.144-0.14-0.307-0.14-0.49
			c0-0.292,0.11-0.521,0.33-0.689c0.22-0.167,0.56-0.251,1.019-0.251h0.724c0-0.199-0.061-0.351-0.181-0.458
			c-0.121-0.107-0.302-0.16-0.543-0.16c-0.167,0-0.332,0.026-0.493,0.079s-0.299,0.124-0.412,0.213l-0.327-0.636
			c0.171-0.121,0.377-0.214,0.616-0.28c0.239-0.066,0.485-0.099,0.738-0.099C14.722,26.047,15.096,26.163,15.356,26.394z
			 M14.58,28.56c0.121-0.072,0.206-0.178,0.257-0.318v-0.321h-0.625c-0.374,0-0.56,0.123-0.56,0.368
			c0,0.117,0.045,0.209,0.137,0.277c0.091,0.068,0.217,0.102,0.376,0.102C14.321,28.668,14.459,28.633,14.58,28.56z"/>
		<path d="M17.008,29.185c-0.25-0.064-0.448-0.145-0.596-0.242l0.304-0.654c0.14,0.09,0.31,0.163,0.508,0.219
			c0.199,0.057,0.393,0.085,0.584,0.085c0.385,0,0.578-0.095,0.578-0.286c0-0.089-0.052-0.154-0.158-0.193
			c-0.105-0.039-0.267-0.072-0.484-0.099c-0.257-0.039-0.469-0.083-0.636-0.134c-0.167-0.05-0.313-0.14-0.435-0.269
			s-0.184-0.311-0.184-0.549c0-0.198,0.057-0.375,0.172-0.528c0.115-0.153,0.282-0.273,0.502-0.359
			c0.22-0.085,0.48-0.128,0.78-0.128c0.222,0,0.442,0.024,0.663,0.073c0.22,0.049,0.402,0.116,0.546,0.202l-0.304,0.648
			c-0.276-0.156-0.578-0.233-0.905-0.233c-0.195,0-0.341,0.027-0.438,0.082c-0.097,0.055-0.146,0.125-0.146,0.21
			c0,0.097,0.053,0.165,0.158,0.204s0.272,0.076,0.502,0.111c0.257,0.043,0.467,0.089,0.63,0.137
			c0.164,0.049,0.306,0.137,0.426,0.266s0.181,0.308,0.181,0.537c0,0.195-0.059,0.368-0.175,0.52s-0.287,0.27-0.511,0.354
			c-0.224,0.083-0.49,0.125-0.797,0.125C17.512,29.282,17.257,29.249,17.008,29.185z"/>
		<path d="M21.988,29.083c-0.09,0.066-0.2,0.116-0.33,0.149s-0.268,0.05-0.412,0.05c-0.374,0-0.663-0.096-0.867-0.286
			c-0.205-0.191-0.307-0.471-0.307-0.841v-1.29h-0.484v-0.701h0.484v-0.765h0.911v0.765h0.782v0.701h-0.782v1.278
			c0,0.132,0.034,0.235,0.102,0.307c0.068,0.072,0.165,0.108,0.289,0.108c0.144,0,0.267-0.039,0.368-0.117L21.988,29.083z"/>
		<path d="M25.608,27.921h-2.376c0.042,0.195,0.144,0.348,0.303,0.461c0.16,0.113,0.358,0.169,0.596,0.169
			c0.164,0,0.309-0.024,0.435-0.073c0.126-0.049,0.244-0.125,0.353-0.231l0.484,0.525c-0.295,0.339-0.728,0.508-1.296,0.508
			c-0.354,0-0.667-0.069-0.94-0.208s-0.482-0.33-0.63-0.575c-0.148-0.246-0.222-0.523-0.222-0.835c0-0.308,0.073-0.585,0.219-0.832
			s0.346-0.44,0.601-0.578c0.255-0.138,0.54-0.207,0.855-0.207c0.308,0,0.586,0.066,0.835,0.198
			c0.249,0.133,0.444,0.322,0.586,0.569s0.213,0.534,0.213,0.861C25.625,27.688,25.62,27.769,25.608,27.921z M23.477,26.911
			c-0.14,0.117-0.226,0.277-0.257,0.479h1.547c-0.031-0.199-0.117-0.357-0.257-0.476c-0.14-0.119-0.312-0.178-0.514-0.178
			C23.79,26.736,23.617,26.794,23.477,26.911z"/>
		<path d="M27.689,26.164c0.185-0.078,0.398-0.117,0.639-0.117v0.841c-0.101-0.008-0.169-0.012-0.204-0.012
			c-0.261,0-0.465,0.073-0.613,0.219s-0.222,0.365-0.222,0.657v1.483h-0.911v-3.141h0.87v0.414
			C27.357,26.357,27.504,26.242,27.689,26.164z"/>
		<path d="M29.604,29.074c-0.267-0.138-0.475-0.33-0.625-0.575c-0.15-0.246-0.225-0.523-0.225-0.835s0.075-0.59,0.225-0.835
			s0.358-0.437,0.625-0.575c0.267-0.138,0.567-0.207,0.902-0.207c0.331,0,0.62,0.069,0.867,0.207
			c0.247,0.138,0.427,0.336,0.54,0.593l-0.707,0.379c-0.164-0.288-0.399-0.432-0.707-0.432c-0.237,0-0.434,0.078-0.589,0.234
			c-0.156,0.155-0.233,0.368-0.233,0.636s0.078,0.48,0.233,0.636s0.352,0.233,0.589,0.233c0.312,0,0.547-0.144,0.707-0.432
			l0.707,0.385c-0.113,0.249-0.293,0.443-0.54,0.583s-0.536,0.21-0.867,0.21C30.171,29.282,29.87,29.212,29.604,29.074z"/>
		<path d="M34.972,26.394c0.261,0.232,0.391,0.581,0.391,1.048v1.792H34.51v-0.391c-0.171,0.292-0.49,0.438-0.957,0.438
			c-0.242,0-0.451-0.041-0.628-0.123c-0.177-0.082-0.312-0.195-0.406-0.339c-0.093-0.144-0.14-0.307-0.14-0.49
			c0-0.292,0.11-0.521,0.33-0.689c0.22-0.167,0.56-0.251,1.019-0.251h0.724c0-0.199-0.061-0.351-0.181-0.458
			c-0.121-0.107-0.302-0.16-0.543-0.16c-0.167,0-0.332,0.026-0.493,0.079s-0.299,0.124-0.412,0.213l-0.327-0.636
			c0.171-0.121,0.377-0.214,0.616-0.28c0.239-0.066,0.485-0.099,0.738-0.099C34.337,26.047,34.711,26.163,34.972,26.394z
			 M34.195,28.56c0.121-0.072,0.206-0.178,0.257-0.318v-0.321h-0.625c-0.374,0-0.56,0.123-0.56,0.368
			c0,0.117,0.045,0.209,0.137,0.277c0.091,0.068,0.217,0.102,0.376,0.102C33.937,28.668,34.075,28.633,34.195,28.56z"/>
		<path d="M37.643,26.164c0.185-0.078,0.398-0.117,0.639-0.117v0.841c-0.101-0.008-0.169-0.012-0.204-0.012
			c-0.261,0-0.465,0.073-0.613,0.219s-0.222,0.365-0.222,0.657v1.483h-0.911v-3.141h0.87v0.414
			C37.311,26.357,37.458,26.242,37.643,26.164z"/>
		<path d="M42.141,24.903v4.332h-0.87v-0.362c-0.226,0.272-0.553,0.409-0.98,0.409c-0.296,0-0.563-0.066-0.803-0.199
			s-0.427-0.321-0.563-0.566c-0.136-0.245-0.204-0.529-0.204-0.852s0.068-0.607,0.204-0.853s0.324-0.434,0.563-0.566
			c0.239-0.132,0.507-0.198,0.803-0.198c0.401,0,0.714,0.126,0.94,0.379v-1.523H42.141z M41.02,28.298
			c0.152-0.158,0.228-0.369,0.228-0.633s-0.076-0.476-0.228-0.633c-0.152-0.158-0.342-0.237-0.572-0.237
			c-0.234,0-0.426,0.079-0.578,0.237c-0.152,0.157-0.228,0.369-0.228,0.633s0.076,0.476,0.228,0.633s0.344,0.236,0.578,0.236
			C40.677,28.534,40.868,28.455,41.02,28.298z"/>
	</g>
</g>
</svg>
