<?xml version="1.0" encoding="utf-8"?>
<!-- Generator: Adobe Illustrator 21.0.2, SVG Export Plug-In . SVG Version: 6.00 Build 0)  -->
<svg version="1.1" id="Layer_1" xmlns="http://www.w3.org/2000/svg" xmlns:xlink="http://www.w3.org/1999/xlink" x="0px" y="0px"
	 viewBox="0 0 48 30" style="enable-background:new 0 0 48 30;" xml:space="preserve">
<style type="text/css">
	.st0{fill:#009EE3;}
	.st1{fill:#113984;}
	.st2{fill:#172C70;}
	.st3{fill:url(#SVGID_1_);}
	.st4{fill:#FFFFFF;}
	.st5{fill:#FF5F00;}
	.st6{fill:#EB001B;}
	.st7{fill:#F79E1B;}
	.st8{fill:#7375CF;}
	.st9{fill:#00A2E5;}
	.st10{fill:#0065AD;}
	.st11{fill:#EC9D35;}
	.st12{fill:#E37527;}
	.st13{fill:#D42E34;}
	.st14{fill:url(#SVGID_2_);}
</style>
<g>
	<path class="st12" d="M47.05,16.829c0,0-12.893,9.097-36.507,13.171H47.05V16.829z"/>
	
		<radialGradient id="SVGID_1_" cx="18.3347" cy="-475.0013" r="3.4649" gradientTransform="matrix(1 0 0 1 6.416 486.083)" gradientUnits="userSpaceOnUse">
		<stop  offset="0.0056" style="stop-color:#FBEDDE"/>
		<stop  offset="0.1133" style="stop-color:#FAE7D5"/>
		<stop  offset="0.2891" style="stop-color:#F7D7BD"/>
		<stop  offset="0.511" style="stop-color:#F1BD95"/>
		<stop  offset="0.7677" style="stop-color:#EA995E"/>
		<stop  offset="1" style="stop-color:#E37527"/>
	</radialGradient>
	<path class="st3" d="M24.755,7.656c-1.937,0-3.509,1.513-3.509,3.381c0,1.986,1.503,3.47,3.509,3.47
		c1.955,0,3.499-1.504,3.499-3.431C28.255,9.161,26.721,7.656,24.755,7.656z"/>
	<path class="st4" d="M4.836,7.78H2.95v6.579h1.876c0.996,0,1.716-0.236,2.347-0.759c0.749-0.622,1.194-1.559,1.194-2.527
		C8.368,9.13,6.916,7.78,4.836,7.78z M6.336,12.721c-0.406,0.366-0.928,0.524-1.758,0.524H4.234V8.894h0.345
		c0.83,0,1.332,0.148,1.758,0.532c0.444,0.395,0.709,1.006,0.709,1.637C7.045,11.695,6.78,12.328,6.336,12.721z"/>
	<rect x="8.96" y="7.78" class="st4" width="1.282" height="6.579"/>
	<path class="st4" d="M13.38,10.303c-0.771-0.286-0.997-0.474-0.997-0.828c0-0.415,0.404-0.73,0.957-0.73
		c0.385,0,0.7,0.158,1.037,0.531l0.67-0.877c-0.552-0.484-1.213-0.731-1.934-0.731c-1.163,0-2.051,0.809-2.051,1.884
		c0,0.908,0.414,1.372,1.618,1.807c0.503,0.177,0.759,0.295,0.888,0.375c0.257,0.168,0.385,0.404,0.385,0.68
		c0,0.533-0.425,0.927-0.998,0.927c-0.612,0-1.104-0.305-1.401-0.878l-0.828,0.8c0.591,0.867,1.301,1.253,2.279,1.253
		c1.332,0,2.269-0.889,2.269-2.161C15.274,11.311,14.841,10.837,13.38,10.303z"/>
	<path class="st4" d="M15.678,11.072c0,1.936,1.52,3.435,3.474,3.435c0.552,0,1.026-0.109,1.609-0.384v-1.51
		c-0.514,0.513-0.968,0.72-1.55,0.72c-1.292,0-2.21-0.937-2.21-2.27c0-1.262,0.947-2.259,2.152-2.259
		c0.611,0,1.075,0.217,1.609,0.74v-1.51c-0.562-0.285-1.027-0.403-1.579-0.403C17.237,7.631,15.678,9.161,15.678,11.072z"/>
	<polygon class="st4" points="31.158,12.199 29.402,7.78 28.001,7.78 30.794,14.527 31.484,14.527 34.326,7.78 32.935,7.78 	"/>
	<polygon class="st4" points="34.909,14.359 38.549,14.359 38.549,13.245 36.192,13.245 36.192,11.468 38.459,11.468 38.459,10.354 
		36.192,10.354 36.192,8.894 38.549,8.894 38.549,7.78 34.909,7.78 	"/>
	<path class="st4" d="M43.629,9.721c0-1.233-0.847-1.942-2.328-1.942h-1.904v6.579h1.284v-2.644h0.168l1.775,2.644h1.579
		l-2.073-2.771C43.097,11.389,43.629,10.728,43.629,9.721z M41.054,10.808H40.68V8.814h0.394c0.801,0,1.235,0.336,1.235,0.977
		C42.309,10.451,41.875,10.808,41.054,10.808z"/>
	<path class="st4" d="M44.534,8.27c0-0.115-0.077-0.178-0.218-0.178h-0.187v0.579h0.137V8.446l0.162,0.225H44.6l-0.193-0.239
		C44.489,8.41,44.534,8.35,44.534,8.27z M44.292,8.348h-0.026V8.198h0.027c0.068,0,0.103,0.025,0.103,0.074
		C44.396,8.323,44.36,8.348,44.292,8.348z"/>
	<path class="st4" d="M44.343,7.874c-0.281,0-0.506,0.226-0.506,0.506c0,0.281,0.227,0.506,0.506,0.506c0.275,0,0.5-0.228,0.5-0.506
		C44.843,8.102,44.619,7.874,44.343,7.874z M44.343,8.796c-0.225,0-0.406-0.185-0.406-0.414c0-0.231,0.18-0.415,0.406-0.415
		c0.218,0,0.398,0.187,0.398,0.415C44.741,8.609,44.561,8.796,44.343,8.796z"/>
	<path class="st4" d="M14.452,16.088l1.717,1.798v-1.704h0.245v2.3l-1.716-1.794v1.696h-0.246V16.088z"/>
	<path class="st4" d="M14.429,16.088v2.318h0.291c0,0,0-1.555,0-1.662c0.075,0.079,1.716,1.795,1.716,1.795v-2.38h-0.291
		c0,0,0,1.563,0,1.671c-0.075-0.08-1.716-1.799-1.716-1.799V16.088z M14.475,16.145c0.076,0.079,1.717,1.799,1.717,1.799
		s0-1.695,0-1.74c0.032,0,0.164,0,0.198,0c0,0.044,0,2.114,0,2.222c-0.076-0.08-1.715-1.796-1.715-1.796s0,1.686,0,1.731
		c-0.035,0-0.167,0-0.2,0C14.475,18.316,14.475,16.253,14.475,16.145z"/>
	<path class="st4" d="M17.603,16.182h1.141v0.227h-0.896v0.655h0.87v0.227h-0.87v0.864h0.896v0.228h-1.141V16.182z"/>
	<path class="st4" d="M18.743,16.159h-1.164v2.248h1.187v-0.274c0,0-0.853,0-0.896,0c0-0.042,0-0.776,0-0.819
		c0.043,0,0.869,0,0.869,0v-0.272c0,0-0.826,0-0.869,0c0-0.042,0-0.568,0-0.608c0.043,0,0.896,0,0.896,0v-0.275H18.743z
		 M18.721,16.204c0,0.033,0,0.15,0,0.182c-0.044,0-0.897,0-0.897,0v0.7c0,0,0.827,0,0.87,0c0,0.032,0,0.148,0,0.182
		c-0.043,0-0.87,0-0.87,0v0.91c0,0,0.852,0,0.897,0c0,0.033,0,0.149,0,0.182c-0.043,0-1.052,0-1.095,0c0-0.044,0-2.111,0-2.156
		C17.668,16.204,18.677,16.204,18.721,16.204z"/>
	<path class="st4" d="M20.475,18.383H20.23v-1.974h-0.531v-0.227h1.313v0.227h-0.537V18.383z"/>
	<path class="st4" d="M21.012,16.159h-1.338v0.275c0,0,0.49,0,0.532,0c0,0.044,0,1.973,0,1.973h0.291c0,0,0-1.929,0-1.973
		c0.042,0,0.538,0,0.538,0v-0.275H21.012z M20.99,16.204c0,0.033,0,0.15,0,0.182c-0.041,0-0.537,0-0.537,0s0,1.93,0,1.974
		c-0.034,0-0.165,0-0.2,0c0-0.044,0-1.974,0-1.974s-0.49,0-0.531,0c0-0.032,0-0.149,0-0.182
		C19.764,16.204,20.946,16.204,20.99,16.204z"/>
	<path class="st4" d="M22.653,17.831l0.713-1.764l0.712,1.764l0.578-1.649h0.267l-0.845,2.315l-0.712-1.773l-0.713,1.773
		l-0.843-2.315h0.265L22.653,17.831z"/>
	<path class="st4" d="M23.345,16.059c0,0-0.648,1.602-0.691,1.707c-0.037-0.107-0.563-1.608-0.563-1.608h-0.314l0.876,2.403
		c0,0,0.673-1.675,0.713-1.776c0.04,0.101,0.713,1.776,0.713,1.776l0.876-2.403H24.64c0,0-0.526,1.501-0.563,1.608
		c-0.043-0.106-0.711-1.76-0.711-1.76L23.345,16.059z M22.674,17.84c0,0,0.652-1.612,0.691-1.71c0.04,0.098,0.713,1.767,0.713,1.767
		s0.582-1.662,0.593-1.693c0.025,0,0.17,0,0.217,0c-0.021,0.059-0.773,2.123-0.812,2.229c-0.042-0.105-0.711-1.77-0.711-1.77
		s-0.67,1.665-0.712,1.77c-0.038-0.106-0.789-2.17-0.811-2.229c0.046,0,0.191,0,0.216,0c0.01,0.03,0.593,1.693,0.593,1.693
		L22.674,17.84z"/>
	<path class="st4" d="M28.092,17.285c0,0.634-0.52,1.136-1.147,1.136c-0.628,0-1.147-0.503-1.147-1.136
		c0-0.63,0.519-1.141,1.147-1.141C27.572,16.144,28.092,16.655,28.092,17.285z M26.042,17.282c0,0.496,0.403,0.91,0.903,0.91
		c0.499,0,0.901-0.415,0.901-0.91c0-0.499-0.397-0.912-0.901-0.912C26.44,16.371,26.042,16.783,26.042,17.282z"/>
	<path class="st4" d="M25.775,17.285c0,0.639,0.525,1.159,1.171,1.159c0.645,0,1.17-0.52,1.17-1.159c0-0.643-0.525-1.164-1.17-1.164
		C26.3,16.121,25.775,16.642,25.775,17.285z M25.82,17.285c0-0.617,0.505-1.118,1.125-1.118c0.619,0,1.125,0.501,1.125,1.118
		c0,0.614-0.506,1.113-1.125,1.113C26.324,18.398,25.82,17.899,25.82,17.285z"/>
	<path class="st4" d="M26.019,17.282c0,0.516,0.416,0.934,0.926,0.934c0.51,0,0.924-0.417,0.924-0.934
		c0-0.515-0.414-0.933-0.924-0.933C26.435,16.349,26.019,16.767,26.019,17.282z M26.066,17.282c0-0.489,0.394-0.888,0.88-0.888
		c0.485,0,0.878,0.399,0.878,0.888c0,0.489-0.393,0.888-0.878,0.888C26.46,18.171,26.066,17.772,26.066,17.282z"/>
	<path class="st4" d="M29.401,18.383h-0.245v-2.201h0.318c0.417,0,0.805,0.111,0.805,0.607c0,0.339-0.212,0.578-0.551,0.607
		l0.7,0.987h-0.301l-0.664-0.967h-0.062V18.383z M29.401,17.201h0.076c0.277,0,0.558-0.052,0.558-0.394
		c0-0.361-0.266-0.397-0.56-0.397h-0.073V17.201z"/>
	<path class="st4" d="M29.156,16.159h-0.023v2.248h0.291c0,0,0-0.923,0-0.967c0.017,0,0.037,0,0.038,0l0,0
		c0,0.017,0.647,0.957,0.647,0.957l0.319,0.01h0.045c0,0-0.672-0.946-0.707-0.997c0.325-0.044,0.536-0.282,0.536-0.621
		c0-0.425-0.27-0.63-0.828-0.63H29.156z M29.474,16.204c0.533,0,0.782,0.186,0.782,0.585c0,0.327-0.208,0.558-0.531,0.585
		l-0.041,0.004c0,0,0.652,0.915,0.699,0.982c-0.064,0-0.256,0-0.258,0h0.001c0-0.017-0.647-0.957-0.647-0.957l-0.08-0.01h-0.023
		c0,0,0,0.923,0,0.966c-0.033,0-0.166,0-0.199,0c0-0.044,0-2.111,0-2.156C29.218,16.204,29.474,16.204,29.474,16.204z"/>
	<path class="st4" d="M29.401,16.386h-0.023v0.837h0.099c0.27,0,0.581-0.048,0.581-0.417c0-0.388-0.301-0.42-0.583-0.42H29.401z
		 M29.474,16.434c0.283,0,0.537,0.027,0.537,0.373c0,0.326-0.27,0.37-0.534,0.37c0,0-0.03,0-0.053,0c0-0.042,0-0.702,0-0.743
		C29.446,16.434,29.474,16.434,29.474,16.434z"/>
	<path class="st4" d="M32.651,16.182h0.33l-1.033,1.026l1.068,1.176h-0.339l-0.903-1.01l-0.061,0.06v0.95h-0.245v-2.201h0.245v0.943
		L32.651,16.182z"/>
	<path class="st4" d="M32.98,16.159h-0.339c0,0-0.835,0.838-0.905,0.911c0-0.099,0-0.911,0-0.911h-0.291v2.248h0.291
		c0,0,0-0.965,0-0.97c0.002,0.001,0.021-0.017,0.036-0.031c0.031,0.033,0.887,0.993,0.887,0.993l0.355,0.008h0.053
		c0,0-1.06-1.167-1.091-1.198c0.032-0.032,1.058-1.049,1.058-1.049H32.98z M32.924,16.204c-0.073,0.074-1.009,1.002-1.009,1.002
		s0.984,1.082,1.049,1.154c-0.076,0-0.287,0-0.287,0l0,0c0-0.012-0.886-1.002-0.886-1.002l-0.015-0.019l-0.079,0.079
		c0,0-0.006,0.899-0.006,0.943c-0.035,0-0.166,0-0.199,0c0-0.044,0-2.111,0-2.156c0.033,0,0.164,0,0.199,0c0,0.044,0,0.977,0,0.977
		s0.957-0.963,0.97-0.977C32.674,16.204,32.85,16.204,32.924,16.204z"/>
</g>
</svg>
