<?xml version="1.0" encoding="utf-8"?>
<!-- Generator: Adobe Illustrator 21.0.2, SVG Export Plug-In . SVG Version: 6.00 Build 0)  -->
<svg version="1.1" id="Layer_1" xmlns="http://www.w3.org/2000/svg" xmlns:xlink="http://www.w3.org/1999/xlink" x="0px" y="0px"
	 viewBox="0 0 48 30" style="enable-background:new 0 0 48 30;" xml:space="preserve">
<style type="text/css">
	.st0{fill:#009EE3;}
	.st1{fill:#113984;}
	.st2{fill:#172C70;}
	.st3{fill:url(#SVGID_1_);}
	.st4{fill:#FFFFFF;}
	.st5{fill:#FF5F00;}
	.st6{fill:#EB001B;}
	.st7{fill:#F79E1B;}
	.st8{fill:#7375CF;}
	.st9{fill:#00A2E5;}
	.st10{fill:#0065AD;}
	.st11{fill:#EC9D35;}
	.st12{fill:#E37527;}
	.st13{fill:#D42E34;}
	.st14{fill:url(#SVGID_2_);}
</style>
<g>
	<g>
		<polygon class="st10" points="20.914,22.278 17.127,22.278 19.494,7.732 23.281,7.732 		"/>
		<path class="st10" d="M13.941,7.732L10.33,17.737l-0.427-2.154l0,0.001L8.629,9.042c0,0-0.154-1.31-1.797-1.31H0.864l-0.07,0.246
			c0,0,1.826,0.38,3.961,1.663l3.29,12.637h3.946l6.025-14.546H13.941z"/>
		<path class="st10" d="M43.728,22.278h3.477L44.174,7.732h-3.045c-1.406,0-1.748,1.084-1.748,1.084l-5.648,13.462h3.947l0.79-2.161
			h4.814L43.728,22.278z M39.561,17.132l1.99-5.444l1.119,5.444H39.561z"/>
		<path class="st10" d="M34.029,11.23l0.54-3.124c0,0-1.668-0.634-3.406-0.634c-1.879,0-6.342,0.822-6.342,4.815
			c0,3.758,5.238,3.805,5.238,5.778s-4.698,1.621-6.248,0.376l-0.564,3.266c0,0,1.691,0.822,4.275,0.822
			c2.584,0,6.483-1.339,6.483-4.98c0-3.782-5.285-4.134-5.285-5.778C28.72,10.126,32.409,10.337,34.029,11.23z"/>
	</g>
	<path class="st11" d="M9.904,15.583L8.629,9.042c0,0-0.154-1.31-1.797-1.31H0.864l-0.07,0.246c0,0,2.869,0.595,5.621,2.822
		C9.046,12.929,9.904,15.583,9.904,15.583z"/>
</g>
</svg>
