<?xml version="1.0" encoding="utf-8"?>
<!-- Generator: Adobe Illustrator 24.3.0, SVG Export Plug-In . SVG Version: 6.00 Build 0)  -->
<svg version="1.1" id="Слой_1" xmlns="http://www.w3.org/2000/svg" xmlns:xlink="http://www.w3.org/1999/xlink" x="0px" y="0px"
	 viewBox="0 0 68.8 69.5" style="enable-background:new 0 0 68.8 69.5;" xml:space="preserve">
<style type="text/css">
	.st0{fill:#FFFFFF;}
</style>
<path class="st0" d="M55.4,56.8H19.9c-0.6,0-1.1-0.5-1.1-1.1c0-0.6,0.5-1.1,1.1-1.1h34.4V14.8H40.5v12.9c0,0.6-0.5,1.1-1.1,1.1H27.5
	v12.9c0,0.6-0.5,1.1-1.1,1.1H14.5v12.9c0,0.6-0.5,1.1-1.1,1.1c-0.6,0-1.1-0.5-1.1-1.1v-14c0-0.6,0.5-1.1,1.1-1.1h11.9V27.8
	c0-0.6,0.5-1.1,1.1-1.1h11.9V13.8c0-0.6,0.5-1.1,1.1-1.1h16c0.6,0,1.1,0.5,1.1,1.1v42C56.5,56.3,56,56.8,55.4,56.8z"/>
</svg>
