<?xml version="1.0" encoding="utf-8"?>
<!-- Generator: Adobe Illustrator 24.3.0, SVG Export Plug-In . SVG Version: 6.00 Build 0)  -->
<svg version="1.1" id="Слой_1" xmlns="http://www.w3.org/2000/svg" xmlns:xlink="http://www.w3.org/1999/xlink" x="0px" y="0px"
	 viewBox="0 0 68.8 69.5" style="enable-background:new 0 0 68.8 69.5;" xml:space="preserve">
<style type="text/css">
	.st0{fill:#FFFFFF;}
</style>
<g>
	<g>
		<path class="st0" d="M66.4,30.2c0-2.4-1.7-4.4-4-4.9L62.2,20c0.1-2.3-0.8-4.3-2.6-5.3c-1.7-1-3.8-1-5.4,0c-1.7,1-2.6,3-2.5,5.4
			c0,0.5,0.5,0.9,1,0.9c0.5,0,0.9-0.5,0.9-1c-0.1-1.7,0.5-3,1.6-3.6c1-0.6,2.4-0.6,3.4,0c1.2,0.7,1.7,2,1.7,3.6l0.1,5.3H34
			c0-1.7-1.4-3.2-3.2-3.2H20.7c-1.8,0-3.2,1.4-3.2,3.2v0H7.4c-1.3,0-2.6,0.5-3.6,1.5c-0.9,1-1.5,2.2-1.5,3.5c0,2.4,1.7,4.4,3.9,4.9
			l0.2,13c0,4.4,3.1,8.2,7.2,9.2l-3.3,5.4c-0.3,0.5-0.1,1,0.3,1.3c0.2,0.1,0.3,0.1,0.5,0.1c0.3,0,0.7-0.2,0.8-0.5l3.7-6.1
			c0.1,0,0.2,0,0.3,0h36.8l3.8,5.9c0.2,0.3,0.5,0.4,0.8,0.4c0.2,0,0.4,0,0.5-0.2c0.5-0.3,0.6-0.9,0.3-1.3L55,57.5
			c4.3-1,7.5-4.8,7.5-9.3l-0.2-13c1-0.2,1.9-0.6,2.7-1.4C65.9,32.8,66.4,31.6,66.4,30.2z M19.5,25.2c0-0.7,0.6-1.2,1.2-1.2h10.1
			c0.7,0,1.2,0.6,1.2,1.2v0.9c0,0,0,0,0,0.1s0,0,0,0.1v11.5H19.5V25.2z M19.5,39.7H32v3.2H19.5V39.7z M4.4,30.2
			c0-0.8,0.3-1.6,0.9-2.2c0.6-0.6,1.4-0.9,2.2-0.9h10.1v6.1H7.4C5.7,33.3,4.4,31.9,4.4,30.2z M52.9,55.7H16.1
			c-4.2,0-7.6-3.4-7.6-7.6L8.3,35.2h9.3v3.4c0,0,0,0,0,0.1c0,0,0,0,0,0.1v5c0,0.5,0.4,1,1,1H33c0.5,0,1-0.4,1-1v-8.6h26.4l0.2,12.9
			C60.6,52.3,57.1,55.7,52.9,55.7z M63.6,32.4c-0.6,0.6-1.4,0.9-2.2,0.9H34v-6.1h27.4c0,0,0,0,0,0c0,0,0,0,0,0c1.7,0,3,1.4,3,3.1
			C64.5,31.1,64.1,31.8,63.6,32.4z M35.8,17.5c0,2.5,2.1,4.6,4.6,4.6c2.5,0,4.6-2.1,4.6-4.6c0-2.5-2.1-4.6-4.6-4.6
			C37.8,12.9,35.8,15,35.8,17.5z M40.4,14.9c1.5,0,2.7,1.2,2.7,2.7c0,1.5-1.2,2.7-2.7,2.7c-1.5,0-2.7-1.2-2.7-2.7
			C37.7,16.1,38.9,14.9,40.4,14.9z M36.7,12.6c1,0,1.8-0.8,1.8-1.8c0-1-0.8-1.8-1.8-1.8s-1.8,0.8-1.8,1.8
			C34.9,11.8,35.7,12.6,36.7,12.6z M36.7,10.7c0.1,0,0.2,0.1,0.2,0.1c0,0.2-0.3,0.2-0.3,0C36.6,10.7,36.6,10.7,36.7,10.7z M43.3,8.8
			c1,0,1.8-0.8,1.8-1.8c0-1-0.8-1.8-1.8-1.8c-1,0-1.8,0.8-1.8,1.8C41.5,8,42.3,8.8,43.3,8.8z M43.3,6.9c0.1,0,0.1,0.1,0.2,0.1
			c0,0.2-0.3,0.2-0.3,0C43.2,7,43.2,6.9,43.3,6.9z"/>
	</g>
</g>
</svg>
