<?xml version="1.0" encoding="utf-8"?>
<!-- Generator: Adobe Illustrator 24.3.0, SVG Export Plug-In . SVG Version: 6.00 Build 0)  -->
<svg version="1.1" id="Слой_1" xmlns="http://www.w3.org/2000/svg" xmlns:xlink="http://www.w3.org/1999/xlink" x="0px" y="0px"
	 viewBox="0 0 68.8 69.5" style="enable-background:new 0 0 68.8 69.5;" xml:space="preserve">
<style type="text/css">
	.st0{fill:#FFFFFF;}
</style>
<g>
	<g>
		<path class="st0" d="M62.3,35.8V17.1c0-4.1-3.3-7.4-7.3-7.4H13.8c-4,0-7.3,3.3-7.3,7.4v18.7c-2.4,0.9-4.1,3.3-4.1,6v16.9
			c0,0.5,0.4,1,1,1c0.5,0,1-0.4,1-1v-4h60.1v4c0,0.5,0.4,1,1,1c0.5,0,1-0.4,1-1V41.8C66.4,39.1,64.7,36.8,62.3,35.8z M8.4,17.1
			c0-3,2.4-5.4,5.4-5.4H55c3,0,5.4,2.4,5.4,5.4v18.3c-0.1,0-0.3,0-0.4,0H8.8c-0.1,0-0.3,0-0.4,0V17.1z M64.5,52.8H4.3v-11
			c0-2.5,2-4.5,4.5-4.5H60c2.5,0,4.5,2,4.5,4.5V52.8z M14,29h11.8c0.5,0,1-0.4,1-1v-8.7c0-0.5-0.4-1-1-1H14c-0.5,0-1,0.4-1,1V28
			C13,28.5,13.4,29,14,29z M14.9,20.3h9.8V27h-9.8V20.3z M43.1,29h11.8c0.5,0,1-0.4,1-1v-8.7c0-0.5-0.4-1-1-1H43.1c-0.5,0-1,0.4-1,1
			V28C42.1,28.5,42.5,29,43.1,29z M44,20.3h9.8V27H44V20.3z"/>
	</g>
</g>
</svg>
