<?xml version="1.0" encoding="utf-8"?>
<!-- Generator: Adobe Illustrator 21.0.2, SVG Export Plug-In . SVG Version: 6.00 Build 0)  -->
<svg version="1.1" id="Layer_1" xmlns="http://www.w3.org/2000/svg" xmlns:xlink="http://www.w3.org/1999/xlink" x="0px" y="0px"
	 viewBox="0 0 56 56" style="enable-background:new 0 0 56 56;" xml:space="preserve">
<style type="text/css">
	.st0{fill:none;stroke:#EAEE55;stroke-miterlimit:10;}
	.st1{fill:#3C3950;}
	.st2{fill:none;stroke:#FFA1C3;stroke-miterlimit:10;}
	.st3{fill:none;stroke:#69FF7F;stroke-miterlimit:10;}
	.st4{fill:none;stroke:#67D1FF;stroke-miterlimit:10;}
</style>
<g>
	<circle class="st2" cx="29.2" cy="29" r="18.5"/>
	<g>
		<g>
			<g>
				<path class="st1" d="M39.2,55.8c-4,0-7.1-1.9-7.1-4.4c0-1.6,1.3-3,3.5-3.8c0.2-0.1,0.5,0,0.6,0.3c0.1,0.2,0,0.5-0.3,0.6
					c-1.8,0.7-2.9,1.8-2.9,3c0,1.9,2.9,3.5,6.2,3.5c3.4,0,6.2-1.6,6.2-3.5c0-1.2-1.1-2.3-2.9-3c-0.2-0.1-0.4-0.3-0.3-0.6
					c0.1-0.2,0.3-0.4,0.6-0.3c2.2,0.8,3.5,2.2,3.5,3.8C46.3,53.8,43.2,55.8,39.2,55.8z"/>
			</g>
			<g>
				<path class="st1" d="M39.2,51.8c-0.1,0-0.2-0.1-0.3-0.1c-0.8-0.9-1.7-1.7-2.6-2.6c-3.7-3.6-7.6-7.3-7.6-12.4
					c0-5.8,4.7-10.6,10.6-10.6c5.8,0,10.6,4.7,10.6,10.6c0,5.1-4.1,9-7.6,12.4c-0.9,0.9-1.8,1.8-2.6,2.6
					C39.4,51.7,39.3,51.8,39.2,51.8L39.2,51.8z M39.2,27c-5.3,0-9.6,4.3-9.6,9.6c0,4.8,3.7,8.3,7.3,11.8c0.8,0.8,1.6,1.5,2.3,2.3
					c0.7-0.8,1.5-1.5,2.3-2.3c3.6-3.5,7.4-7.1,7.4-11.8C48.8,31.3,44.5,27,39.2,27z"/>
			</g>
			<g>
				<path class="st1" d="M39.2,40.2c-2.3,0-4.2-1.9-4.2-4.2c0-2.3,1.9-4.2,4.2-4.2c2.3,0,4.2,1.9,4.2,4.2
					C43.3,38.4,41.5,40.2,39.2,40.2z M39.2,32.8c-1.8,0-3.2,1.5-3.2,3.2c0,1.8,1.5,3.2,3.2,3.2c1.8,0,3.2-1.5,3.2-3.2
					C42.4,34.3,41,32.8,39.2,32.8z"/>
			</g>
			<g>
				<path class="st1" d="M13.9,34.9c-2.9,0-5.2-1.4-5.2-3.3c0-1.2,1-2.3,2.6-2.9c0.2-0.1,0.5,0,0.6,0.3c0.1,0.2,0,0.5-0.3,0.6
					c-1.2,0.4-2,1.2-2,2c0,1.3,2,2.4,4.3,2.4c2.3,0,4.3-1.1,4.3-2.4c0-0.8-0.8-1.6-2-2c-0.2-0.1-0.4-0.3-0.3-0.6
					c0.1-0.2,0.3-0.4,0.6-0.3c1.6,0.6,2.6,1.7,2.6,2.9C19.1,33.5,16.8,34.9,13.9,34.9z"/>
			</g>
			<g>
				<path class="st1" d="M13.9,32.1c-0.1,0-0.2-0.1-0.3-0.1c-0.6-0.6-1.2-1.2-1.9-1.9c-2.7-2.6-5.4-5.2-5.4-8.9
					c0-4.2,3.4-7.7,7.7-7.7c4.2,0,7.7,3.4,7.7,7.7c0,3.7-2.9,6.5-5.5,9c-0.7,0.6-1.3,1.2-1.9,1.9C14.1,32,14,32.1,13.9,32.1z
					 M13.9,14.3c-3.7,0-6.8,3-6.8,6.8c0,3.3,2.6,5.9,5.1,8.3c0.5,0.5,1.1,1,1.6,1.6c0.5-0.5,1-1,1.6-1.5c2.6-2.5,5.2-5,5.2-8.3
					C20.7,17.4,17.6,14.3,13.9,14.3z"/>
			</g>
			<g>
				<path class="st1" d="M13.9,23.8c-1.7,0-3.1-1.4-3.1-3.1c0-1.7,1.4-3.1,3.1-3.1c1.7,0,3.1,1.4,3.1,3.1
					C17,22.4,15.6,23.8,13.9,23.8z M13.9,18.5c-1.2,0-2.2,1-2.2,2.2c0,1.2,1,2.2,2.2,2.2c1.2,0,2.2-1,2.2-2.2
					C16.1,19.5,15.1,18.5,13.9,18.5z"/>
			</g>
			<g>
				<path class="st1" d="M30.8,16.7c-2.3,0-4.1-1.1-4.1-2.6c0-1,0.8-1.8,2-2.3c0.2-0.1,0.5,0,0.6,0.3c0.1,0.2,0,0.5-0.3,0.6
					c-0.9,0.3-1.4,0.9-1.4,1.4c0,0.9,1.4,1.7,3.1,1.7c1.7,0,3.1-0.8,3.1-1.7c0-0.5-0.6-1.1-1.4-1.4c-0.2-0.1-0.4-0.3-0.3-0.6
					c0.1-0.2,0.3-0.4,0.6-0.3c1.3,0.5,2.1,1.3,2.1,2.3C34.9,15.5,33.1,16.7,30.8,16.7z"/>
			</g>
			<g>
				<path class="st1" d="M30.8,14.5c-0.1,0-0.2-0.1-0.3-0.1C30,13.9,29.5,13.5,29,13c-1.9-1.9-4.1-4-4.1-6.8c0-3.3,2.6-5.9,5.9-5.9
					c3.3,0,5.9,2.6,5.9,5.9c0,2.8-2.2,5-4.2,6.9c-0.5,0.5-1,0.9-1.4,1.4C31,14.5,30.9,14.5,30.8,14.5z M30.8,1.2c-2.8,0-5,2.2-5,5
					c0,2.5,2,4.4,3.9,6.2c0.4,0.4,0.8,0.7,1.1,1.1c0.3-0.4,0.7-0.7,1.1-1.1c1.9-1.8,3.9-3.8,3.9-6.2C35.8,3.4,33.6,1.2,30.8,1.2z"/>
			</g>
			<g>
				<path class="st1" d="M30.8,8.3c-1.4,0-2.5-1.1-2.5-2.4s1.1-2.4,2.5-2.4c1.3,0,2.4,1.1,2.4,2.4S32.2,8.3,30.8,8.3z M30.8,4.3
					c-0.8,0-1.5,0.7-1.5,1.5s0.7,1.5,1.5,1.5c0.8,0,1.5-0.7,1.5-1.5S31.7,4.3,30.8,4.3z"/>
			</g>
			<g>
				<path class="st1" d="M18.5,31.3c-0.1,0-0.2,0-0.3-0.1c-0.2-0.2-0.2-0.5,0-0.6l12.7-14.6c0.2-0.2,0.5-0.2,0.6,0
					c0.2,0.2,0.2,0.5,0,0.6L18.8,31.1C18.7,31.2,18.6,31.3,18.5,31.3z"/>
			</g>
			<g>
				<path class="st1" d="M32.5,51.8c-0.1,0-0.2,0-0.3-0.1L13.6,34.8c-0.2-0.2-0.2-0.5,0-0.6c0.2-0.2,0.5-0.2,0.6,0L32.8,51
					c0.2,0.2,0.2,0.5,0,0.6C32.8,51.7,32.6,51.8,32.5,51.8z"/>
			</g>
		</g>
	</g>
</g>
</svg>
