<?xml version="1.0" encoding="utf-8"?>
<!-- Generator: Adobe Illustrator 21.0.2, SVG Export Plug-In . SVG Version: 6.00 Build 0)  -->
<svg version="1.1" id="Layer_1" xmlns="http://www.w3.org/2000/svg" xmlns:xlink="http://www.w3.org/1999/xlink" x="0px" y="0px"
	 viewBox="0 0 56 56" style="enable-background:new 0 0 56 56;" xml:space="preserve">
<style type="text/css">
	.st0{fill:none;stroke:#EAEE55;stroke-miterlimit:10;}
	.st1{fill:#3C3950;}
	.st2{fill:none;stroke:#FFA1C3;stroke-miterlimit:10;}
	.st3{fill:none;stroke:#69FF7F;stroke-miterlimit:10;}
	.st4{fill:none;stroke:#67D1FF;stroke-miterlimit:10;}
</style>
<g>
	<circle class="st4" cx="29.2" cy="27.3" r="18.5"/>
	<g>
		<g>
			<g>
				<path class="st1" d="M27.6,55.8c-5.7,0-11.2-2.9-14.2-8.2c-0.9-1.6-1.6-3.4-1.9-5.2l-9.7-2.7c-0.2-0.1-0.3-0.2-0.3-0.4
					c0-0.2,0.1-0.4,0.3-0.4l9.8-2.8c0.8-3.7,2.8-7,5.7-9.3c0.2-0.2,0.5-0.1,0.6,0.1c0.2,0.2,0.1,0.5-0.1,0.6
					c-2.8,2.3-4.8,5.5-5.5,9.1c0,0.2-0.2,0.3-0.3,0.4l-8.5,2.4l8.4,2.4c0.2,0,0.3,0.2,0.3,0.4c0.3,1.8,0.9,3.6,1.9,5.2
					c4.3,7.4,13.7,9.9,21.1,5.7c7.4-4.3,9.9-13.7,5.7-21.1c-2.1-3.6-5.4-6.1-9.4-7.2c-4-1.1-8.2-0.5-11.7,1.5
					c-0.2,0.1-0.5,0.1-0.6-0.2c-0.1-0.2-0.1-0.5,0.2-0.6c3.8-2.2,8.2-2.8,12.4-1.6c4.2,1.1,7.8,3.8,9.9,7.6c4.5,7.8,1.8,17.9-6,22.4
					C33.2,55.1,30.4,55.8,27.6,55.8z"/>
			</g>
			<g>
				<path class="st1" d="M29.3,33c-7.2,0-13.9-4.8-15.8-12.1c-2.3-8.7,2.9-17.7,11.6-20.1c8.7-2.3,17.7,2.9,20.1,11.6
					c0.5,1.8,0.7,3.7,0.5,5.5l8.6,5.1c0.2,0.1,0.3,0.3,0.2,0.5c-0.1,0.2-0.2,0.3-0.4,0.3l-10.1,0.1c-1,2-2.3,3.7-4,5.1
					c-0.2,0.2-0.5,0.1-0.6-0.1c-0.2-0.2-0.1-0.5,0.1-0.6c1.6-1.4,2.9-3.1,3.9-5c0.1-0.2,0.2-0.3,0.4-0.3l8.8-0.1L45,18.6
					c-0.2-0.1-0.2-0.3-0.2-0.4c0.2-1.9,0-3.7-0.5-5.5C42.1,4.4,33.6-0.5,25.3,1.7c-8.2,2.2-13.1,10.7-10.9,18.9
					c2.2,8.2,10.7,13.1,18.9,10.9c1.2-0.3,2.4-0.8,3.5-1.4c0.2-0.1,0.5,0,0.6,0.2c0.1,0.2,0,0.5-0.2,0.6c-1.2,0.6-2.4,1.1-3.7,1.5
					C32.2,32.8,30.7,33,29.3,33z"/>
			</g>
			<g>
				<path class="st1" d="M28.4,30.2c-1.2,0-2.2-1-2.2-2.2c0-1.2,1-2.2,2.2-2.2c1.2,0,2.2,1,2.2,2.2C30.6,29.2,29.6,30.2,28.4,30.2z
					 M28.4,26.7c-0.7,0-1.3,0.6-1.3,1.3c0,0.7,0.6,1.3,1.3,1.3c0.7,0,1.3-0.6,1.3-1.3C29.7,27.3,29.1,26.7,28.4,26.7z"/>
			</g>
			<g>
				<path class="st1" d="M35.7,11.2H22.3c-0.3,0-0.5-0.2-0.5-0.5c0-0.3,0.2-0.5,0.5-0.5h13.4c0.3,0,0.5,0.2,0.5,0.5
					C36.1,11,35.9,11.2,35.7,11.2z"/>
			</g>
			<g>
				<path class="st1" d="M32.1,14.4H18.7c-0.3,0-0.5-0.2-0.5-0.5s0.2-0.5,0.5-0.5h13.4c0.3,0,0.5,0.2,0.5,0.5S32.3,14.4,32.1,14.4z"
					/>
			</g>
			<g>
				<path class="st1" d="M39.5,44.5H26.2c-0.3,0-0.5-0.2-0.5-0.5c0-0.3,0.2-0.5,0.5-0.5h13.4c0.3,0,0.5,0.2,0.5,0.5
					C40,44.3,39.8,44.5,39.5,44.5z"/>
			</g>
			<g>
				<path class="st1" d="M35.9,47.6H22.6c-0.3,0-0.5-0.2-0.5-0.5c0-0.3,0.2-0.5,0.5-0.5h13.4c0.3,0,0.5,0.2,0.5,0.5
					C36.4,47.4,36.2,47.6,35.9,47.6z"/>
			</g>
		</g>
	</g>
</g>
</svg>
