<svg xmlns="http://www.w3.org/2000/svg" width="46" height="46" viewBox="0 0 46 46" fill="none"><rect width="46" height="46" rx="12" fill="#00CB8E"></rect><mask id="path-2-inside-1_5282_3055" fill="white"><path d="M26.2363 32.3827H26.0435C25.9827 32.3581 25.9278 32.321 25.8824 32.2738C25.8369 32.2266 25.8019 32.1703 25.7796 32.1087L23.5269 26.2231C23.4356 25.9796 23.5573 25.7056 23.7907 25.6041C24.5112 25.3403 25.0896 24.772 25.394 24.0922C26.0435 22.6411 25.394 20.9464 23.9429 20.297C22.4918 19.6476 20.7972 20.297 20.1478 21.7278C19.8433 22.4483 19.823 23.2499 20.097 23.9501C20.4015 24.701 21.0002 25.2794 21.7612 25.5635C22.0048 25.6549 22.1367 25.9289 22.0453 26.1825L19.7317 32.0681C19.6911 32.1899 19.5998 32.2913 19.478 32.3421C19.3563 32.3827 19.2243 32.3827 19.1127 32.3421C13.8868 30.3227 11.2788 24.4473 13.2982 19.2214C15.3176 13.9954 21.193 11.3875 26.4189 13.4068C28.9254 14.381 30.9447 16.2989 32.0406 18.7546C32.5879 19.9703 32.8877 21.2828 32.9225 22.6156C32.9573 23.9484 32.7266 25.2747 32.2436 26.5174C31.2187 29.2166 29.0979 31.3679 26.4088 32.3827H26.2363ZM22.776 13.7011C17.7327 13.5692 13.5417 17.5572 13.4098 22.6005C13.3648 24.4445 13.8787 26.259 14.8838 27.8056C15.8889 29.3522 17.3383 30.5587 19.0417 31.2664L20.9596 26.2942C19.1026 25.2794 18.4024 22.9658 19.407 21.1088C19.8911 20.2177 20.7081 19.5543 21.6796 19.2635C22.6511 18.9726 23.6982 19.0778 24.5924 19.5562C25.1995 19.8848 25.7065 20.3713 26.0599 20.9643C26.4133 21.5574 26.5998 22.2349 26.5998 22.9252C26.5998 23.6155 26.4133 24.293 26.0599 24.8861C25.7065 25.4791 25.1995 25.9656 24.5924 26.2942L26.5102 31.2969C28.7242 30.3057 30.4593 28.4832 31.3405 26.2231C33.2076 21.535 30.9346 16.2278 26.2464 14.3506C25.1421 13.9129 23.9638 13.6924 22.776 13.7011Z"></path></mask><path d="M26.2363 32.3827H26.0435C25.9827 32.3581 25.9278 32.321 25.8824 32.2738C25.8369 32.2266 25.8019 32.1703 25.7796 32.1087L23.5269 26.2231C23.4356 25.9796 23.5573 25.7056 23.7907 25.6041C24.5112 25.3403 25.0896 24.772 25.394 24.0922C26.0435 22.6411 25.394 20.9464 23.9429 20.297C22.4918 19.6476 20.7972 20.297 20.1478 21.7278C19.8433 22.4483 19.823 23.2499 20.097 23.9501C20.4015 24.701 21.0002 25.2794 21.7612 25.5635C22.0048 25.6549 22.1367 25.9289 22.0453 26.1825L19.7317 32.0681C19.6911 32.1899 19.5998 32.2913 19.478 32.3421C19.3563 32.3827 19.2243 32.3827 19.1127 32.3421C13.8868 30.3227 11.2788 24.4473 13.2982 19.2214C15.3176 13.9954 21.193 11.3875 26.4189 13.4068C28.9254 14.381 30.9447 16.2989 32.0406 18.7546C32.5879 19.9703 32.8877 21.2828 32.9225 22.6156C32.9573 23.9484 32.7266 25.2747 32.2436 26.5174C31.2187 29.2166 29.0979 31.3679 26.4088 32.3827H26.2363ZM22.776 13.7011C17.7327 13.5692 13.5417 17.5572 13.4098 22.6005C13.3648 24.4445 13.8787 26.259 14.8838 27.8056C15.8889 29.3522 17.3383 30.5587 19.0417 31.2664L20.9596 26.2942C19.1026 25.2794 18.4024 22.9658 19.407 21.1088C19.8911 20.2177 20.7081 19.5543 21.6796 19.2635C22.6511 18.9726 23.6982 19.0778 24.5924 19.5562C25.1995 19.8848 25.7065 20.3713 26.0599 20.9643C26.4133 21.5574 26.5998 22.2349 26.5998 22.9252C26.5998 23.6155 26.4133 24.293 26.0599 24.8861C25.7065 25.4791 25.1995 25.9656 24.5924 26.2942L26.5102 31.2969C28.7242 30.3057 30.4593 28.4832 31.3405 26.2231C33.2076 21.535 30.9346 16.2278 26.2464 14.3506C25.1421 13.9129 23.9638 13.6924 22.776 13.7011Z" fill="white"></path><path d="M26.0435 32.3827L24.5205 36.1451L25.2531 36.4417H26.0435V32.3827ZM25.7796 32.1087L29.5968 30.7287L29.584 30.6931L29.5704 30.6577L25.7796 32.1087ZM23.5269 26.2231L19.7263 27.6483L19.7312 27.6612L19.7361 27.6741L23.5269 26.2231ZM23.7907 25.6041L22.395 21.7927L22.2823 21.8339L22.1723 21.8818L23.7907 25.6041ZM25.394 24.0922L29.0986 25.7509L29.0989 25.7503L25.394 24.0922ZM20.1478 21.7278L16.4517 20.0501L16.4296 20.0988L16.4088 20.148L20.1478 21.7278ZM20.097 23.9501L16.3171 25.4292L16.3261 25.4522L16.3354 25.4751L20.097 23.9501ZM21.7612 25.5635L23.1864 21.763L23.1809 21.7609L21.7612 25.5635ZM22.0453 26.1825L25.8229 27.6675L25.8445 27.6128L25.8644 27.5574L22.0453 26.1825ZM19.7317 32.0681L15.9541 30.5831L15.9149 30.6829L15.881 30.7845L19.7317 32.0681ZM19.478 32.3421L20.7616 36.1928L20.9023 36.1459L21.0392 36.0888L19.478 32.3421ZM19.1127 32.3421L17.6497 36.1282L17.6875 36.1429L17.7256 36.1567L19.1127 32.3421ZM26.4189 13.4068L27.8894 9.62354L27.8819 9.62067L26.4189 13.4068ZM32.0406 18.7546L28.334 20.4088L28.3393 20.4207L32.0406 18.7546ZM32.2436 26.5174L28.4603 25.047L28.4545 25.0618L28.4489 25.0766L32.2436 26.5174ZM26.4088 32.3827V36.4417H27.1491L27.8418 36.1803L26.4088 32.3827ZM22.776 13.7011L22.6698 17.7587L22.7378 17.7605L22.8059 17.76L22.776 13.7011ZM13.4098 22.6005L9.3522 22.4943L9.35203 22.5015L13.4098 22.6005ZM19.0417 31.2664L17.4842 35.0147L21.33 36.6128L22.8287 32.7272L19.0417 31.2664ZM20.9596 26.2942L24.7466 27.7549L26.0262 24.4374L22.906 22.7323L20.9596 26.2942ZM19.407 21.1088L15.8404 19.171L15.8369 19.1774L19.407 21.1088ZM24.5924 19.5562L26.5243 15.9865L26.5157 15.9818L26.5072 15.9773L24.5924 19.5562ZM26.5998 22.9252H22.5408H26.5998ZM24.5924 26.2942L22.6605 22.7244L19.5269 24.4202L20.8023 27.7471L24.5924 26.2942ZM26.5102 31.2969L22.7202 32.7499L24.2551 36.7537L28.1688 35.0016L26.5102 31.2969ZM31.3405 26.2231L27.5695 24.7213L27.5641 24.735L27.5587 24.7487L31.3405 26.2231ZM26.2464 14.3506L27.7553 10.5824L27.7486 10.5798L27.742 10.5771L26.2464 14.3506ZM26.2363 28.3237H26.0435V36.4417H26.2363V28.3237ZM27.5665 28.6202C28.034 28.8095 28.4563 29.095 28.8062 29.4583L22.9586 35.0893C23.3993 35.5469 23.9315 35.9067 24.5205 36.1451L27.5665 28.6202ZM28.8062 29.4583C29.156 29.8215 29.4254 30.2544 29.5968 30.7287L21.9624 33.4887C22.1784 34.0862 22.5179 34.6316 22.9586 35.0893L28.8062 29.4583ZM29.5704 30.6577L27.3177 24.7722L19.7361 27.6741L21.9888 33.5596L29.5704 30.6577ZM27.3274 24.7979C28.0123 26.6241 27.1114 28.5864 25.4091 29.3265L22.1723 21.8818C20.0032 22.8248 18.8589 25.3351 19.7263 27.6483L27.3274 24.7979ZM25.1865 29.4156C26.9963 28.7529 28.3737 27.3698 29.0986 25.7509L21.6894 22.4334C21.8055 22.1743 22.0261 21.9277 22.395 21.7927L25.1865 29.4156ZM29.0989 25.7503C30.6668 22.2471 29.0923 18.1546 25.6011 16.5921L22.2848 24.0019C21.6957 23.7382 21.4201 23.0351 21.6891 22.434L29.0989 25.7503ZM25.6011 16.5921C22.1096 15.0295 18.0234 16.5875 16.4517 20.0501L23.8438 23.4054C23.571 24.0065 22.8741 24.2656 22.2848 24.0019L25.6011 16.5921ZM16.4088 20.148C15.7155 21.7887 15.6361 23.6888 16.3171 25.4292L23.8769 22.471C24.01 22.811 23.9711 23.1078 23.8867 23.3076L16.4088 20.148ZM16.3354 25.4751C17.0715 27.2908 18.5265 28.6886 20.3416 29.3662L23.1809 21.7609C23.4738 21.8703 23.7314 22.1113 23.8587 22.4251L16.3354 25.4751ZM20.336 29.3641C18.5199 28.6831 17.5583 26.6633 18.2263 24.8077L25.8644 27.5574C26.7151 25.1944 25.4896 22.6267 23.1864 21.763L20.336 29.3641ZM18.2677 24.6976L15.9541 30.5831L23.5093 33.5531L25.8229 27.6675L18.2677 24.6976ZM15.881 30.7845C16.2008 29.8252 16.9241 29.009 17.9169 28.5953L21.0392 36.0888C22.2755 35.5737 23.1815 34.5545 23.5824 33.3517L15.881 30.7845ZM18.1945 28.4914C18.8666 28.2673 19.6795 28.2291 20.4999 28.5275L17.7256 36.1567C18.7692 36.5362 19.8459 36.498 20.7616 36.1928L18.1945 28.4914ZM20.5757 28.5559C17.436 27.3427 15.8749 23.8145 17.0844 20.6844L9.51203 17.7584C6.68284 25.0801 10.3375 33.3027 17.6497 36.1282L20.5757 28.5559ZM17.0844 20.6844C18.2976 17.5447 21.8258 15.9835 24.9559 17.193L27.8819 9.62067C20.5602 6.79148 12.3375 10.4461 9.51203 17.7584L17.0844 20.6844ZM24.9485 17.1901C26.4617 17.7783 27.6754 18.9331 28.334 20.4088L35.7473 17.1004C34.214 13.6646 31.389 10.9837 27.8893 9.62355L24.9485 17.1901ZM28.3393 20.4207C28.6655 21.1452 28.8441 21.9274 28.8649 22.7217L36.9801 22.5095C36.9312 20.6382 36.5103 18.7954 35.7419 17.0885L28.3393 20.4207ZM28.8649 22.7217C28.8857 23.516 28.7481 24.3064 28.4603 25.047L36.0269 27.9878C36.705 26.2431 37.029 24.3808 36.9801 22.5095L28.8649 22.7217ZM28.4489 25.0766C27.8268 26.715 26.5495 27.9912 24.9757 28.5851L27.8418 36.1803C31.6462 34.7446 34.6106 31.7183 36.0382 27.9582L28.4489 25.0766ZM26.4088 28.3237H26.2363V36.4417H26.4088V28.3237ZM22.8821 9.64351C15.5915 9.45281 9.54258 15.2164 9.35221 22.4943L17.4674 22.7066C17.5409 19.8979 19.8738 17.6856 22.6698 17.7587L22.8821 9.64351ZM9.35203 22.5015C9.28708 25.1641 10.029 27.7842 11.4804 30.0174L18.2872 25.5938C17.7283 24.7338 17.4426 23.7248 17.4676 22.6995L9.35203 22.5015ZM11.4804 30.0174C12.9317 32.2507 15.0246 33.9927 17.4842 35.0147L20.5992 27.5182C19.6521 27.1246 18.8461 26.4538 18.2872 25.5938L11.4804 30.0174ZM22.8287 32.7272L24.7466 27.7549L17.1725 24.8334L15.2546 29.8057L22.8287 32.7272ZM22.906 22.7323C22.9805 22.773 23.052 22.9016 22.9771 23.0401L15.8369 19.1774C13.7528 23.03 15.2247 27.7858 19.0132 29.8561L22.906 22.7323ZM22.9736 23.0466C22.9459 23.0974 22.8993 23.1353 22.8438 23.1519L20.5153 15.375C18.5169 15.9734 16.8363 17.338 15.8404 19.171L22.9736 23.0466ZM22.8438 23.1519C22.7884 23.1685 22.7286 23.1625 22.6776 23.1352L26.5072 15.9773C24.6678 14.9932 22.5138 14.7767 20.5153 15.375L22.8438 23.1519ZM22.6605 23.126C22.6243 23.1064 22.5941 23.0774 22.573 23.0421L29.5468 18.8866C28.819 17.6652 27.7747 16.6632 26.5243 15.9865L22.6605 23.126ZM22.573 23.0421C22.5519 23.0067 22.5408 22.9663 22.5408 22.9252H30.6588C30.6588 21.5034 30.2746 20.108 29.5468 18.8866L22.573 23.0421ZM22.5408 22.9252C22.5408 22.8841 22.5519 22.8437 22.573 22.8083L29.5468 26.9638C30.2746 25.7424 30.6588 24.347 30.6588 22.9252H22.5408ZM22.573 22.8083C22.5941 22.773 22.6243 22.744 22.6605 22.7244L26.5243 29.8639C27.7747 29.1872 28.819 28.1852 29.5468 26.9638L22.573 22.8083ZM20.8023 27.7471L22.7202 32.7499L30.3003 29.8439L28.3824 24.8412L20.8023 27.7471ZM28.1688 35.0016C31.356 33.5747 33.8537 30.951 35.1222 27.6976L27.5587 24.7487C27.0649 26.0153 26.0925 27.0367 24.8517 27.5922L28.1688 35.0016ZM35.1114 27.725C37.8059 20.9594 34.5242 13.2929 27.7553 10.5824L24.7375 18.1187C27.3449 19.1628 28.6093 22.1106 27.5695 24.7213L35.1114 27.725ZM27.742 10.5771C26.1523 9.94708 24.456 9.62964 22.7461 9.64223L22.8059 17.76C23.4716 17.7551 24.1319 17.8787 24.7508 18.124L27.742 10.5771Z" fill="white" mask="url(#path-2-inside-1_5282_3055)"></path></svg>