<svg xmlns="http://www.w3.org/2000/svg" width="46" height="46" viewBox="0 0 46 46" fill="none"><rect width="46" height="46" rx="12" fill="#E05DE3"></rect><path d="M19.7584 29.227L19.7595 29.227L22.94 29.9931C23.9099 30.4781 24.9793 30.7306 26.0637 30.7306C27.1481 30.7306 28.2176 30.4781 29.1874 29.9931C29.1875 29.9931 29.1875 29.9931 29.1875 29.9931L30.1992 29.4873L30.1992 29.4874L29.1872 29.9938C28.2174 30.4787 27.148 30.7312 26.0637 30.7312C24.9794 30.7312 23.9101 30.4787 22.9403 29.9938L22.9402 29.9938L22.8821 29.9647C22.8821 29.9647 22.8821 29.9647 22.882 29.9647C21.9122 29.4796 20.8427 29.227 19.7584 29.227ZM22.8818 29.9641L22.94 29.9931L19.7595 29.227C20.8434 29.2271 21.9123 29.4794 22.8818 29.964C22.8818 29.964 22.8818 29.964 22.8818 29.9641ZM18.1255 29.773C17.7741 30.1224 17.3453 30.3875 16.8716 30.5454L16.5612 30.6486L16.8719 30.545C17.3459 30.3868 17.7743 30.1217 18.1255 29.773ZM18.5815 29.227L18.4357 29.4163C18.4473 29.4007 18.4589 29.385 18.4702 29.3693C18.8665 28.8194 19.0797 28.1588 19.0797 27.481C19.0797 27.8231 19.0263 28.1552 18.9261 28.4667L18.6815 29.227L18.5815 29.227Z" fill="white" stroke="white" stroke-width="1.164"></path></svg>