<svg xmlns="http://www.w3.org/2000/svg" width="46" height="46" viewBox="0 0 46 46" fill="none"><rect width="46" height="46" rx="12" fill="#8E57D4"></rect><path d="M21.2175 29.2379L21.2172 29.2377C19.8191 28.147 18.8545 26.7674 18.3147 25.0875L18.2532 24.8961L18.461 25.4442C19.0398 26.9707 20.0002 28.2531 21.3303 29.2864C22.5577 30.2399 24.0146 30.7542 25.6784 30.8454C23.944 30.7516 22.4641 30.2115 21.2175 29.2379ZM18.2409 24.7128L18.1145 24.0688C18.0413 23.6959 18.0066 23.2584 18.0154 22.7523C18.0245 22.2347 18.0592 21.7958 18.1169 21.432L18.2157 20.8086L18.2494 20.8086L18.1622 21.2421C18.067 21.7158 18.024 22.2399 18.0285 22.8109C18.033 23.3748 18.0756 23.8687 18.1632 24.2842L18.2536 24.7128H18.2409ZM18.4027 20.2901C18.9372 18.674 19.8761 17.3414 21.228 16.2817C22.5328 15.2589 24.0986 14.7144 25.9507 14.664C24.1726 14.713 22.6237 15.2304 21.3304 16.2349C20 17.2682 19.0456 18.5521 18.48 20.0812L18.4027 20.2901Z" fill="white" stroke="white" stroke-width="1.08"></path></svg>