<svg xmlns="http://www.w3.org/2000/svg" width="46" height="46" viewBox="0 0 46 46" fill="none"><rect width="46" height="46" rx="12" fill="#0076CB"></rect><path d="M17.1178 29.8489C17.3912 29.8452 17.6633 29.8868 17.9229 29.972L17.9204 29.9713C17.6568 29.9049 17.388 29.864 17.1178 29.8489ZM16.3062 29.8738C16.3305 29.8733 16.354 29.8728 16.3769 29.8721C16.3439 29.8761 16.311 29.8804 16.2781 29.8851L16.2582 29.8879L16.2385 29.8924C15.8958 29.9702 15.5404 29.974 15.196 29.9038C15.1537 29.8951 15.1117 29.8854 15.07 29.8746C15.1465 29.8858 15.2203 29.8927 15.2889 29.8973C15.6149 29.9192 15.9832 29.8954 16.3062 29.8738ZM13.9347 28.5389C13.9387 28.5991 13.9445 28.6634 13.9533 28.7299C13.9462 28.7005 13.9396 28.671 13.9336 28.6414C13.8633 28.297 13.8672 27.9416 13.945 27.5988L13.9494 27.5792L13.9523 27.5592C13.953 27.5543 13.9537 27.5494 13.9544 27.5444C13.935 27.861 13.9134 28.2205 13.9347 28.5389ZM13.9291 26.2109C13.9956 26.5581 14.0141 26.9132 13.9838 27.2661C14.0095 26.9135 13.9911 26.559 13.9291 26.2109ZM12.8145 24.6709C13.1718 24.9359 13.4772 25.2633 13.7164 25.6366C13.4692 25.2688 13.1648 24.9428 12.8145 24.6709ZM12.7759 24.6403L12.7848 24.6481C12.7769 24.642 12.769 24.636 12.761 24.6301C12.4346 24.3445 12.132 24.077 11.9045 23.7835C11.6792 23.4928 11.5585 23.2148 11.5585 22.9184C11.5585 22.6876 11.6314 22.4681 11.7696 22.2453C11.6509 22.439 11.5605 22.6652 11.5605 22.9154C11.5605 23.323 11.8003 23.6668 12.0118 23.9105C12.2324 24.1648 12.5168 24.4136 12.765 24.6307L12.7759 24.6403ZM13.6476 20.2987C13.4569 20.5752 13.2289 20.8244 12.9698 21.0391C13.2248 20.8206 13.4524 20.572 13.6476 20.2987ZM13.9638 18.3644C14.0213 18.7832 14.0095 19.2076 13.9299 19.6207C14.0035 19.2048 14.0148 18.7797 13.9632 18.3596L13.9638 18.3644ZM13.9603 18.3295L13.9613 18.3443C13.9584 18.3221 13.9555 18.2999 13.9523 18.2777L13.9494 18.2577L13.945 18.238C13.8672 17.8953 13.8633 17.5399 13.9336 17.1955C13.9406 17.1609 13.9484 17.1265 13.9569 17.0923C13.9465 17.1659 13.94 17.237 13.9357 17.3031C13.9143 17.6278 13.9383 17.9949 13.9593 18.3149L13.9603 18.3295ZM14.3053 16.3086C14.3052 16.3086 14.3051 16.3087 14.3051 16.3088C14.3056 16.3079 14.3062 16.3071 14.3067 16.3063C14.3077 16.3057 14.3086 16.305 14.3095 16.3044C14.3081 16.3058 14.3067 16.3072 14.3053 16.3086ZM14.9783 15.987C15.0503 15.9652 15.1234 15.9466 15.1973 15.9314C15.5421 15.8602 15.8981 15.8628 16.2419 15.939L16.2593 15.9429L16.2768 15.9455C16.8238 16.0262 17.3813 15.9995 17.918 15.8671L17.9928 15.8486L18.0584 15.8083C18.5037 15.535 18.8934 15.1802 19.2072 14.7626C19.4926 14.4363 19.7605 14.1336 20.0542 13.906C20.3451 13.6806 20.6231 13.5599 20.9189 13.5599C21.2153 13.5599 21.4934 13.6803 21.7839 13.9051C22.0773 14.1321 22.3453 14.4349 22.6303 14.7621C22.9444 15.1804 23.3346 15.5357 23.7805 15.8094L23.8451 15.849L23.9185 15.8675C24.4544 16.0024 25.0115 16.0317 25.5586 15.9538L25.5774 15.9511L25.596 15.947C25.9397 15.8707 26.2957 15.8681 26.6406 15.9393C26.6835 15.9482 26.7262 15.9582 26.7685 15.9692C26.6877 15.957 26.6095 15.9496 26.5373 15.9447C26.2068 15.9225 25.8335 15.9475 25.5084 15.9698L25.4908 15.971L25.4733 15.9734C24.9279 16.0502 24.3726 16.0093 23.8446 15.8538C23.3819 15.5991 22.9796 15.2471 22.6654 14.822L22.6534 14.8058L22.6402 14.7907L22.6306 14.7797C22.414 14.5316 22.1656 14.2471 21.9114 14.0263C21.6677 13.8145 21.324 13.5748 20.916 13.5748C20.5079 13.5748 20.1642 13.8145 19.9205 14.0263C19.6663 14.2471 19.4179 14.5316 19.2013 14.7797L19.1917 14.7907L19.1785 14.8058L19.1665 14.822C18.8523 15.2471 18.45 15.5991 17.9873 15.8538C17.459 16.0094 16.9034 16.0503 16.3577 15.9734L16.3384 15.9707L16.3189 15.9695L16.298 15.9683C15.9802 15.9488 15.6174 15.9266 15.296 15.9481C15.1981 15.9546 15.0897 15.9658 14.9783 15.987ZM27.5317 16.3146C27.5317 16.3146 27.5317 16.3146 27.5317 16.3146C27.5317 16.3146 27.5317 16.3146 27.5317 16.3146C27.5317 16.3146 27.5317 16.3146 27.5317 16.3146ZM27.8922 17.3046C27.8858 17.2086 27.875 17.1023 27.8544 16.993C27.8753 17.0625 27.8931 17.133 27.9078 17.2043C27.979 17.5489 27.9758 17.9046 27.8986 18.2479L27.8943 18.2671L27.8915 18.2866C27.8135 18.8338 27.8428 19.3908 27.9778 19.9267L27.9963 20.0002L28.0359 20.0648C28.3095 20.5105 28.6646 20.9006 29.0827 21.2146C29.409 21.5001 29.7117 21.7679 29.9392 22.0616C30.1646 22.3525 30.2853 22.6305 30.2853 22.9263C30.2853 23.2225 30.1648 23.5006 29.9398 23.7913C29.7126 24.0847 29.4098 24.3527 29.083 24.6379C28.6652 24.9517 28.3103 25.3415 28.0369 25.7868L27.9973 25.8514L27.9788 25.9249C27.8437 26.4612 27.8144 27.0186 27.8925 27.5661L27.8953 27.5856L27.8996 27.6048C27.9768 27.948 27.98 28.3038 27.9088 28.6484C27.8947 28.7168 27.8777 28.7844 27.858 28.8511C27.8779 28.7442 27.8885 28.6403 27.8948 28.5464C27.917 28.2163 27.8924 27.8433 27.8706 27.5185L27.8694 27.5005L27.8669 27.4826C27.79 26.9369 27.8309 26.3813 27.9865 25.853C28.2412 25.3903 28.5932 24.988 29.0183 24.6738L29.0345 24.6618L29.0496 24.6486L29.0606 24.639C29.3087 24.4224 29.5933 24.174 29.814 23.9198C30.0258 23.6761 30.2655 23.3324 30.2655 22.9244C30.2655 22.5163 30.0258 22.1726 29.814 21.9289C29.5933 21.6747 29.3087 21.4263 29.0606 21.2097L29.0496 21.2001L29.0345 21.1869L29.0183 21.1749C28.5932 20.8607 28.2413 20.4584 27.9865 19.9957C27.831 19.4677 27.7901 18.9124 27.8669 18.367L27.8696 18.3477L27.8708 18.3283L27.8721 18.3071C27.8915 17.9889 27.9137 17.6259 27.8922 17.3046ZM27.5275 29.5393C27.5321 29.5347 27.5367 29.5301 27.5412 29.5254C27.5385 29.5294 27.5358 29.5335 27.5331 29.5375C27.5292 29.5401 27.5254 29.5427 27.5215 29.5452C27.5235 29.5433 27.5255 29.5413 27.5275 29.5393ZM26.5362 29.902C26.6171 29.8966 26.7053 29.8881 26.7964 29.8733C26.7456 29.8871 26.6943 29.8993 26.6425 29.9098C26.2978 29.9801 25.9421 29.9768 25.5989 29.9L25.5799 29.8957L25.5607 29.893C25.0132 29.8149 24.4558 29.8442 23.9195 29.9792L23.846 29.9977L23.7815 30.0374C23.3361 30.3107 22.9463 30.6655 22.6325 31.0831C22.3456 31.4074 22.0794 31.7076 21.7863 31.934C21.4963 32.158 21.2181 32.2789 20.9189 32.2789C20.6942 32.2789 20.4799 32.2095 20.2626 32.0778C20.4523 32.1911 20.6723 32.2759 20.915 32.2759C21.323 32.2759 21.6667 32.0362 21.9105 31.8245C22.1636 31.6047 22.4113 31.3216 22.6277 31.0743L22.6398 31.0604L22.6533 31.045L22.6655 31.0285C22.9796 30.6031 23.3819 30.2509 23.8447 29.9959C24.3726 29.8404 24.9279 29.7995 25.4733 29.8763L25.4926 29.879L25.5121 29.8802L25.5391 29.8818C25.856 29.9012 26.2169 29.9232 26.5362 29.902ZM18.3082 30.1957C18.5773 30.3826 18.8203 30.6049 19.0306 30.8569C18.8167 30.6088 18.5742 30.3869 18.3082 30.1957Z" fill="white" stroke="white" stroke-width="0.99"></path><mask id="path-3-inside-1_5282_3043" fill="white"><path d="M23.3941 24.4055C23.3925 24.9302 23.1834 25.4329 22.8124 25.8039C22.4414 26.1748 21.9387 26.3839 21.4141 26.3855V27.3854C21.4115 27.515 21.3582 27.6383 21.2657 27.729C21.1731 27.8197 21.0487 27.8705 20.9191 27.8705C20.8546 27.8718 20.7904 27.8603 20.7304 27.8365C20.6704 27.8127 20.6158 27.7772 20.5697 27.732C20.5236 27.6868 20.4869 27.6329 20.4619 27.5734C20.4369 27.5139 20.4241 27.45 20.4241 27.3854V26.3855H19.1866C19.0553 26.3855 18.9294 26.3334 18.8366 26.2405C18.7437 26.1477 18.6916 26.0218 18.6916 25.8905C18.6916 25.7592 18.7437 25.6333 18.8366 25.5405C18.9294 25.4477 19.0553 25.3955 19.1866 25.3955H21.4141C21.6767 25.3955 21.9285 25.2912 22.1141 25.1055C22.2998 24.9199 22.4041 24.6681 22.4041 24.4055C22.4041 24.1429 22.2998 23.8911 22.1141 23.7055C21.9285 23.5198 21.6767 23.4155 21.4141 23.4155H20.4241C19.899 23.4155 19.3953 23.2069 19.024 22.8356C18.6527 22.4643 18.4441 21.9606 18.4441 21.4355C18.4441 20.9104 18.6527 20.4068 19.024 20.0354C19.3953 19.6641 19.899 19.4555 20.4241 19.4555V18.419C20.4266 18.3569 20.4415 18.2959 20.4678 18.2395C20.4942 18.1832 20.5315 18.1327 20.5776 18.091C20.6236 18.0492 20.6776 18.0171 20.7362 17.9964C20.7949 17.9757 20.857 17.9669 20.9191 17.9705C21.0435 17.9651 21.1651 18.0087 21.2577 18.092C21.3503 18.1754 21.4064 18.2917 21.4141 18.416V19.4555H22.6516C22.7829 19.4555 22.9088 19.5077 23.0016 19.6005C23.0944 19.6933 23.1466 19.8192 23.1466 19.9505C23.1441 20.081 23.0911 20.2054 22.9988 20.2977C22.9065 20.39 22.7821 20.443 22.6516 20.4455H20.4241C20.1615 20.4455 19.9097 20.5498 19.7241 20.7355C19.5384 20.9211 19.4341 21.1729 19.4341 21.4355C19.4341 21.6981 19.5384 21.9499 19.7241 22.1355C19.9097 22.3212 20.1615 22.4255 20.4241 22.4255H21.4141C21.9392 22.4255 22.4428 22.6341 22.8142 23.0054C23.1855 23.3768 23.3941 23.8804 23.3941 24.4055Z"></path></mask><path d="M23.3941 24.4055C23.3925 24.9302 23.1834 25.4329 22.8124 25.8039C22.4414 26.1748 21.9387 26.3839 21.4141 26.3855V27.3854C21.4115 27.515 21.3582 27.6383 21.2657 27.729C21.1731 27.8197 21.0487 27.8705 20.9191 27.8705C20.8546 27.8718 20.7904 27.8603 20.7304 27.8365C20.6704 27.8127 20.6158 27.7772 20.5697 27.732C20.5236 27.6868 20.4869 27.6329 20.4619 27.5734C20.4369 27.5139 20.4241 27.45 20.4241 27.3854V26.3855H19.1866C19.0553 26.3855 18.9294 26.3334 18.8366 26.2405C18.7437 26.1477 18.6916 26.0218 18.6916 25.8905C18.6916 25.7592 18.7437 25.6333 18.8366 25.5405C18.9294 25.4477 19.0553 25.3955 19.1866 25.3955H21.4141C21.6767 25.3955 21.9285 25.2912 22.1141 25.1055C22.2998 24.9199 22.4041 24.6681 22.4041 24.4055C22.4041 24.1429 22.2998 23.8911 22.1141 23.7055C21.9285 23.5198 21.6767 23.4155 21.4141 23.4155H20.4241C19.899 23.4155 19.3953 23.2069 19.024 22.8356C18.6527 22.4643 18.4441 21.9606 18.4441 21.4355C18.4441 20.9104 18.6527 20.4068 19.024 20.0354C19.3953 19.6641 19.899 19.4555 20.4241 19.4555V18.419C20.4266 18.3569 20.4415 18.2959 20.4678 18.2395C20.4942 18.1832 20.5315 18.1327 20.5776 18.091C20.6236 18.0492 20.6776 18.0171 20.7362 17.9964C20.7949 17.9757 20.857 17.9669 20.9191 17.9705C21.0435 17.9651 21.1651 18.0087 21.2577 18.092C21.3503 18.1754 21.4064 18.2917 21.4141 18.416V19.4555H22.6516C22.7829 19.4555 22.9088 19.5077 23.0016 19.6005C23.0944 19.6933 23.1466 19.8192 23.1466 19.9505C23.1441 20.081 23.0911 20.2054 22.9988 20.2977C22.9065 20.39 22.7821 20.443 22.6516 20.4455H20.4241C20.1615 20.4455 19.9097 20.5498 19.7241 20.7355C19.5384 20.9211 19.4341 21.1729 19.4341 21.4355C19.4341 21.6981 19.5384 21.9499 19.7241 22.1355C19.9097 22.3212 20.1615 22.4255 20.4241 22.4255H21.4141C21.9392 22.4255 22.4428 22.6341 22.8142 23.0054C23.1855 23.3768 23.3941 23.8804 23.3941 24.4055Z" fill="white"></path><path d="M23.3941 24.4055L24.3841 24.4085V24.4055H23.3941ZM21.4141 26.3855L21.4111 25.3955L20.4241 25.3985V26.3855H21.4141ZM21.4141 27.3854L22.4039 27.4052L22.4041 27.3953V27.3854H21.4141ZM20.9191 27.8705L20.9193 26.8805L20.9091 26.8805L20.8989 26.8807L20.9191 27.8705ZM20.4619 27.5734L21.3747 27.19L20.4619 27.5734ZM20.4241 27.3854L21.4141 27.3856V27.3854H20.4241ZM20.4241 26.3855H21.4141V25.3955H20.4241V26.3855ZM20.4241 19.4555V20.4455H21.4141V19.4555H20.4241ZM20.4241 18.419L19.4349 18.3788L19.4341 18.3989V18.419H20.4241ZM20.4678 18.2395L21.3645 18.6591L20.4678 18.2395ZM20.9191 17.9705L20.8618 18.9589L20.912 18.9618L20.9622 18.9596L20.9191 17.9705ZM21.4141 18.416H22.4041V18.3855L22.4022 18.3551L21.4141 18.416ZM21.4141 19.4555H20.4241V20.4455H21.4141V19.4555ZM23.1466 19.9505L24.1364 19.9697L24.1366 19.9601V19.9505H23.1466ZM22.6516 20.4455V21.4355H22.6612L22.6708 21.4353L22.6516 20.4455ZM22.4041 24.4026C22.4033 24.6657 22.2984 24.9178 22.1124 25.1038L23.5125 26.5039C24.0684 25.948 24.3817 25.1947 24.3841 24.4085L22.4041 24.4026ZM22.1124 25.1038C21.9264 25.2899 21.6742 25.3947 21.4111 25.3955L21.417 27.3755C22.2032 27.3732 22.9565 27.0598 23.5125 26.5039L22.1124 25.1038ZM20.4241 26.3855V27.3854H22.4041V26.3855H20.4241ZM20.4243 27.3656C20.4269 27.2361 20.4802 27.1127 20.5727 27.022L21.9586 28.4361C22.2362 28.164 22.3961 27.7939 22.4039 27.4052L20.4243 27.3656ZM20.5727 27.022C20.6653 26.9313 20.7897 26.8805 20.9193 26.8805L20.9189 28.8605C21.3076 28.8606 21.6809 28.7082 21.9586 28.4361L20.5727 27.022ZM20.8989 26.8807C20.9661 26.8793 21.0328 26.8914 21.0953 26.9162L20.3656 28.7568C20.548 28.8291 20.7431 28.8643 20.9393 28.8603L20.8989 26.8807ZM21.0953 26.9162C21.1577 26.9409 21.2146 26.9779 21.2626 27.0249L19.8767 28.439C20.0169 28.5764 20.1831 28.6844 20.3656 28.7568L21.0953 26.9162ZM21.2626 27.0249C21.3106 27.0719 21.3487 27.128 21.3747 27.19L19.5492 27.9567C19.6252 28.1377 19.7365 28.3017 19.8767 28.439L21.2626 27.0249ZM21.3747 27.19C21.4007 27.2519 21.4141 27.3184 21.4141 27.3856L19.4341 27.3852C19.4341 27.5815 19.4732 27.7758 19.5492 27.9567L21.3747 27.19ZM21.4141 27.3854V26.3855H19.4341V27.3854H21.4141ZM20.4241 25.3955H19.1866V27.3755H20.4241V25.3955ZM19.1866 25.3955C19.3179 25.3955 19.4438 25.4477 19.5366 25.5405L18.1365 26.9406C18.415 27.2191 18.7927 27.3755 19.1866 27.3755V25.3955ZM19.5366 25.5405C19.6294 25.6333 19.6816 25.7592 19.6816 25.8905H17.7016C17.7016 26.2844 17.858 26.6621 18.1365 26.9406L19.5366 25.5405ZM19.6816 25.8905C19.6816 26.0218 19.6294 26.1477 19.5366 26.2405L18.1365 24.8405C17.858 25.119 17.7016 25.4967 17.7016 25.8905H19.6816ZM19.5366 26.2405C19.4438 26.3334 19.3179 26.3855 19.1866 26.3855V24.4055C18.7927 24.4055 18.415 24.562 18.1365 24.8405L19.5366 26.2405ZM19.1866 26.3855H21.4141V24.4055H19.1866V26.3855ZM21.4141 26.3855C21.9392 26.3855 22.4428 26.1769 22.8142 25.8056L21.4141 24.4055L21.4141 24.4055V26.3855ZM22.8142 25.8056C23.1855 25.4343 23.3941 24.9306 23.3941 24.4055H21.4141L21.4141 24.4055L22.8142 25.8056ZM23.3941 24.4055C23.3941 23.8804 23.1855 23.3768 22.8142 23.0054L21.4141 24.4055H21.4141H23.3941ZM22.8142 23.0054C22.4428 22.6341 21.9392 22.4255 21.4141 22.4255V24.4055H21.4141L22.8142 23.0054ZM21.4141 22.4255H20.4241V24.4055H21.4141V22.4255ZM20.4241 22.4255C20.1615 22.4255 19.9097 22.3212 19.7241 22.1355L18.324 23.5356C18.881 24.0926 19.6364 24.4055 20.4241 24.4055V22.4255ZM19.7241 22.1355C19.5384 21.9499 19.4341 21.6981 19.4341 21.4355H17.4541C17.4541 22.2232 17.767 22.9786 18.324 23.5356L19.7241 22.1355ZM19.4341 21.4355C19.4341 21.1729 19.5384 20.9211 19.7241 20.7355L18.324 19.3354C17.767 19.8924 17.4541 20.6478 17.4541 21.4355H19.4341ZM19.7241 20.7355C19.9097 20.5498 20.1615 20.4455 20.4241 20.4455V18.4655C19.6364 18.4655 18.881 18.7784 18.324 19.3354L19.7241 20.7355ZM21.4141 19.4555V18.419H19.4341V19.4555H21.4141ZM21.4133 18.4592C21.4105 18.5284 21.3939 18.5964 21.3645 18.6591L19.5711 17.82C19.4891 17.9953 19.4428 18.1853 19.4349 18.3788L21.4133 18.4592ZM21.3645 18.6591C21.3352 18.7219 21.2936 18.7781 21.2423 18.8246L19.9129 17.3573C19.7694 17.4873 19.6532 17.6446 19.5711 17.82L21.3645 18.6591ZM21.2423 18.8246C21.1909 18.8712 21.1308 18.907 21.0655 18.93L20.4069 17.0628C20.2243 17.1272 20.0564 17.2273 19.9129 17.3573L21.2423 18.8246ZM21.0655 18.93C21.0002 18.9531 20.9309 18.9629 20.8618 18.9589L20.9764 16.9822C20.7831 16.971 20.5895 16.9984 20.4069 17.0628L21.0655 18.93ZM20.9622 18.9596C20.8274 18.9655 20.6957 18.9182 20.5954 18.8279L21.92 17.3562C21.6345 17.0993 21.2596 16.9647 20.876 16.9815L20.9622 18.9596ZM20.5954 18.8279C20.4951 18.7376 20.4343 18.6116 20.426 18.4769L22.4022 18.3551C22.3786 17.9718 22.2054 17.6131 21.92 17.3562L20.5954 18.8279ZM20.4241 18.416V19.4555H22.4041V18.416H20.4241ZM21.4141 20.4455H22.6516V18.4655H21.4141V20.4455ZM22.6516 20.4455C22.5203 20.4455 22.3944 20.3934 22.3016 20.3005L23.7016 18.9005C23.4232 18.622 23.0454 18.4655 22.6516 18.4655V20.4455ZM22.3016 20.3005C22.2087 20.2077 22.1566 20.0818 22.1566 19.9505H24.1366C24.1366 19.5567 23.9801 19.179 23.7016 18.9005L22.3016 20.3005ZM22.1568 19.9313C22.1592 19.8059 22.2101 19.6864 22.2988 19.5977L23.6988 20.9978C23.9721 20.7245 24.1289 20.3561 24.1364 19.9697L22.1568 19.9313ZM22.2988 19.5977C22.3874 19.509 22.507 19.4581 22.6324 19.4557L22.6708 21.4353C23.0572 21.4278 23.4256 21.271 23.6988 20.9978L22.2988 19.5977ZM22.6516 19.4555H20.4241V21.4355H22.6516V19.4555ZM20.4241 19.4555C19.899 19.4555 19.3953 19.6641 19.024 20.0354L20.4241 21.4355L20.4241 21.4355V19.4555ZM19.024 20.0354C18.6527 20.4068 18.4441 20.9104 18.4441 21.4355H20.4241L20.4241 21.4355L19.024 20.0354ZM18.4441 21.4355C18.4441 21.9606 18.6527 22.4643 19.024 22.8356L20.4241 21.4355H20.4241H18.4441ZM19.024 22.8356C19.3953 23.2069 19.899 23.4155 20.4241 23.4155V21.4355L20.4241 21.4355L19.024 22.8356ZM20.4241 23.4155H21.4141V21.4355H20.4241V23.4155ZM21.4141 23.4155C21.6767 23.4155 21.9285 23.5198 22.1141 23.7055L23.5142 22.3054C22.9572 21.7484 22.2018 21.4355 21.4141 21.4355V23.4155ZM22.1141 23.7055C22.2998 23.8911 22.4041 24.1429 22.4041 24.4055H24.3841C24.3841 23.6178 24.0712 22.8624 23.5142 22.3054L22.1141 23.7055Z" fill="white" mask="url(#path-3-inside-1_5282_3043)"></path></svg>