<svg xmlns="http://www.w3.org/2000/svg" width="46" height="46" viewBox="0 0 46 46" fill="none"><rect width="46" height="46" rx="12" fill="#00B3CB"></rect><path d="M17.0338 17.0338C18.4853 15.5823 20.4112 14.7142 22.4471 14.5806L22.3973 14.5842C20.8351 14.6961 19.3349 15.2407 18.0647 16.1569C16.7944 17.073 15.8042 18.3247 15.205 19.7717C14.6057 21.2187 14.421 22.8039 14.6716 24.3499C14.9221 25.8959 15.598 27.3417 16.6236 28.5253L16.6654 28.5735C15.3141 27.0379 14.5625 25.0577 14.5625 23C14.5625 20.7622 15.4514 18.6161 17.0338 17.0338ZM23 31.4375C20.9212 31.4375 18.9216 30.6704 17.3795 29.2929L17.4759 29.3764C18.6595 30.4017 20.1052 31.0773 21.651 31.3277C23.1968 31.578 24.7818 31.3932 26.2286 30.794C27.6754 30.1948 28.9269 29.2047 29.843 27.9347C30.7591 26.6647 31.3037 25.1647 31.4158 23.6028L31.4193 23.5537C31.2855 25.5893 30.4175 27.5149 28.9662 28.9662C27.3839 30.5486 25.2378 31.4375 23 31.4375ZM31.4194 22.4476L31.4158 22.3973C31.2708 20.3731 30.4011 18.4689 28.9661 17.0339C27.5311 15.5989 25.6269 14.7292 23.6027 14.5842L23.5526 14.5806C25.5886 14.7141 27.5146 15.5822 28.9662 17.0338C30.4178 18.4854 31.2859 20.4115 31.4194 22.4476Z" fill="white" stroke="white" stroke-width="1.125"></path></svg>