<svg xmlns="http://www.w3.org/2000/svg" width="32" height="33" viewBox="0 0 32 33" fill="none"><g clip-path="url(#clip0_5122_1456)"><path d="M31.5 16.8101C31.5 8.24965 24.5604 1.31006 16 1.31006C7.43959 1.31006 0.5 8.24965 0.5 16.8101C0.5 25.3705 7.43959 32.3101 16 32.3101C24.5604 32.3101 31.5 25.3705 31.5 16.8101Z" stroke="#4D617B"></path><path d="M24 16.8591C24 12.4121 20.419 8.81006 16 8.81006C11.581 8.81006 8 12.4121 8 16.8591C8 20.8761 10.925 24.2061 14.75 24.8101V19.1851H12.718V16.8581H14.75V15.0851C14.75 13.0681 15.944 11.9541 17.772 11.9541C18.372 11.9624 18.9707 12.0149 19.563 12.1111V14.0911H18.554C17.56 14.0911 17.251 14.7111 17.251 15.3481V16.8591H19.47L19.115 19.1861H17.25V24.8101C21.075 24.2061 24 20.8761 24 16.8591Z" fill="#00CBAF"></path></g><defs><clipPath id="clip0_5122_1456"><rect width="32" height="32" fill="white" transform="translate(0 0.810059)"></rect></clipPath></defs></svg>