<?xml version="1.0" encoding="utf-8"?>
<!-- Generator: Adobe Illustrator 24.3.0, SVG Export Plug-In . SVG Version: 6.00 Build 0)  -->
<svg version="1.1" id="Слой_1" xmlns="http://www.w3.org/2000/svg" xmlns:xlink="http://www.w3.org/1999/xlink" x="0px" y="0px"
	 viewBox="0 0 400.7 244.4" style="enable-background:new 0 0 400.7 244.4;" xml:space="preserve">
<style type="text/css">
	.st0{fill:#FFFFFF;}
	.st1{fill:#3C3950;}
</style>
<g>
	<path class="st0" d="M78.4,3.2H65.8v54.6h12.6V3.2z M249.5,46.1h25.3l4.8,11.7H293L268.5,3.2h-12.5l-24.3,54.6h12.9L249.5,46.1z
		 M262.2,15.6l8.7,20.9h-17.3L262.2,15.6z M106.3,55.1c4.5,2.4,9.6,3.6,15.3,3.6c4,0,7.9-0.6,11.8-1.8c3.9-1.2,7.3-2.9,10.3-5.1
		V29.6h-11.5v16c-2.9,1.6-6.2,2.3-9.8,2.3c-3.4,0-6.5-0.7-9.2-2.2c-2.7-1.5-4.8-3.5-6.3-6.2c-1.5-2.7-2.3-5.7-2.3-9
		c0-3.4,0.8-6.5,2.3-9.1c1.5-2.7,3.6-4.7,6.3-6.2c2.7-1.5,5.8-2.2,9.3-2.2c5.5,0,10.2,2.1,14.1,6.2l8.1-7.5c-2.7-3.1-5.9-5.4-9.8-7
		c-3.9-1.6-8.2-2.4-13-2.4c-5.7,0-10.9,1.2-15.4,3.6c-4.6,2.4-8.2,5.8-10.7,10.1c-2.6,4.3-3.9,9.1-3.9,14.5c0,5.4,1.3,10.3,3.9,14.5
		C98.2,49.3,101.8,52.7,106.3,55.1z M42.3,29.4c2.3-1.2,4.1-2.8,5.3-4.9c1.3-2.1,1.9-4.4,1.9-7.1c0-4.4-1.8-7.8-5.3-10.4
		c-3.6-2.5-8.7-3.8-15.3-3.8H2.2v54.6h28.2c7.1,0,12.5-1.3,16.3-3.9c3.7-2.6,5.6-6.3,5.6-11c0-3.4-0.9-6.2-2.7-8.5
		C47.8,32,45.4,30.4,42.3,29.4z M14.7,12.7h12.6c3.1,0,5.5,0.5,7.1,1.6c1.6,1.1,2.4,2.7,2.4,4.8c0,2.1-0.8,3.7-2.4,4.8
		c-1.6,1.1-4,1.6-7.1,1.6H14.7V12.7z M37,46.6c-1.7,1.1-4.2,1.6-7.5,1.6H14.7V34.8h14.7c6.7,0,10.1,2.3,10.1,6.8
		C39.5,43.9,38.7,45.6,37,46.6z M297.9,91.1c-10.2-6.5-21.8-9.7-34.9-9.7c-13.1,0-24.7,3.2-34.9,9.7c-10.2,6.5-18.2,15.8-24,28
		c-5.8,12.2-8.7,26.8-8.7,43.8c0,17,2.9,31.6,8.7,43.8c5.8,12.2,13.8,21.6,24,28c10.2,6.5,21.8,9.7,34.9,9.7c2.1,0,4.2-0.1,6.3-0.3
		l59.4-102.9c-1.4-8.1-3.7-15.4-6.9-22.1C316.1,106.9,308.1,97.5,297.9,91.1z M285.6,201.2c-5.5,8.3-13,12.4-22.6,12.4
		c-9.5,0-16.9-4.1-22.4-12.4c-5.5-8.3-8.2-21-8.2-38.3c0-17.3,2.7-30,8.2-38.3c5.5-8.3,12.9-12.4,22.4-12.4
		c9.6,0,17.1,4.1,22.6,12.4c5.5,8.3,8.2,21,8.2,38.3C293.8,180.2,291.1,192.9,285.6,201.2z M315.2,3.2h-12.6v54.6h40V47.5h-27.4V3.2
		z M215.9,56.5c3.5-1.5,6.1-3.5,7.8-6.1c1.7-2.6,2.6-5.4,2.6-8.5c0-3.6-0.9-6.5-2.8-8.7c-1.9-2.1-4.2-3.7-6.8-4.7
		c-2.7-1-6.1-2-10.2-3c-4-0.9-7-1.8-8.9-2.7c-2-0.9-2.9-2.3-2.9-4.2s0.8-3.4,2.5-4.5c1.7-1.1,4.3-1.7,7.8-1.7c5,0,10.1,1.4,15.1,4.3
		l3.9-9.6c-2.5-1.6-5.4-2.8-8.7-3.6c-3.3-0.8-6.7-1.2-10.2-1.2c-5,0-9.2,0.8-12.7,2.3c-3.5,1.5-6,3.5-7.8,6.1
		c-1.7,2.6-2.6,5.4-2.6,8.6c0,3.6,0.9,6.6,2.8,8.7c1.9,2.2,4.2,3.8,6.8,4.8c2.7,1,6.1,2,10.2,3c2.7,0.6,4.8,1.2,6.4,1.7
		c1.6,0.5,2.9,1.2,3.9,2.1c1,0.9,1.5,1.9,1.5,3.2c0,1.8-0.9,3.2-2.6,4.3c-1.7,1.1-4.4,1.6-8,1.6c-3.2,0-6.4-0.5-9.7-1.6
		c-3.2-1-6-2.4-8.3-4.1l-4.3,9.5c2.4,1.9,5.7,3.4,9.7,4.6c4,1.2,8.2,1.8,12.5,1.8C208.2,58.7,212.4,58,215.9,56.5z M57.4,139.5h32.4
		v-25.7h52.2L85.6,241.7h39.6l58.5-134V84.1H57.4V139.5z M366.1,47.7V35h25.3v-9.8h-25.3V13.3h28.7V3.2h-41.3v54.6h42.3V47.7H366.1z
		"/>
</g>
<g>
	<g>
		<path class="st1" d="M19.5,208.9H-0.1v8h19.3c3.2,0,5.6,0.7,7.1,2c1.5,1.3,2.3,3.3,2.3,5.8c0,5.2-3.1,7.8-9.4,7.8H-0.1v8.1h19.6
			c5.1,0,9.1-1.4,11.9-4.2c2.8-2.8,4.1-6.7,4.1-11.7s-1.4-8.9-4.1-11.7C28.6,210.3,24.7,208.9,19.5,208.9z M-0.1,123.6v30.5h6.6
			v-11.2h28.4v-8.1H6.5v-11.2H-0.1z M26.7,86.1c-2.8-1.7-5.8-2.5-9.3-2.5c-3.4,0-6.5,0.8-9.3,2.5c-2.8,1.7-4.9,3.9-6.5,6.8
			c-1.6,2.9-2.3,6.2-2.3,9.8c0,3.6,0.8,6.9,2.3,9.8c1.6,2.9,3.7,5.2,6.5,6.8c2.8,1.7,5.8,2.5,9.3,2.5c3.4,0,6.5-0.8,9.3-2.5
			c2.8-1.6,4.9-3.9,6.5-6.8c1.6-2.9,2.3-6.2,2.3-9.8c0-3.6-0.8-6.9-2.3-9.8C31.6,90.1,29.5,87.8,26.7,86.1z M27.2,108.4
			c-1,1.7-2.3,3-4,3.9s-3.6,1.4-5.8,1.4c-2.2,0-4.1-0.5-5.8-1.4s-3-2.3-4-3.9c-0.9-1.7-1.4-3.5-1.4-5.6c0-2.1,0.5-3.9,1.4-5.6
			c1-1.7,2.3-3,4-3.9c1.7-1,3.6-1.4,5.8-1.4c2.2,0,4.1,0.5,5.8,1.4c1.7,0.9,3,2.3,4,3.9c0.9,1.7,1.4,3.5,1.4,5.6
			C28.6,104.8,28.2,106.7,27.2,108.4z M341.6,240.6h8.1v-12.8h16.2v-6.5h-16.2v-9.2h18.4v-6.5h-26.5V240.6z M400,212.1v-6.5h-26.5
			v35h8.1v-12.8h16.2v-6.5h-16.2v-9.2H400z M362,81.2l-93.2,163h4.6l93.2-163H362z M326.2,207.4c-2.9-1.6-6.2-2.4-9.8-2.4
			c-3.6,0-6.9,0.8-9.8,2.4c-2.9,1.6-5.2,3.7-6.8,6.5c-1.7,2.8-2.5,5.8-2.5,9.3c0,3.4,0.8,6.5,2.5,9.3c1.6,2.8,3.9,4.9,6.8,6.5
			c2.9,1.6,6.2,2.3,9.8,2.3c3.6,0,6.9-0.8,9.8-2.3c2.9-1.6,5.2-3.7,6.8-6.5c1.7-2.8,2.5-5.8,2.5-9.3c0-3.4-0.8-6.5-2.5-9.3
			C331.4,211.1,329.1,209,326.2,207.4z M325.9,228.9c-0.9,1.7-2.3,3-3.9,4c-1.7,1-3.5,1.4-5.6,1.4c-2.1,0-3.9-0.5-5.6-1.4
			c-1.7-0.9-3-2.3-3.9-4c-0.9-1.7-1.4-3.6-1.4-5.8c0-2.2,0.5-4.1,1.4-5.8c1-1.7,2.3-3,3.9-4c1.7-1,3.5-1.4,5.6-1.4
			c2.1,0,3.9,0.5,5.6,1.4c1.7,1,3,2.3,3.9,4c1,1.7,1.4,3.6,1.4,5.8C327.3,225.3,326.9,227.2,325.9,228.9z M-0.1,200.9h35v-8.1h-9.7
			v-7c0-3.1-0.5-5.8-1.5-8.1c-1-2.3-2.5-4-4.4-5.3c-1.9-1.2-4.2-1.8-6.7-1.8c-2.6,0-4.9,0.6-6.8,1.8c-1.9,1.2-3.4,3-4.4,5.3
			c-1,2.3-1.5,5-1.5,8.1V200.9z M6.5,186.2c0-2.4,0.5-4.3,1.6-5.5c1-1.3,2.6-1.9,4.5-1.9c1.9,0,3.4,0.6,4.5,1.9
			c1,1.3,1.6,3.1,1.6,5.5v6.6H6.5V186.2z M356.4,111.6c-1,2.1-1.5,4.4-1.5,7.1c0,2.7,0.5,5.1,1.5,7.1c1,2.1,2.5,3.6,4.3,4.7
			c1.8,1.1,3.9,1.6,6.3,1.6c3.6,0,6.5-1.2,8.8-3.7c2.3-2.5,3.4-5.7,3.4-9.8c0-4.1-1.1-7.4-3.4-9.8c-2.3-2.5-5.2-3.7-8.8-3.7
			c-2.3,0-4.4,0.5-6.3,1.6C358.9,107.9,357.4,109.5,356.4,111.6z M363.3,112.9c0.9-1.3,2.2-2,3.7-2c1.6,0,2.8,0.7,3.7,2
			c0.9,1.3,1.4,3.3,1.4,5.8c0,2.5-0.5,4.4-1.4,5.8c-0.9,1.3-2.2,2-3.7,2c-1.5,0-2.8-0.7-3.7-2c-0.9-1.3-1.4-3.2-1.4-5.8
			C361.9,116.1,362.3,114.2,363.3,112.9z M333.7,109.1c3.6,0,6.5-1.2,8.7-3.7c2.2-2.5,3.4-5.7,3.4-9.8c0-4.1-1.1-7.4-3.4-9.8
			c-2.2-2.5-5.2-3.7-8.7-3.7c-3.6,0-6.5,1.2-8.8,3.7c-2.3,2.5-3.4,5.7-3.4,9.8c0,4.1,1.1,7.4,3.4,9.8
			C327.2,107.9,330.1,109.1,333.7,109.1z M330,89.8c0.9-1.3,2.2-2,3.7-2c1.6,0,2.8,0.7,3.7,2c0.9,1.3,1.4,3.2,1.4,5.8
			c0,2.6-0.5,4.5-1.4,5.8c-0.9,1.3-2.2,2-3.7,2c-1.5,0-2.8-0.7-3.7-2c-0.9-1.3-1.4-3.3-1.4-5.8C328.6,93.1,329.1,91.2,330,89.8z"/>
	</g>
</g>
</svg>
