<?xml version="1.0" encoding="utf-8"?>
<!-- Generator: Adobe Illustrator 24.3.0, SVG Export Plug-In . SVG Version: 6.00 Build 0)  -->
<svg version="1.1" id="door" xmlns="http://www.w3.org/2000/svg" xmlns:xlink="http://www.w3.org/1999/xlink" x="0px" y="0px"
	 viewBox="0 0 43 43" style="enable-background:new 0 0 43 43;" xml:space="preserve">
<style type="text/css">
	.st0{fill:#3C3950;}
</style>
<g>
	<g>
		<path class="st0" d="M21.5,12.8c2.9,0,5.3-2.4,5.3-5.3c0-2.9-2.4-5.3-5.3-5.3c-2.9,0-5.3,2.4-5.3,5.3
			C16.2,10.4,18.5,12.8,21.5,12.8z M21.5,4c1.9,0,3.5,1.7,3.4,3.6c0,1.9-1.6,3.4-3.4,3.4c-1.9,0-3.5-1.7-3.4-3.6
			C18.1,5.5,19.6,4,21.5,4z M37.2,9.9h-2.3c2.2-0.5,3.9-2.5,3.9-4.9c0-2.8-2.3-5-5-5c-2.8,0-5,2.3-5,5c0,2.4,1.6,4.4,3.9,4.9h-2.3
			c-2.4,0-4.6,1.5-5.4,3.7l0,0.1l-0.1,0.5h-6.3l-0.1-0.5c0,0,0-0.1,0-0.1c-0.9-2.2-3-3.7-5.4-3.7h-2.3c2.2-0.5,3.9-2.5,3.9-4.9
			c0-2.8-2.3-5-5-5s-5,2.3-5,5c0,2.4,1.6,4.4,3.9,4.9H5.8C2.6,9.9,0,12.5,0,15.7v6.8c0,1.5,1.2,2.7,2.7,2.7h1.5v9.9
			c0,0.5,0.4,0.9,0.9,0.9h8.4c0.5,0,0.9-0.4,0.9-0.9V31h1.6v11.1c0,0.5,0.4,0.9,0.9,0.9h9.3c0.5,0,0.9-0.4,0.9-0.9V31h1.6v4.2
			c0,0.5,0.4,0.9,0.9,0.9h8.4c0.5,0,0.9-0.4,0.9-0.9v-9.9h1.5c1.5,0,2.7-1.2,2.7-2.7v-6.8C43,12.5,40.4,9.9,37.2,9.9z M30.5,5
			c0-1.8,1.4-3.2,3.2-3.2c1.8,0,3.2,1.4,3.2,3.2s-1.4,3.2-3.2,3.2C31.9,8.2,30.5,6.8,30.5,5z M6.1,5c0-1.8,1.4-3.2,3.2-3.2
			c1.8,0,3.2,1.4,3.2,3.2S11,8.2,9.3,8.2C7.5,8.2,6.1,6.8,6.1,5z M12.5,34.2h-2.4v-8.5H8.4v8.5H6V15.4H4.2v8H2.7
			c-0.5,0-0.9-0.4-0.9-0.9v-6.8c0-2.2,1.8-4,4-4h7c1.6,0,3.1,1,3.7,2.5l0,0.1c-2.9,0.5-5.2,3.1-5.2,6.2V28c0,1,0.5,1.9,1.2,2.4V34.2
			z M29.9,28c0,0.6-0.5,1.1-1.1,1.1h-1.7V20h-1.8v21.1h0h-2.8v-9h-1.8v9h-2.8V20.1h-1.8v9.1h-1.7c-0.6,0-1.1-0.5-1.1-1.1v-7.5
			c0-2.5,2-4.5,4.5-4.5h7.7c2.5,0,4.5,2,4.5,4.5V28z M41.2,22.5c0,0.5-0.4,0.9-0.9,0.9h-1.5v-8H37v18.8h-2.4v-8.5h-1.8v8.5h-2.4
			v-3.8c0.7-0.5,1.2-1.4,1.2-2.4v-7.5c0-3.1-2.2-5.7-5.2-6.2l0-0.1c0.6-1.5,2.1-2.5,3.7-2.5h7c2.2,0,4,1.8,4,4V22.5z"/>
	</g>
</g>
</svg>
