<?xml version="1.0" encoding="utf-8"?>
<!-- Generator: Adobe Illustrator 24.3.0, SVG Export Plug-In . SVG Version: 6.00 Build 0)  -->
<svg version="1.1" id="door" xmlns="http://www.w3.org/2000/svg" xmlns:xlink="http://www.w3.org/1999/xlink" x="0px" y="0px"
	 viewBox="0 0 43 43" style="enable-background:new 0 0 43 43;" xml:space="preserve">
<style type="text/css">
	.st0{fill:#3C3950;}
</style>
<g>
	<g>
		<path class="st0" d="M35.6-0.5H7.2c-0.4,0-0.8,0.4-0.8,1v42c0,0.6,0.4,1,0.8,1h28.3c0.6,0,1-0.4,1-0.8V0.5
			C36.6-0.1,36.2-0.5,35.6-0.5z M34.6,41.7H8V1.3h26.6V41.7z M10.4,39.3h21.8c0.6,0,1-0.4,1-0.8V4.5c0-0.4-0.4-0.8-1-0.8H11
			c-0.2-0.2-0.6-0.2-0.8,0c0,0,0,0,0,0.1C9.8,3.9,9.6,4.2,9.6,4.5v33.9C9.6,38.9,10,39.3,10.4,39.3z M31.4,5.3v32.1H16.3l13-4.5
			c0.4-0.2,0.6-0.4,0.6-0.8V10c0-0.4-0.2-0.6-0.6-0.8L16.4,5.3H31.4z M11.4,5.8l16.5,4.9v20.9L11.4,37V5.8z M24.9,19.7l-1.2-0.1
			c-0.5,0-1.1,0.6-1.1,1.4c0,0.7,0.4,1.4,1.1,1.4l1.1-0.1c0.5,0,1.1-0.4,1.1-1.3C25.9,20.1,25.5,19.7,24.9,19.7z"/>
	</g>
</g>
</svg>
