<?xml version="1.0" encoding="utf-8"?>
<!-- Generator: Adobe Illustrator 24.3.0, SVG Export Plug-In . SVG Version: 6.00 Build 0)  -->
<svg version="1.1" id="Слой_1" xmlns="http://www.w3.org/2000/svg" xmlns:xlink="http://www.w3.org/1999/xlink" x="0px" y="0px"
	 viewBox="0 0 80.3 82.6" style="enable-background:new 0 0 80.3 82.6;" xml:space="preserve">
<style type="text/css">
	.st0{fill-rule:evenodd;clip-rule:evenodd;fill:#66686D;}
</style>
<g>
	<g>
		<path class="st0" d="M24.4,34.6l-0.5,7.4h4.3l6.3-16.6h-4l-2.8,7.5l0.5-7.5h-4.2l-6.3,16.6h4L24.4,34.6z M32.6,41.9l6.3-16.6h-4
			l-6.3,16.6H32.6z M70.6,35.3c-0.1,0-8.2,2.2-17.7,4.7l0.5-1.3h-4.6l1.5-4h3.8l1.2-3.1h-3.8l1.3-3.5h4l1.1-2.8H45.8l-4.2,5l1.9-5
			h-4l-6.2,16.6h4l2.7-7l0.2,7l5.7,0c-10.8,2.9-21,5.7-21,5.7c-5.8,1.6-12.4-1.9-7.6-11.4c-5.5,6.5-10.8,15-6.1,19
			c4.5,3.8,10.1,1.6,13.9,0c3.8-1.5,45.9-19.7,45.9-19.7C71.2,35.4,71.2,35.1,70.6,35.3z M44.1,40.8l-0.3-8.7l6-6.5L44.1,40.8z"/>
	</g>
</g>
</svg>
