<?xml version="1.0" encoding="utf-8"?>
<!-- Generator: Adobe Illustrator 24.3.0, SVG Export Plug-In . SVG Version: 6.00 Build 0)  -->
<svg version="1.1" id="Слой_1" xmlns="http://www.w3.org/2000/svg" xmlns:xlink="http://www.w3.org/1999/xlink" x="0px" y="0px"
	 viewBox="0 0 80.3 82.6" style="enable-background:new 0 0 80.3 82.6;" xml:space="preserve">
<style type="text/css">
	.st0{fill:#66686D;}
</style>
<g>
	<g>
		<path class="st0" d="M27.2,36h-6.4v10.6h3.1v-7.7h2.6v7.8h3.1v-8.3C29.6,37,28.5,36,27.2,36z M34.8,42.5L32.7,36h-3.2L33,46.6h3.6
			L40.1,36h-3.2L34.8,42.5z M17.8,35.8h-6.4c-1.1,0-2,0.9-2,2v6.8c0,1.1,0.9,2,2,2h6.4c1.1,0,2-0.9,2-2v-6.8
			C19.8,36.8,18.9,35.8,17.8,35.8z M16.7,42.2l1.4,4.2l-3.5-2.7l-3.3,2.6l1.3-4.1l-3-2.2h3.8l1.2-3.8l1.3,3.8h3.6L16.7,42.2z
			 M3.5,38.9h5V36H2.8c-1.3,0-2.4,1-2.4,2.3v6c0,1.3,1.1,2.3,2.4,2.3h5.7v-2.9h-5C3.5,43.7,3.5,38.9,3.5,38.9z M79.6,36.5
			c-0.2-0.2-0.5-0.3-0.8-0.3s-0.5,0.1-0.7,0.3c-0.2,0.2-0.3,0.5-0.3,0.7c0,0.3,0.1,0.5,0.3,0.7c0.2,0.2,0.5,0.3,0.7,0.3
			c0.3,0,0.5-0.1,0.8-0.3c0.2-0.2,0.3-0.5,0.3-0.7C79.9,36.9,79.8,36.8,79.6,36.5z M79.5,37.9c-0.2,0.2-0.4,0.3-0.6,0.3
			c-0.3,0-0.5-0.1-0.6-0.3c-0.2-0.2-0.3-0.4-0.3-0.6s0.1-0.5,0.3-0.6c0.2-0.2,0.4-0.3,0.6-0.3c0.3,0,0.5,0.1,0.6,0.3
			c0.2,0.2,0.3,0.4,0.3,0.6C79.8,37.5,79.7,37.8,79.5,37.9z M40.2,38.3v6c0,1.3,1.1,2.3,2.4,2.3h5.8v-2.9h-5.1v-1h5.1v-2.8h-5.1v-1
			h5.1V36h-5.8C41.2,36,40.2,37,40.2,38.3z M68.8,38.3v6c0,1.3,1.1,2.3,2.4,2.3H77v-2.9h-5.1v-1H77v-2.8h-5.1v-1H77V36h-5.8
			C69.9,36,68.8,37,68.8,38.3z M65.6,39.9h-3.3v-1h5.2V36h-6c-1.3,0-2.4,1-2.4,2.3v2.1c0,1.3,1.1,2.3,2.4,2.3h3.3v1h-5.7v2.9h6.4
			c1.3,0,2.4-1,2.4-2.3v-2.1C67.9,40.9,66.9,39.9,65.6,39.9z M58.1,40.4v-2.1c0-1.3-1.1-2.3-2.4-2.3h-6.3v10.6h3.1v-6l2.8,6h3.2
			l-1.9-4C57.5,42.3,58.1,41.4,58.1,40.4z M55.1,39.9h-2.6v-1h2.6V39.9z M79.3,37.8L79.3,37.8v-0.2c0-0.1,0-0.1-0.1-0.2
			c0-0.1-0.1-0.1-0.2-0.1c0.1,0,0.1,0,0.2-0.1c0.1,0,0.1-0.1,0.1-0.2c0-0.1-0.1-0.2-0.2-0.3c-0.1,0-0.2,0-0.3,0h-0.4v1.2h0.2v-0.5
			h0.2c0.1,0,0.2,0,0.2,0c0.1,0,0.1,0.1,0.1,0.3v0.1l0,0l0,0l0,0H79.3L79.3,37.8C79.3,37.8,79.3,37.8,79.3,37.8z M79,37.2
			c0,0-0.1,0-0.2,0h-0.2v-0.4h0.2c0.1,0,0.2,0,0.2,0c0.1,0,0.1,0.1,0.1,0.2C79.1,37.2,79.1,37.2,79,37.2z"/>
	</g>
</g>
</svg>
