<?xml version="1.0" encoding="utf-8"?>
<!-- Generator: Adobe Illustrator 21.0.2, SVG Export Plug-In . SVG Version: 6.00 Build 0)  -->
<svg version="1.1" id="Layer_1" xmlns="http://www.w3.org/2000/svg" xmlns:xlink="http://www.w3.org/1999/xlink" x="0px" y="0px"
	 viewBox="0 0 100 100" style="enable-background:new 0 0 100 100;" xml:space="preserve">
<style type="text/css">
	.st0{fill:#3C3950;}
	.st1{fill-rule:evenodd;clip-rule:evenodd;fill:#3C3950;}
</style>
<g>
	<polygon class="st1" points="37.2,46.3 36.7,53.6 41,53.6 47.3,37 43.3,37 40.5,44.5 41,37 36.7,37 30.5,53.6 34.4,53.6 	"/>
	<polygon class="st1" points="45.5,53.6 51.7,37 47.8,37 41.5,53.6 	"/>
	<path class="st1" d="M83.5,47c-0.1,0-8.2,2.2-17.7,4.7l0.5-1.3h-4.6l1.5-4H67l1.2-3.1h-3.8l1.3-3.5h4l1.1-2.8h-7.9h0h-4.1l-4.2,5
		l1.9-5h-4l-6.2,16.6h4l2.7-7l0.2,7l5.7,0c-10.8,2.9-21,5.7-21,5.7c-5.8,1.6-12.4-1.9-7.6-11.4c-5.5,6.5-10.8,15-6.1,19
		c4.5,3.8,10.1,1.6,13.9,0c3.8-1.5,45.9-19.7,45.9-19.7C84.1,47.1,84,46.8,83.5,47z M56.9,52.5l-0.3-8.7l6-6.5L56.9,52.5z"/>
</g>
</svg>
