<?xml version="1.0" encoding="utf-8"?>
<!-- Generator: Adobe Illustrator 21.0.2, SVG Export Plug-In . SVG Version: 6.00 Build 0)  -->
<svg version="1.1" id="Layer_1" xmlns="http://www.w3.org/2000/svg" xmlns:xlink="http://www.w3.org/1999/xlink" x="0px" y="0px"
	 viewBox="0 0 100 100" style="enable-background:new 0 0 100 100;" xml:space="preserve">
<style type="text/css">
	.st0{fill:#3C3950;}
	.st1{fill-rule:evenodd;clip-rule:evenodd;fill:#3C3950;}
</style>
<path class="st0" d="M79.7,62.1l-9.2-25l0,0h-0.2l-1.9,5.1l-3.4,9.4l0,0c-1.2-1-2.9-1.7-5-1.9l-0.6-0.1l0.6-0.1
	c3.5-0.6,5.8-2.8,5.8-5.4c0-3.6-3.4-6.1-8.3-6.1H47.4v0.2h3v18.6l-7.2-19.6l0,0H43l-1.9,5.1l-7.3,19.8l0,0c-0.1,0-0.2,0-0.4,0
	c-0.2,0-0.4,0-0.5,0h-7.3l14-24l0.1-0.2H22.5v7.4h0.2c0-3.6,2.2-7.2,6.8-7.2h5.7L21.1,62.3h18.9v-7.1h-0.2c0,3.2-1.8,6.1-5.7,6.8
	L34,62l3-8.1h8.3l3,8.2h-3v0.2H57v-0.2h-3V49.7h3.4c3.5,0,5.5,1.6,5.5,4.3v2.2c0,0.2,0,0.6,0,0.9v0l-1.8,5h-2.4v0.2h5v-0.2h-2.4
	l1.7-4.6c0,0,0,0.1,0,0.1l0,0.4l0,0.3c0.3,1.7,0.9,2.9,1.9,3.7l0.1,0.1c0.8,0.5,1.7,0.8,2.8,0.8c1.5,0,2.4-0.4,3.3-1.2l-0.1-0.1
	c-0.7,0.7-1.4,1-2.2,1c-1.3,0-2-1.6-2-3.2v-3.1c0-0.8-0.1-1.5-0.4-2.3l0-0.1v0h6.1l3,8.2h-3v0.2h10.1v-0.2L79.7,62.1z M37.1,53.7
	l4.1-11.2l4.1,11.2H37.1z M54.1,49.5V38.1h2.6c3.5,0,5.4,2.1,5.4,6c0,4.2-1.1,5.4-4.5,5.4H54.1z M66.6,53.7L66.6,53.7
	c-0.3-0.7-0.7-1.3-1.2-1.8l-0.2-0.2l0,0l3.4-9.2l4.1,11.2H66.6z"/>
</svg>
