<?xml version="1.0" encoding="utf-8"?>
<!-- Generator: Adobe Illustrator 24.3.0, SVG Export Plug-In . SVG Version: 6.00 Build 0)  -->
<svg version="1.1" id="Слой_1" xmlns="http://www.w3.org/2000/svg" xmlns:xlink="http://www.w3.org/1999/xlink" x="0px" y="0px"
	 viewBox="0 0 80.3 82.6" style="enable-background:new 0 0 80.3 82.6;" xml:space="preserve">
<style type="text/css">
	.st0{fill-rule:evenodd;clip-rule:evenodd;fill:#66686D;}
</style>
<g>
	<g>
		<path class="st0" d="M71.4,26.1c-0.6-0.7-1.5-0.1-2,0.1c-3.1,1.8-3.5,5-4.6,6.8c-0.8,1.5-2.2,2.5-3.4,2.6
			c-0.9,0.1-1.9-0.1-2.9-0.5c-2.4-1-3.7-2.4-4-2.6c-0.6-0.5-5.7-5.4-9.7-5.6c0,0-0.5-1-0.6-1c-0.3,0-0.6,0.6-0.8,0.7
			c-0.2,0.1-0.5-0.7-0.8-0.7c-0.2,0-0.4,0.8-0.8,1.2c-0.3,0.3-0.7,0.3-0.8,0.6c-0.1,0.1,0,0.4-0.1,0.6c-0.2,0.4-0.7,0.5-0.7,0.9
			c0,0.5,0.5,0.6,0.9,1c0.3,0.3,0.4,0.5,0.7,0.6c0.3,0.1,0.8-0.3,1.3-0.1c0.4,0.1,0.7,0.2,0.8,0.6c0.1,0.3,0,0.9-0.5,0.8
			c-0.2,0-0.8-0.2-1.6-0.2c-1,0.1-2.1,0.4-2.2,1.5c-0.1,0.6,0.7,1.3,1.4,1.2c0.5-0.1,0.3-0.7,0.5-1c0.4-0.4,2.4,1.3,4.2,1.3
			c0.8,0,1.4-0.2,2-0.8c0.1,0,0.1-0.1,0.2-0.2c0.1,0,0.2,0.1,0.3,0.1c1.5,1.2,2.6,3.6,8.2,3.6c0.8,0,1.7,0.4,2.4,1
			c0.6,0.6,1,1.5,1.4,2.5c0.6,1.4,1.5,2.8,3.1,4.3c0.1,0.1,1.3,1,1.4,1.1c0,0,0.1,0.2,0.1,0.3c0,0.9-0.2,3.6,1.8,3.7
			c0.5,0,0.4-0.3,0.4-0.5c0-0.5-0.1-0.9,0.2-1.4c0.3-0.6-0.7-0.9-0.7-2.4c0-1-0.9-0.9-1.3-1.7c-0.3-0.5-0.5-0.7-0.5-1.3
			c0.1-3.2-0.7-5.3-1.1-5.8c-0.3-0.4-0.6-0.5-0.3-0.7c1.7-1.1,2-2.1,2-2.1c0.9-2.1,1.7-3.9,2.8-4.8c0.2-0.2,0.8-0.6,1.1-0.8
			c1-0.5,1.6-0.8,1.9-1.1C71.5,27.6,71.9,26.7,71.4,26.1z M25.5,54.3c0,0.4-0.3,0.7-0.7,0.7c-0.4,0-0.7-0.3-0.7-0.7l0-12.6h-4.2
			v13.9c0,0.7,0.6,1.2,1.2,1.2h7.3c0.7,0,1.2-0.6,1.2-1.2V41.7h-4.2L25.5,54.3z M45,41.7h-6.3h-6.3c-0.7,0-1.4,0.6-1.4,1.4v13.7h4.2
			V44.2c0-0.4,0.3-0.7,0.7-0.7c0.4,0,0.7,0.3,0.7,0.7v12.6h4.2V44.2c0-0.4,0.3-0.7,0.7-0.7c0.4,0,0.7,0.3,0.7,0.7v12.6h4.2V43.1
			C46.4,42.3,45.8,41.7,45,41.7z M17.1,41.7H8.7v15.1h4.2V53h4.2c0.8,0,1.4-0.6,1.4-1.4v-8.6C18.4,42.3,17.9,41.7,17.1,41.7z
			 M14.3,50.4c0,0.4-0.3,0.7-0.7,0.7h-0.7v-7.6h0.7c0.4,0,0.7,0.3,0.7,0.7V50.4z M60.7,53.1c-1,0-1.8,0.8-1.8,1.9
			c0,1,0.8,1.9,1.9,1.9c1,0,1.9-0.8,1.9-1.9C62.6,54,61.8,53.1,60.7,53.1z M60.7,56.6c-0.9,0-1.6-0.7-1.6-1.6c0-0.9,0.7-1.6,1.5-1.6
			h0c0.9,0,1.6,0.7,1.6,1.6S61.6,56.6,60.7,56.6z M60.9,55.2c0.3-0.1,0.4-0.3,0.4-0.6c0-0.4-0.3-0.6-0.9-0.6h-0.4v2.1h0.4v-0.8
			l0.6,0.8h0.5L60.9,55.2L60.9,55.2z M60.5,54.9L60.5,54.9l-0.1-0.6h0.1c0.3,0,0.4,0.1,0.4,0.3C61,54.8,60.8,54.9,60.5,54.9z
			 M56.2,41.7h-7c-0.7,0-1.4,0.6-1.4,1.4v13.7H52V53h1.4v3.8h4.2V43.1C57.6,42.3,57,41.7,56.2,41.7z M53.4,51.1H52v-6.9
			c0-0.4,0.3-0.7,0.7-0.7c0.4,0,0.7,0.3,0.7,0.7V51.1z"/>
	</g>
</g>
</svg>
