<?xml version="1.0" encoding="utf-8"?>
<!-- Generator: Adobe Illustrator 24.3.0, SVG Export Plug-In . SVG Version: 6.00 Build 0)  -->
<svg version="1.1" id="Слой_1" xmlns="http://www.w3.org/2000/svg" xmlns:xlink="http://www.w3.org/1999/xlink" x="0px" y="0px"
	 viewBox="0 0 80.3 82.6" style="enable-background:new 0 0 80.3 82.6;" xml:space="preserve">
<style type="text/css">
	.st0{fill:#66686D;}
</style>
<g>
	<g>
		<path class="st0" d="M21.8,41.9v-2.2c-0.8-0.1-1.6-0.2-2.3-0.6c-0.6-0.3-1.1-0.9-1.2-1.6c-0.1-1.1,0.2-2.1,1.1-2.7
			c1.5-1.1,4-1.2,5.7-0.5c1.2,0.5,1.9,1.8,2,3.1h2.1c-0.1-0.8-0.2-1.5-0.5-2.2c-0.9-2.1-3-3-5.1-3.1c-2.3-0.1-4.6,0.1-6.2,1.9
			c-1.2,1.4-1.6,3.7-0.7,5.4C17.6,41.4,19.9,41.6,21.8,41.9z M2,34.4h13.1v-2.1H2V34.4z M30.6,50h2.2V32.3h-2.2V50z M38.8,32.4
			l-4.1,0v2.1h3.6c1,0,2,0.1,2.6,1c0.5,0.9,0.5,2.3,0.1,3.2c-0.4,0.9-1.4,1.2-2.3,1.2h-4V42h2.4c1.9,0,3.8,0,5.1-1.3
			c1.4-1.4,1.6-3.8,0.9-5.6C42.5,33.3,40.6,32.4,38.8,32.4z M44.3,50h2.1V32.3h-2.1V50z M58.3,40.3c1.1-1.5,1.2-3.9,0.4-5.6
			c-0.8-1.6-2.5-2.3-4.2-2.3l-5.9,0v2.1H53c1.2,0,2.3-0.1,3.2,0.6c1,0.9,1,2.6,0.5,3.7c-0.4,0.9-1.4,1.2-2.3,1.2h-5.8V42h5.5
			C55.7,42,57.3,41.6,58.3,40.3z M60.5,50h2.2V32.3h-2.2V50z M63.8,32.3v2.1h14.5v-2.1H63.8z M69.7,50h2.2V36.2h-2.2V50z M2,42h13.1
			v-2.1H2V42z M23.8,39.9v2.2c0.7,0.1,1.4,0.2,2.1,0.4c0.8,0.2,1.6,1,1.7,1.9c0.2,1.3-0.2,2.5-1.3,3.3c-1.8,1.4-4.9,1.2-6.8,0.1
			c-1.3-0.8-1.6-2.1-1.6-3.5h-2.3c0,0.4,0.1,0.7,0.1,1.1c0.1,2.1,1.9,4.1,3.9,4.7c3,1,6.8,0.7,9-1.8c1.2-1.4,1.4-3.9,0.5-5.5
			C28.1,40.5,25.8,40.2,23.8,39.9z M53.6,43.8l4,6.3h2.4l-3.9-6.3H53.6z M2,50h13.1V48H2V50z"/>
	</g>
</g>
</svg>
