<?xml version="1.0" encoding="utf-8"?>
<!-- Generator: Adobe Illustrator 21.0.2, SVG Export Plug-In . SVG Version: 6.00 Build 0)  -->
<svg version="1.1" id="Layer_1" xmlns="http://www.w3.org/2000/svg" xmlns:xlink="http://www.w3.org/1999/xlink" x="0px" y="0px"
	 viewBox="0 0 100 100" style="enable-background:new 0 0 100 100;" xml:space="preserve">
<style type="text/css">
	.st0{fill:#BDBDC0;}
	.st1{fill-rule:evenodd;clip-rule:evenodd;fill:#BDBDC0;}
</style>
<g>
	<path class="st0" d="M32.6,50.6v-2.2c-0.8-0.1-1.6-0.2-2.3-0.6c-0.6-0.3-1.1-0.9-1.2-1.6c-0.1-1.1,0.2-2.1,1.1-2.7
		c1.5-1.1,4-1.2,5.7-0.5c1.2,0.5,1.9,1.8,2,3.1h2.1c-0.1-0.8-0.2-1.5-0.5-2.2c-0.9-2.1-3-3-5.1-3.1c-2.3-0.1-4.6,0.1-6.2,1.9
		c-1.2,1.4-1.6,3.7-0.7,5.4C28.5,50.1,30.7,50.3,32.6,50.6z"/>
	<rect x="12.9" y="41" class="st0" width="13.1" height="2.1"/>
	<rect x="41.4" y="41" class="st0" width="2.2" height="17.7"/>
	<path class="st0" d="M49.7,41.1l-4.1,0v2.1h3.6c1,0,2,0.1,2.6,1c0.5,0.9,0.5,2.3,0.1,3.2c-0.4,0.9-1.4,1.2-2.3,1.2h-4v2.1H48
		c1.9,0,3.8,0,5.1-1.3c1.4-1.4,1.6-3.8,0.9-5.6C53.4,42,51.4,41.1,49.7,41.1z"/>
	<rect x="55.2" y="41" class="st0" width="2.1" height="17.7"/>
	<path class="st0" d="M69.1,49c1.1-1.5,1.2-3.9,0.4-5.6c-0.8-1.6-2.5-2.3-4.2-2.3l-5.9,0v2.1h4.4c1.2,0,2.3-0.1,3.2,0.6
		c1,0.9,1,2.6,0.5,3.7c-0.4,0.9-1.4,1.2-2.3,1.2h-5.8v2.1H65C66.6,50.7,68.1,50.3,69.1,49z"/>
	<rect x="71.4" y="41" class="st0" width="2.2" height="17.7"/>
	<rect x="74.7" y="41" class="st0" width="14.5" height="2.1"/>
	<rect x="80.6" y="44.9" class="st0" width="2.2" height="13.9"/>
	<rect x="12.9" y="48.6" class="st0" width="13.1" height="2.1"/>
	<path class="st0" d="M34.6,48.6v2.2c0.7,0.1,1.4,0.2,2.1,0.4c0.8,0.2,1.6,1,1.7,1.9c0.2,1.3-0.2,2.5-1.3,3.3
		c-1.8,1.4-4.9,1.2-6.8,0.1c-1.3-0.8-1.6-2.1-1.6-3.5h-2.3c0,0.4,0.1,0.7,0.1,1.1c0.1,2.1,1.9,4.1,3.9,4.7c3,1,6.8,0.7,9-1.8
		c1.2-1.4,1.4-3.9,0.5-5.5C39,49.2,36.6,48.9,34.6,48.6z"/>
	<polygon class="st0" points="64.5,52.5 68.5,58.7 70.9,58.7 67,52.5 	"/>
	<rect x="12.9" y="56.7" class="st0" width="13.1" height="2.1"/>
</g>
</svg>
