<?xml version="1.0" encoding="utf-8"?>
<!-- Generator: Adobe Illustrator 21.0.2, SVG Export Plug-In . SVG Version: 6.00 Build 0)  -->
<svg version="1.1" id="Layer_1" xmlns="http://www.w3.org/2000/svg" xmlns:xlink="http://www.w3.org/1999/xlink" x="0px" y="0px"
	 viewBox="0 0 100 100" style="enable-background:new 0 0 100 100;" xml:space="preserve">
<style type="text/css">
	.st0{fill:#BDBDC0;}
	.st1{fill-rule:evenodd;clip-rule:evenodd;fill:#BDBDC0;}
</style>
<g>
	<path class="st0" d="M17.6,56.4h-2.1c-1.1,0-1.4,0.5-1.4,1c0,0.5,0.3,1,1.4,1h2.1c1.1,0,1.4-0.5,1.4-1
		C18.9,56.9,18.6,56.4,17.6,56.4z M17.8,57.7h-2.7c-0.2,0-0.4-0.1-0.4-0.2c0-0.2,0.2-0.2,0.4-0.2h2.7c0.2,0,0.4,0,0.4,0.2
		C18.2,57.6,18,57.7,17.8,57.7z"/>
	<path class="st0" d="M17.6,51.2H17v0.8h0.8c0.2,0,0.4,0.1,0.4,0.2c0,0.2-0.2,0.2-0.4,0.2h-2.7c-0.2,0-0.4,0-0.4-0.2
		c0-0.2,0.2-0.2,0.4-0.2h0.7v-0.8h-0.5c-1,0-1.3,0.4-1.3,1c0,0.5,0.3,1,1.4,1h2.1c1.1,0,1.4-0.5,1.4-1
		C18.9,51.6,18.5,51.2,17.6,51.2z"/>
	<rect x="14.1" y="41.5" class="st0" width="4.7" height="0.8"/>
	<path class="st0" d="M17.6,53.8H17v0.8h0.8c0.2,0,0.4,0,0.4,0.2c0,0.2-0.2,0.2-0.4,0.2h-2.7c-0.2,0-0.4,0-0.4-0.2
		c0-0.2,0.2-0.2,0.4-0.2h0.7v-0.8h-0.5c-1,0-1.3,0.4-1.3,1c0,0.5,0.3,1,1.4,1h2.1c1.1,0,1.4-0.5,1.4-1
		C18.9,54.1,18.5,53.8,17.6,53.8z"/>
	<path class="st0" d="M18.8,46.4l-1.2-0.2v-0.4l1.2-0.1v-0.8l-4.7,0.4v1.1l4.7,0.6V46.4z M17,46.2L14.9,46l2.1-0.1V46.2z"/>
	<polygon class="st0" points="18.8,42.6 18.1,42.6 18.1,43.5 14.1,43.5 14.1,44.3 18.8,44.3 	"/>
	<polygon class="st0" points="18.8,50 16.6,50 16.6,49.6 18.8,49.6 18.8,48.7 14.1,48.7 14.1,49.6 15.9,49.6 15.9,50 14.1,50 
		14.1,50.8 18.8,50.8 	"/>
	<rect x="14.1" y="47.5" class="st0" width="4.7" height="0.8"/>
	<polygon class="st0" points="75.2,49.1 72.8,41.5 69.9,41.5 69.9,58.5 72.7,58.5 72.7,49.6 75.5,58.5 77.7,58.5 77.7,41.5 
		75.2,41.5 	"/>
	<polygon class="st0" points="25,50.5 22.8,41.5 20.1,41.5 20.1,58.5 22.5,58.5 22.5,49.7 24,58.5 25.9,58.5 27.7,49.7 27.7,58.5 
		30.3,58.5 30.3,41.5 27.5,41.5 	"/>
	<path class="st0" d="M86.4,45.9c0-3.7-1.7-4.7-3.6-4.7c-1.9,0-3.6,1-3.6,4.7v8.2c0,3.7,1.7,4.7,3.6,4.7c1.9,0,3.6-1,3.6-4.7V45.9z
		 M83.9,55c0,0.6-0.5,1.3-1.1,1.3c-0.6,0-1.1-0.6-1.1-1.3V45c0-0.6,0.5-1.3,1.1-1.3c0.6,0,1.1,0.6,1.1,1.3V55z"/>
	<path class="st0" d="M87.2,57c-0.4,0-0.8,0.3-0.8,0.8s0.4,0.8,0.8,0.8s0.8-0.3,0.8-0.8S87.6,57,87.2,57z M87.2,58.4
		c-0.4,0-0.6-0.3-0.6-0.6c0-0.4,0.3-0.6,0.6-0.6c0.4,0,0.6,0.3,0.6,0.6C87.8,58.1,87.5,58.4,87.2,58.4z"/>
	<rect x="65.9" y="41.5" class="st0" width="2.8" height="17"/>
	<path class="st0" d="M87.5,57.6c0-0.2-0.1-0.2-0.3-0.2h-0.4v0.9H87v-0.4h0.2l0.2,0.4h0.2l-0.3-0.4C87.4,57.8,87.5,57.8,87.5,57.6z
		 M87,57.7v-0.3h0.2c0.1,0,0.2,0,0.2,0.1c0,0.1-0.1,0.1-0.2,0.1H87z"/>
	<path class="st0" d="M35.3,41.2c-1.9,0-3.6,1-3.6,4.7v8.2c0,3.7,1.7,4.7,3.6,4.7c1.9,0,3.6-1,3.6-4.7v-8.2
		C38.9,42.2,37.2,41.2,35.3,41.2z M36.4,55c0,0.6-0.5,1.3-1.1,1.3c-0.6,0-1.1-0.6-1.1-1.3V45c0-0.6,0.5-1.3,1.1-1.3
		c0.6,0,1.1,0.6,1.1,1.3V55z"/>
	<path class="st0" d="M43.8,41.2c-1.9,0-3.6,1-3.6,4.7v0.6c0,0.2,0,1.7,1.4,2.7c1.6,1,3.2,1.9,3.2,3.6V55c0,0.6-0.4,1.3-1,1.3
		c-0.6,0-1-0.6-1-1.3v-2.2h-2.6v1.3c0,3.7,1.7,4.7,3.6,4.7c2.4,0,3.6-1.4,3.6-4.5v-1.6h0c0-3-2.4-4.4-3.4-4.9
		c-0.8-0.4-1.1-1.3-1.2-1.4V45c0-0.6,0.4-1.3,1-1.3c0.6,0,1,0.6,1,1.3v1.5h2.6v-1C47.4,42,45.9,41.2,43.8,41.2z"/>
	<path class="st0" d="M52.3,41.2c-1.9,0-3.5,1-3.5,4.7v8.2c0,3.7,1.7,4.7,3.5,4.7c2.4,0,3.6-1.4,3.6-4.5v-1.7h-2.6V55
		c0,0.6-0.4,1.3-1,1.3c-0.6,0-1-0.6-1-1.3V45c0-0.6,0.4-1.3,1-1.3c0.6,0,1,0.6,1,1.3v2.2h2.6v-1.8C55.9,42,54.4,41.2,52.3,41.2z"/>
	<polygon class="st0" points="62,48.9 59.7,48.9 59.7,41.5 57.2,41.5 57.2,58.5 59.7,58.5 59.7,51 62,51 62,58.5 64.4,58.5 
		64.4,41.5 62,41.5 	"/>
</g>
</svg>
