<?xml version="1.0" encoding="utf-8"?>
<!-- Generator: Adobe Illustrator 21.0.2, SVG Export Plug-In . SVG Version: 6.00 Build 0)  -->
<svg version="1.1" id="Layer_1" xmlns="http://www.w3.org/2000/svg" xmlns:xlink="http://www.w3.org/1999/xlink" x="0px" y="0px"
	 viewBox="0 0 52 52" style="enable-background:new 0 0 52 52;" xml:space="preserve">
<style type="text/css">
	.st0{fill:#FFE2A7;}
	.st1{fill:none;stroke:#3C3950;stroke-width:2;stroke-linecap:round;stroke-linejoin:round;stroke-miterlimit:10;}
	.st2{fill:#91D3BF;}
	.st3{fill:#98C496;}
</style>
<g>
	<g>
		<g>
			<path class="st3" d="M34.4,9.8c-3.9,0-7.5-2.8-14.5-0.5c0,0-6.4,2.3-9.1,11.6c0,0,9.5,2.4,14.3-0.1C31.4,17.8,34.4,9.8,34.4,9.8z
				"/>
		</g>
		<g>
			<path class="st3" d="M3.3,31c2,3.3,1.3,7.9,6.8,12.8c0,0,5.2,4.4,14.6,2.1c0,0-2.7-9.5-7.3-12.3C11.7,29.6,3.3,31.1,3.3,31z"/>
		</g>
		<g>
			<path class="st3" d="M38.1,47.3c1.9-3.4,6.2-5.1,7.7-12.3c0,0,1.2-6.7-5.5-13.7c0,0-6.9,7-7,12.5C32.7,40.8,38.1,47.3,38.1,47.3z
				"/>
		</g>
	</g>
	<g>
		<g>
			<path class="st1" d="M37.3,6.1c-3.9,0-7.5-2.8-14.5-0.5c0,0-6.4,2.3-9.1,11.6c0,0,9.5,2.4,14.3-0.1C34.3,14.1,37.3,6.1,37.3,6.1z
				"/>
			<path class="st1" d="M30.6,9.4c0,0-14.5,1.5-20.5,12.5"/>
		</g>
		<g>
			<path class="st1" d="M6.2,27.3c2,3.3,1.3,7.9,6.8,12.8c0,0,5.2,4.4,14.6,2.1c0,0-2.7-9.5-7.3-12.3C14.5,25.9,6.2,27.3,6.2,27.3z"
				/>
			<path class="st1" d="M12.4,31.5c0,0,8.5,11.8,21.1,11.5"/>
		</g>
		<g>
			<path class="st1" d="M41,43.6c1.9-3.4,6.2-5.1,7.7-12.3c0,0,1.2-6.7-5.5-13.7c0,0-6.9,7-7,12.5C35.5,37,41,43.6,41,43.6z"/>
			<path class="st1" d="M41.5,36.1c0,0,6-13.3-0.6-24"/>
		</g>
	</g>
</g>
</svg>
