<?xml version="1.0" encoding="utf-8"?>
<!-- Generator: Adobe Illustrator 21.0.2, SVG Export Plug-In . SVG Version: 6.00 Build 0)  -->
<svg version="1.1" id="Layer_1" xmlns="http://www.w3.org/2000/svg" xmlns:xlink="http://www.w3.org/1999/xlink" x="0px" y="0px"
	 viewBox="0 0 52 52" style="enable-background:new 0 0 52 52;" xml:space="preserve">
<style type="text/css">
	.st0{fill:#FFE2A7;}
	.st1{fill:none;stroke:#3C3950;stroke-width:2;stroke-linecap:round;stroke-linejoin:round;stroke-miterlimit:10;}
	.st2{fill:#91D3BF;}
	.st3{fill:#98C496;}
</style>
<g>
	<path class="st0" d="M40.5,12.9c0-0.2,0-0.3,0-0.5c0-5.4-4.4-9.8-9.8-9.8c-4.5,0-8.3,3-9.4,7.1c-0.7-0.1-1.4-0.2-2.1-0.2
		c-6.2,0-11.2,5-11.2,11.2s5,11.2,11.2,11.2h18.9c5.3,0,9.6-4.3,9.6-9.6C47.7,17.8,44.6,14,40.5,12.9z"/>
	<g>
		<path class="st1" d="M36.8,16.3c0-0.2,0-0.3,0-0.5c0-5.4-4.4-9.8-9.8-9.8c-4.5,0-8.3,3-9.4,7.1c-0.7-0.1-1.4-0.2-2.1-0.2
			c-6.2,0-11.2,5-11.2,11.2s5,11.2,11.2,11.2h18.9c5.3,0,9.6-4.3,9.6-9.6C44.1,21.1,41,17.4,36.8,16.3z"/>
		<path class="st1" d="M27,35.2h-4.7c-0.6,10.8-1.8,14.2-1.8,14.2h4.2h4.2C28.9,49.4,27.6,46.1,27,35.2z"/>
		<line class="st1" x1="27.6" y1="42.3" x2="31.8" y2="38.5"/>
		<path class="st1" d="M26.7,30.3c1.5-1.6,1.4-4.1-0.2-5.5c-1.6-1.5-4.1-1.4-5.5,0.2v0c0-2.8-2.3-5.1-5.1-5.1
			c-2.8,0-5.1,2.3-5.1,5.1"/>
	</g>
</g>
</svg>
