<?xml version="1.0" encoding="utf-8"?>
<!-- Generator: Adobe Illustrator 21.0.2, SVG Export Plug-In . SVG Version: 6.00 Build 0)  -->
<svg version="1.1" id="Layer_1" xmlns="http://www.w3.org/2000/svg" xmlns:xlink="http://www.w3.org/1999/xlink" x="0px" y="0px"
	 viewBox="0 0 52 52" style="enable-background:new 0 0 52 52;" xml:space="preserve">
<style type="text/css">
	.st0{fill:#FFE2A7;}
	.st1{fill:none;stroke:#3C3950;stroke-width:2;stroke-linecap:round;stroke-linejoin:round;stroke-miterlimit:10;}
	.st2{fill:#91D3BF;}
	.st3{fill:#98C496;}
</style>
<g>
	<g>
		<ellipse class="st0" cx="8.7" cy="33.2" rx="8.1" ry="7.7"/>
		<ellipse class="st0" cx="39.7" cy="33.2" rx="8.1" ry="7.7"/>
	</g>
	<g>
		<circle class="st1" cx="12.4" cy="36.3" r="7.8"/>
		<circle class="st1" cx="43.7" cy="36.3" r="7.8"/>
		<polyline class="st1" points="12.4,36.3 17.4,22.6 38,22.6 43.7,36.3 		"/>
		<polyline class="st1" points="12.4,36.3 38,22.6 38,15.2 		"/>
		<line class="st1" x1="17.4" y1="22.6" x2="17.4" y2="18.3"/>
		<path class="st1" d="M31.5,7.9h8.7c2,0,3.7,1.6,3.7,3.7l0,0c0,2-1.6,3.7-3.7,3.7H38"/>
		<path class="st1" d="M29.1,11.3h8.7c2,0,3.7,1.6,3.7,3.7l0,0"/>
		<path class="st1" d="M19.4,18.2h-3.9c-1.4,0-2.5-1.1-2.5-2.5v0c0-1.4,1.1-2.5,2.5-2.5h3.9c1.4,0,2.5,1.1,2.5,2.5v0
			C21.8,17.1,20.7,18.2,19.4,18.2z"/>
	</g>
</g>
</svg>
