<?xml version="1.0" encoding="utf-8"?>
<!-- Generator: Adobe Illustrator 21.0.2, SVG Export Plug-In . SVG Version: 6.00 Build 0)  -->
<svg version="1.1" id="Layer_1" xmlns="http://www.w3.org/2000/svg" xmlns:xlink="http://www.w3.org/1999/xlink" x="0px" y="0px"
	 viewBox="0 0 52 52" style="enable-background:new 0 0 52 52;" xml:space="preserve">
<style type="text/css">
	.st0{fill:#FFE2A7;}
	.st1{fill:none;stroke:#3C3950;stroke-width:2;stroke-linecap:round;stroke-linejoin:round;stroke-miterlimit:10;}
	.st2{fill:#91D3BF;}
	.st3{fill:#98C496;}
</style>
<g>
	<g>
		<g>
			<path class="st3" d="M45.5,8.7c0,0-19-3-16,15.8C48.5,27.5,45.5,8.7,45.5,8.7z"/>
		</g>
		<g>
			<path class="st3" d="M12.4,5.8c0,0,19-3,16,15.8C9.4,24.6,12.4,5.8,12.4,5.8z"/>
		</g>
	</g>
	<g>
		<g>
			<g>
				<path class="st1" d="M42.9,6.5c0,0-19.7-3.1-16.6,16.6C46.1,26.2,42.9,6.5,42.9,6.5z"/>
				<line class="st1" x1="37.8" y1="11.6" x2="26.3" y2="23.1"/>
			</g>
			<g>
				<path class="st1" d="M9.1,6.5c0,0,19.7-3.1,16.6,16.6C5.9,26.2,9.1,6.5,9.1,6.5z"/>
				<line class="st1" x1="14.9" y1="12.3" x2="25.7" y2="23.1"/>
			</g>
			<path class="st1" d="M27.2,31.5c-0.3-1.8-0.7-4.6-0.8-8.7h-0.9c-0.2,5-0.6,8-1,9.8C24.6,32.5,26.2,32,27.2,31.5z"/>
		</g>
		<g>
			<path class="st1" d="M17.1,35.3l-6.3-3.8c-2-1.2-4.5-0.6-5.7,1.4l0,0c-0.7,1.1-0.3,2.6,0.8,3.3l5.3,3.3l7,4.3
				c5.4,3.3,12.7,3.4,18,0.8c0,0,4.9-2.8,11.2-1.9V30.1l-4.7-2.6c-5.3-3-12.1,2.1-12.1,2.1c-2.6,1.7-4.8,2.8-7.8,3.4
				c-1.1,0.2-2.5,0.2-3.5,0.7c-1.3,0.6-2.3,1.5-2.6,2.9c-0.2,1,0.2,2.2,1,2.8c1.1,0.8,2.9,0.5,4.1,0.3c3.1-0.4,6.2-1.3,9.1-2.4
				c0,0,0.1,0,0.1,0"/>
			<path class="st1" d="M19.5,33.5l-6.8-4c-1.7-1.1-4-0.5-5.1,1.2l-0.2,0.4"/>
			<path class="st1" d="M23.4,32.8l-7.8-4.6c-1.6-1-3.6-0.6-4.7,0.7"/>
		</g>
	</g>
</g>
</svg>
