<?xml version="1.0" encoding="utf-8"?>
<!-- Generator: Adobe Illustrator 21.0.2, SVG Export Plug-In . SVG Version: 6.00 Build 0)  -->
<svg version="1.1" id="Layer_1" xmlns="http://www.w3.org/2000/svg" xmlns:xlink="http://www.w3.org/1999/xlink" x="0px" y="0px"
	 viewBox="0 0 52 52" style="enable-background:new 0 0 52 52;" xml:space="preserve">
<style type="text/css">
	.st0{fill:#FFE2A7;}
	.st1{fill:none;stroke:#3C3950;stroke-width:2;stroke-linecap:round;stroke-linejoin:round;stroke-miterlimit:10;}
	.st2{fill:#91D3BF;}
	.st3{fill:#98C496;}
</style>
<g>
	<g>
		<path class="st2" d="M29.2,24.2c1,0,2,0.3,2.8,0.7l5.6-9.8c-2.5-1.4-5.3-2.2-8.4-2.2c-3.1,0-5.9,0.8-8.4,2.2l5.6,9.8
			C27.3,24.4,28.2,24.2,29.2,24.2z"/>
		<path class="st2" d="M23.7,29.7L23.7,29.7H12.4l0,0c0,6.2,3.4,11.6,8.4,14.5l5.6-9.8C24.8,33.5,23.7,31.7,23.7,29.7z"/>
		<path class="st2" d="M46,29.7L46,29.7H34.7l0,0c0,2-1.1,3.8-2.8,4.8l5.6,9.8C42.6,41.3,46,35.9,46,29.7z"/>
	</g>
	<g>
		<circle class="st1" cx="26" cy="26" r="20.5"/>
		<g>
			<path class="st1" d="M26,20.7c1,0,2,0.3,2.8,0.7l5.6-9.8c-2.5-1.4-5.3-2.2-8.4-2.2c-3.1,0-5.9,0.8-8.4,2.2l5.6,9.8
				C24,20.9,25,20.7,26,20.7z"/>
			<path class="st1" d="M20.5,26.2L20.5,26.2H9.2l0,0c0,6.2,3.4,11.6,8.4,14.5l5.6-9.8C21.6,30,20.5,28.2,20.5,26.2z"/>
			<path class="st1" d="M42.8,26.2L42.8,26.2H31.5l0,0c0,2-1.1,3.8-2.8,4.8l5.6,9.8C39.4,37.8,42.8,32.4,42.8,26.2z"/>
		</g>
		<circle class="st1" cx="26" cy="26" r="2.7"/>
	</g>
</g>
</svg>
