<?xml version="1.0" encoding="utf-8"?>
<!-- Generator: Adobe Illustrator 21.0.2, SVG Export Plug-In . SVG Version: 6.00 Build 0)  -->
<svg version="1.1" id="Layer_1" xmlns="http://www.w3.org/2000/svg" xmlns:xlink="http://www.w3.org/1999/xlink" x="0px" y="0px"
	 viewBox="0 0 52 52" style="enable-background:new 0 0 52 52;" xml:space="preserve">
<style type="text/css">
	.st0{fill:#FFE2A7;}
	.st1{fill:none;stroke:#3C3950;stroke-width:2;stroke-linecap:round;stroke-linejoin:round;stroke-miterlimit:10;}
	.st2{fill:#91D3BF;}
	.st3{fill:#98C496;}
</style>
<g>
	<ellipse class="st0" cx="29.9" cy="27.2" rx="14.3" ry="13.6"/>
	<g>
		<g>
			<path class="st1" d="M16.9,33.7L16.9,33.7c0,0,2.4,1.8,3.7,6.6h10.9c1.3-4.7,3.7-6.6,3.7-6.6h0c2.9-2.5,4.7-6.2,4.7-10.4
				c0-7.6-6.2-13.8-13.8-13.8s-13.8,6.2-13.8,13.8C12.2,27.5,14,31.2,16.9,33.7z"/>
			<rect x="20.5" y="40.3" class="st1" width="10.9" height="6.8"/>
			<path class="st1" d="M22.9,47.1c0,1.7,1.4,3.1,3.1,3.1c1.7,0,3.1-1.4,3.1-3.1H22.9z"/>
			<line class="st1" x1="20.5" y1="43.7" x2="31.5" y2="43.7"/>
			<path class="st1" d="M29.1,40.3c0,0,0-10.9,4.4-14.3H26h-7.5c4.4,3.4,4.4,14.3,4.4,14.3"/>
		</g>
		<g>
			<line class="st1" x1="26" y1="1.9" x2="26" y2="5.6"/>
			<line class="st1" x1="15.2" y1="4.8" x2="17.1" y2="8"/>
			<line class="st1" x1="7.3" y1="12.7" x2="10.5" y2="14.6"/>
			<line class="st1" x1="44.7" y1="12.7" x2="41.5" y2="14.6"/>
			<line class="st1" x1="36.8" y1="4.8" x2="34.9" y2="8"/>
		</g>
	</g>
</g>
</svg>
