<?xml version="1.0" encoding="utf-8"?>
<!-- Generator: Adobe Illustrator 21.0.2, SVG Export Plug-In . SVG Version: 6.00 Build 0)  -->
<svg version="1.1" id="Layer_1" xmlns="http://www.w3.org/2000/svg" xmlns:xlink="http://www.w3.org/1999/xlink" x="0px" y="0px"
	 viewBox="0 0 52 52" style="enable-background:new 0 0 52 52;" xml:space="preserve">
<style type="text/css">
	.st0{fill:#FFE2A7;}
	.st1{fill:none;stroke:#3C3950;stroke-width:2;stroke-linecap:round;stroke-linejoin:round;stroke-miterlimit:10;}
	.st2{fill:#91D3BF;}
	.st3{fill:#98C496;}
</style>
<g>
	<path class="st2" d="M38.3,16c-9.6-11.9-10-14.1-10-14.1S28,4.1,18.4,16c0,0-10.2,10.2-5,21.6l0,0c2.4,5.9,8.2,10.1,15,10.1
		c6.8,0,12.6-4.2,15-10.1l0,0C48.6,26.2,38.3,16,38.3,16z"/>
	<g>
		<path class="st1" d="M33.5,18.6c-9.5-11.8-9.9-14-9.9-14s-0.4,2.2-9.9,14c0,0-10.2,10.2-4.9,21.4l0,0c2.4,5.9,8.1,10,14.9,10
			c6.7,0,12.5-4.1,14.9-10l0,0C43.7,28.8,33.5,18.6,33.5,18.6z"/>
		<path class="st1" d="M23.6,44.1c-6.3,0-11.4-5.1-11.4-11.4"/>
	</g>
</g>
</svg>
