<?xml version="1.0" encoding="utf-8"?>
<!-- Generator: Adobe Illustrator 21.0.2, SVG Export Plug-In . SVG Version: 6.00 Build 0)  -->
<svg version="1.1" id="Layer_1" xmlns="http://www.w3.org/2000/svg" xmlns:xlink="http://www.w3.org/1999/xlink" x="0px" y="0px"
	 viewBox="0 0 52 52" style="enable-background:new 0 0 52 52;" xml:space="preserve">
<style type="text/css">
	.st0{fill:#FFE2A7;}
	.st1{fill:none;stroke:#3C3950;stroke-width:2;stroke-linecap:round;stroke-linejoin:round;stroke-miterlimit:10;}
	.st2{fill:#91D3BF;}
	.st3{fill:#98C496;}
</style>
<g>
	<path class="st3" d="M44.3,19.2c-0.7-0.2-1.1-0.9-1.1-1.6l0,0c0-7-5.7-12.7-12.7-12.7h-8.6c-6.1,0-11.1,5-11.1,11.1v1.6
		c0,0.7-0.5,1.3-1.1,1.6C7.2,20,5.5,22.3,5.5,25v3c0,0.9,0.7,1.7,1.7,1.7h1.2c-0.1-0.3-0.1-0.6-0.1-0.9c0-2.6,2.1-4.8,4.8-4.8
		c2.6,0,4.8,2.1,4.8,4.8c0,0.3,0,0.6-0.1,0.9h17.8c-0.1-0.3-0.1-0.6-0.1-0.9c0-2.6,2.1-4.8,4.8-4.8c2.6,0,4.8,2.1,4.8,4.8
		c0,0.3,0,0.6-0.1,0.9h1.7c0.9,0,1.7-0.7,1.7-1.7v-3C48.4,22.3,46.7,20,44.3,19.2z M36.3,18.2H16.4v-3.4c0-3.3,2.8-5.9,6.2-5.9h6.5
		c4,0,7.3,3.1,7.3,7V18.2z"/>
	<g>
		<g>
			<circle class="st1" cx="15.7" cy="31.4" r="4.8"/>
			<circle class="st1" cx="42.9" cy="31.4" r="4.8"/>
		</g>
		<path class="st1" d="M31.7,11.5h-6.5c-3.4,0-6.2,2.7-6.2,5.9v3.4H39v-2.4C39,14.6,35.7,11.5,31.7,11.5z"/>
		<polyline class="st1" points="8.4,25.9 5.4,25.9 5.4,30.2 8.2,30.2 		"/>
		<path class="st1" d="M22.5,43h-17C3,43,1,41,1,38.6v-6.2c0-2.4,2-4.4,4.4-4.4"/>
		<g>
			<path class="st1" d="M22.5,43.5v-1.6c0-1.7,1.4-3,3-3h3v7.7h-3C23.8,46.5,22.5,45.2,22.5,43.5z"/>
			
				<rect x="25.2" y="41.6" transform="matrix(-1.836970e-16 1 -1 -1.836970e-16 72.2544 13.1555)" class="st1" width="8.8" height="2.1"/>
			<g>
				<line class="st1" x1="30.6" y1="40.4" x2="32.8" y2="40.4"/>
				<line class="st1" x1="30.6" y1="45" x2="32.8" y2="45"/>
			</g>
		</g>
		<line class="st1" x1="28.5" y1="11.5" x2="28.5" y2="20.8"/>
		<path class="st1" d="M46.9,21.8c-0.7-0.2-1.1-0.9-1.1-1.6v0c0-7-5.7-12.7-12.7-12.7h-8.6c-6.1,0-11.1,5-11.1,11.1v1.6
			c0,0.7-0.5,1.3-1.1,1.6c-2.4,0.8-4.1,3.1-4.1,5.8v3c0,0.9,0.7,1.7,1.7,1.7H11c-0.1-0.3-0.1-0.6-0.1-0.9c0-2.6,2.1-4.8,4.8-4.8
			s4.8,2.1,4.8,4.8c0,0.3,0,0.6-0.1,0.9h17.8c-0.1-0.3-0.1-0.6-0.1-0.9c0-2.6,2.1-4.8,4.8-4.8c2.6,0,4.8,2.1,4.8,4.8
			c0,0.3,0,0.6-0.1,0.9h1.7c0.9,0,1.7-0.7,1.7-1.7v-3C51,24.9,49.3,22.7,46.9,21.8z"/>
	</g>
</g>
</svg>
