<?xml version="1.0" encoding="utf-8"?>
<!-- Generator: Adobe Illustrator 21.0.2, SVG Export Plug-In . SVG Version: 6.00 Build 0)  -->
<svg version="1.1" id="Layer_1" xmlns="http://www.w3.org/2000/svg" xmlns:xlink="http://www.w3.org/1999/xlink" x="0px" y="0px"
	 viewBox="0 0 32 32" style="enable-background:new 0 0 32 32;" xml:space="preserve">
<style type="text/css">
	.st0{fill:#3C3950;}
</style>
<path class="st0" d="M0,5v2h17c0.6,0,1,0.4,1,1v15H9.8c-0.4-1.2-1.5-2-2.8-2c-1.3,0-2.4,0.8-2.8,2H3c-0.6,0-1-0.4-1-1v-1H0v1
	c0,1.6,1.4,3,3,3h1.2c0.4,1.2,1.5,2,2.8,2c1.3,0,2.4-0.8,2.8-2h12.3c0.4,1.2,1.5,2,2.8,2s2.4-0.8,2.8-2H29c1.6,0,3-1.4,3-3v-3.4
	c0-0.6-0.2-1.2-0.5-1.7l-3.1-4.6c-0.6-0.8-1.5-1.3-2.5-1.3H20V8c0-1.6-1.4-3-3-3H0z M0,9v2h14V9H0z M0,13v2h10v-2H0z M20,13h5.9
	c0.3,0,0.6,0.2,0.8,0.4v0l3.1,4.6c0.1,0.2,0.2,0.4,0.2,0.6V22c0,0.6-0.4,1-1,1h-1.2c-0.4-1.2-1.5-2-2.8-2s-2.4,0.8-2.8,2H20V13z
	 M0,17v2h6v-2H0z M7,23c0.6,0,1,0.4,1,1s-0.4,1-1,1s-1-0.4-1-1S6.4,23,7,23z M24.9,23c0.6,0,1,0.4,1,1s-0.4,1-1,1s-1-0.4-1-1
	S24.4,23,24.9,23z"/>
</svg>
