<?xml version="1.0" encoding="utf-8"?>
<!-- Generator: Adobe Illustrator 21.0.2, SVG Export Plug-In . SVG Version: 6.00 Build 0)  -->
<svg version="1.1" id="Layer_1" xmlns="http://www.w3.org/2000/svg" xmlns:xlink="http://www.w3.org/1999/xlink" x="0px" y="0px"
	 viewBox="0 0 32 32" style="enable-background:new 0 0 32 32;" xml:space="preserve">
<style type="text/css">
	.st0{fill:#3C3950;}
</style>
<path class="st0" d="M15.9,2c-0.2,0-0.4,0.1-0.6,0.3l-2.4,2.2L9.7,3.8c-0.5-0.1-1,0.2-1.2,0.7l-1,3.1l-3.1,1
	C3.9,8.7,3.7,9.2,3.8,9.7l0.7,3.2l-2.2,2.4c-0.3,0.4-0.3,1,0,1.3l2.2,2.4l-0.7,3.2c-0.1,0.5,0.2,1,0.7,1.2l3.1,1l1,3.1
	c0.2,0.5,0.7,0.8,1.2,0.7l3.2-0.7l2.4,2.2c0.4,0.3,1,0.3,1.3,0l2.4-2.2l3.2,0.7c0.5,0.1,1-0.2,1.2-0.7l1-3.1l3.1-1
	c0.5-0.2,0.8-0.7,0.7-1.2l-0.7-3.2l2.2-2.4c0.3-0.4,0.3-1,0-1.3l-2.2-2.4l0.7-3.2c0.1-0.5-0.2-1-0.7-1.2l-3.1-1l-1-3.1
	c-0.2-0.5-0.7-0.8-1.2-0.7l-3.2,0.7l-2.4-2.2C16.5,2.1,16.3,2,16,2C16,2,16,2,15.9,2z M16,4.4l2.1,1.9c0.2,0.2,0.6,0.3,0.9,0.2
	l2.8-0.6l0.9,2.7C22.8,9,23,9.2,23.4,9.3l2.7,0.9L25.5,13c-0.1,0.3,0,0.6,0.2,0.9l1.9,2.1l-1.9,2.1c-0.2,0.2-0.3,0.6-0.2,0.9
	l0.6,2.8l-2.7,0.9c-0.3,0.1-0.5,0.3-0.6,0.6l-0.9,2.7L19,25.5c-0.3-0.1-0.6,0-0.9,0.2L16,27.7l-2.1-1.9c-0.2-0.2-0.6-0.3-0.9-0.2
	l-2.8,0.6l-0.9-2.7C9.2,23,9,22.8,8.6,22.7l-2.7-0.9L6.5,19c0.1-0.3,0-0.6-0.2-0.9L4.4,16l1.9-2.1c0.2-0.2,0.3-0.6,0.2-0.9l-0.6-2.8
	l2.7-0.9C9,9.2,9.2,9,9.3,8.6l0.9-2.7L13,6.5c0.3,0.1,0.6,0,0.9-0.2L16,4.4z M12,10c-1.1,0-2,0.9-2,2s0.9,2,2,2s2-0.9,2-2
	S13.1,10,12,10z M18,10l-6,10v2h2l6-10v-2H18z M20,18c-1.1,0-2,0.9-2,2s0.9,2,2,2s2-0.9,2-2S21.1,18,20,18z"/>
</svg>
