<?xml version="1.0" encoding="utf-8"?>
<!-- Generator: Adobe Illustrator 21.0.2, SVG Export Plug-In . SVG Version: 6.00 Build 0)  -->
<svg version="1.1" id="Layer_1" xmlns="http://www.w3.org/2000/svg" xmlns:xlink="http://www.w3.org/1999/xlink" x="0px" y="0px"
	 viewBox="0 0 42 42" style="enable-background:new 0 0 42 42;" xml:space="preserve">
<path d="M11.813,1.292L5.25,12.776v19.339c0,2.543,2.092,4.635,4.635,4.635h3.855c2.543,0,4.635-2.092,4.635-4.635V12.776
	L11.813,1.292z M27.563,2.625c-2.164,0-3.938,1.774-3.938,3.938v26.25c0,2.164,1.774,3.938,3.938,3.938h5.25
	c2.164,0,3.938-1.774,3.938-3.938V6.562c0-2.164-1.774-3.938-3.938-3.938H27.563z M27.563,5.25h5.25
	c0.749,0,1.313,0.564,1.313,1.313v3.948h-5.168v2.625h5.168v5.24h-5.199V21h5.199v5.25h-5.25v2.625h5.25v3.937
	c0,0.749-0.564,1.313-1.313,1.313h-5.25c-0.749,0-1.313-0.564-1.313-1.313V6.562C26.25,5.814,26.814,5.25,27.563,5.25z
	 M11.813,6.583l3.938,6.891v18.642c0,1.128-0.882,2.01-2.01,2.01H9.885c-1.128,0-2.01-0.882-2.01-2.01V13.474L11.813,6.583z"/>
</svg>
