<?xml version="1.0" encoding="utf-8"?>
<!-- Generator: Adobe Illustrator 21.0.2, SVG Export Plug-In . SVG Version: 6.00 Build 0)  -->
<svg version="1.1" id="Layer_1" xmlns="http://www.w3.org/2000/svg" xmlns:xlink="http://www.w3.org/1999/xlink" x="0px" y="0px"
	 viewBox="0 0 42 42" style="enable-background:new 0 0 42 42;" xml:space="preserve">
<path d="M6.563,5.25c-2.164,0-3.938,1.774-3.938,3.938v21c0,2.164,1.774,3.937,3.938,3.937h28.875c2.164,0,3.938-1.774,3.938-3.937
	v-21c0-2.164-1.774-3.938-3.938-3.938H6.563z M6.563,7.875h28.875c0.738,0,1.313,0.574,1.313,1.313v21
	c0,0.738-0.574,1.313-1.313,1.313H6.563c-0.738,0-1.313-0.574-1.313-1.313v-21C5.25,8.449,5.824,7.875,6.563,7.875z M9.188,10.5
	c-0.728,0-1.313,0.584-1.313,1.313v6.563H10.5v-5.25h5.25V10.5H9.188z M31.5,21v5.25h-5.25v2.625h6.563
	c0.728,0,1.313-0.584,1.313-1.313V21H31.5z"/>
</svg>
