<?xml version="1.0" encoding="utf-8"?>
<!-- Generator: Adobe Illustrator 21.0.2, SVG Export Plug-In . SVG Version: 6.00 Build 0)  -->
<svg version="1.1" id="Layer_1" xmlns="http://www.w3.org/2000/svg" xmlns:xlink="http://www.w3.org/1999/xlink" x="0px" y="0px"
	 viewBox="0 0 42 42" style="enable-background:new 0 0 42 42;" xml:space="preserve">
<path d="M15.094,2.686l-1.846,1.846l3.333,3.343L6.398,18.047c-1.528,1.528-1.518,4.05,0,5.578l9.413,9.403
	c1.528,1.538,4.05,1.528,5.578,0L33.417,21L19.031,6.624l-0.595-0.605L15.094,2.686z M18.437,9.731L29.706,21L19.523,31.172
	c-0.523,0.533-1.333,0.533-1.846,0l-9.413-9.413c-0.533-0.523-0.533-1.323,0-1.846L18.437,9.731z M32.813,23.625l-1.159,2.174
	c0,0-0.667,1.271-1.343,2.717c-0.338,0.728-0.677,1.518-0.943,2.235c-0.267,0.718-0.492,1.302-0.492,2.061
	c0,2.164,1.774,3.938,3.938,3.938s3.938-1.774,3.938-3.938c0-0.759-0.226-1.343-0.492-2.061c-0.267-0.718-0.605-1.507-0.943-2.235
	c-0.677-1.446-1.343-2.717-1.343-2.717L32.813,23.625z M32.813,29.377c0.062,0.133,0.062,0.123,0.123,0.246
	c0.318,0.697,0.636,1.425,0.861,2.041c0.226,0.605,0.328,1.189,0.328,1.148c0,0.728-0.584,1.313-1.313,1.313S31.5,33.54,31.5,32.812
	c0,0.041,0.103-0.543,0.328-1.148c0.226-0.615,0.543-1.343,0.861-2.041C32.751,29.5,32.751,29.511,32.813,29.377z"/>
</svg>
