<?xml version="1.0" encoding="utf-8"?>
<!-- Generator: Adobe Illustrator 24.3.0, SVG Export Plug-In . SVG Version: 6.00 Build 0)  -->
<svg version="1.1" id="Слой_1" xmlns="http://www.w3.org/2000/svg" xmlns:xlink="http://www.w3.org/1999/xlink" x="0px" y="0px"
	 viewBox="0 0 68.8 69.5" style="enable-background:new 0 0 68.8 69.5;" xml:space="preserve">
<style type="text/css">
	.st0{fill:#FFFFFF;}
</style>
<g>
	<g>
		<path class="st0" d="M62.1,48.1c0-0.6-0.5-1-1-1h-0.9L60,46.9V47h-2.1V22.5H61c0.3,0,0.6-0.1,0.7-0.3c0.2-0.2,0.3-0.4,0.3-0.7
			v-7.2h0.1l-0.1-0.1v-0.9c0-0.6-0.5-1-1-1h-0.9L60,12v0.1h-6.2V12l-0.1,0.1h-0.9c-0.6,0-1,0.5-1,1v0.9l-0.1,0.1h0.1v2.1H17.1v-2.1
			h0.1l-0.1-0.1v-0.9c0-0.6-0.5-1-1-1h-0.9L15,12v0.1H8.8V12l-0.1,0.1H7.8c-0.6,0-1,0.5-1,1v0.9l-0.1,0.1h0.1v6.2H6.6l0.1,0.1v0.9
			c0,0.6,0.5,1,1,1h0.9l0.1,0.1v-0.1h2.1V47H8.8v-0.1L8.7,47H7.8c-0.6,0-1,0.5-1,1V49l-0.1,0.1h0.1v6.2H6.6l0.1,0.1v0.9
			c0,0.6,0.5,1,1,1h0.9l0.1,0.1v-0.1h7.2c0.3,0,0.6-0.1,0.8-0.4c0.1-0.2,0.2-0.4,0.2-0.7v-3.1h34.5v2.1h-0.1l0.1,0.1v0.9
			c0,0.6,0.5,1,1,1h0.9l0.1,0.1v-0.1H61c0.3,0,0.6-0.1,0.7-0.3c0.2-0.2,0.3-0.4,0.3-0.7v-7.2h0.1L62.1,49V48.1z M15,49.1v6.2H8.8
			v-6.2H15z M53.8,20.4v-6.2H60v6.2H53.8z M17.1,49v-0.9c0-0.6-0.5-1-1-1h-0.9L15,46.9V47h-2V22.5h3.1c0.3,0,0.6-0.1,0.8-0.4
			c0.1-0.2,0.2-0.4,0.2-0.7v-3.1h34.5v2h-0.1l0.1,0.1v0.9c0,0.6,0.5,1,1,1h0.9l0.1,0.1v-0.1h2V47h-2v-0.1L53.7,47h-0.9
			c-0.6,0-1,0.5-1,1V49l-0.1,0.1h0.1v2H17.1v-2h0.1L17.1,49z M15,20.4H8.8v-6.2H15V20.4z M53.8,49.1H60v6.2h-6.2V49.1z"/>
	</g>
</g>
</svg>
