<?xml version="1.0" encoding="utf-8"?>
<!-- Generator: Adobe Illustrator 21.0.2, SVG Export Plug-In . SVG Version: 6.00 Build 0)  -->
<svg version="1.1" id="Layer_1" xmlns="http://www.w3.org/2000/svg" xmlns:xlink="http://www.w3.org/1999/xlink" x="0px" y="0px"
	 viewBox="0 0 56 56" style="enable-background:new 0 0 56 56;" xml:space="preserve">
<style type="text/css">
	.st0{fill:none;stroke:#EAEE55;stroke-miterlimit:10;}
	.st1{fill:#3C3950;}
	.st2{fill:none;stroke:#FFA1C3;stroke-miterlimit:10;}
	.st3{fill:none;stroke:#69FF7F;stroke-miterlimit:10;}
	.st4{fill:none;stroke:#67D1FF;stroke-miterlimit:10;}
</style>
<g>
	<circle class="st3" cx="28.2" cy="28.5" r="19.5"/>
	<g>
		<g>
			<g>
				<path class="st1" d="M28,6.1c-1.6,0-2.9-1.3-2.9-3c0-1.6,1.3-2.9,2.9-2.9c1.6,0,3,1.3,3,2.9C31,4.8,29.6,6.1,28,6.1z M28,1.2
					c-1.1,0-2,0.9-2,2c0,1.1,0.9,2,2,2c1.1,0,2-0.9,2-2C30,2.1,29.1,1.2,28,1.2z"/>
			</g>
			<g>
				<path class="st1" d="M28,15c-0.3,0-0.5-0.2-0.5-0.5V3.2c0-0.3,0.2-0.5,0.5-0.5c0.3,0,0.5,0.2,0.5,0.5v11.3
					C28.5,14.8,28.2,15,28,15z"/>
			</g>
			<g>
				<path class="st1" d="M45.5,13.4c-0.8,0-1.5-0.3-2.1-0.9c-1.1-1.1-1.1-3,0-4.2c0.6-0.6,1.3-0.9,2.1-0.9c0.8,0,1.5,0.3,2.1,0.9
					c0.6,0.6,0.9,1.3,0.9,2.1c0,0.8-0.3,1.5-0.9,2.1C47.1,13.1,46.3,13.4,45.5,13.4z M45.5,8.4c-0.5,0-1.1,0.2-1.4,0.6
					c-0.8,0.8-0.8,2.1,0,2.9c0.8,0.8,2.1,0.8,2.9,0c0.4-0.4,0.6-0.9,0.6-1.4c0-0.5-0.2-1.1-0.6-1.4C46.6,8.6,46.1,8.4,45.5,8.4z"/>
			</g>
			<g>
				<path class="st1" d="M35.1,21.8c-0.1,0-0.2,0-0.3-0.1c-0.1-0.1-0.1-0.2-0.1-0.3c0-0.1,0-0.2,0.1-0.3l10.4-10.9
					c0.2-0.2,0.5-0.2,0.6,0c0.1,0.1,0.1,0.2,0.1,0.3c0,0.1,0,0.2-0.1,0.3L35.5,21.7C35.4,21.8,35.2,21.8,35.1,21.8z"/>
			</g>
			<g>
				<path class="st1" d="M52.8,30.9c-1.6,0-2.9-1.3-2.9-3c0-1.6,1.3-2.9,2.9-2.9c1.6,0,2.9,1.3,2.9,2.9
					C55.8,29.6,54.4,30.9,52.8,30.9z M52.8,26c-1.1,0-2,0.9-2,2c0,1.1,0.9,2,2,2c1.1,0,2-0.9,2-2C54.8,26.9,53.9,26,52.8,26z"/>
			</g>
			<g>
				<path class="st1" d="M52.8,28.5h-8.1c-0.3,0-0.5-0.2-0.5-0.5c0-0.3,0.2-0.5,0.5-0.5h8.1c0.3,0,0.5,0.2,0.5,0.5
					C53.3,28.2,53.1,28.5,52.8,28.5z"/>
			</g>
			<g>
				<path class="st1" d="M45.5,48.5c-0.8,0-1.5-0.3-2.1-0.9c-1.1-1.2-1.1-3,0-4.2c0.6-0.6,1.3-0.9,2.1-0.9c0.8,0,1.5,0.3,2.1,0.9
					c0.6,0.6,0.9,1.3,0.9,2.1c0,0.8-0.3,1.5-0.9,2.1C47.1,48.2,46.3,48.5,45.5,48.5z M45.5,43.5c-0.5,0-1.1,0.2-1.4,0.6
					c-0.8,0.8-0.8,2.1,0,2.9c0.8,0.8,2.1,0.8,2.9,0c0.4-0.4,0.6-0.9,0.6-1.4c0-0.5-0.2-1.1-0.6-1.4C46.6,43.7,46.1,43.5,45.5,43.5z"
					/>
			</g>
			<g>
				<path class="st1" d="M45.5,46c-0.1,0-0.2,0-0.3-0.1l-9.3-9.3c-0.1-0.1-0.1-0.2-0.1-0.3c0-0.1,0-0.2,0.1-0.3
					c0.2-0.2,0.5-0.2,0.6,0l9.3,9.3c0.1,0.1,0.1,0.2,0.1,0.3c0,0.1,0,0.2-0.1,0.3C45.8,46,45.7,46,45.5,46z"/>
			</g>
			<g>
				<path class="st1" d="M28,55.8c-0.8,0-1.5-0.3-2.1-0.9c-0.6-0.6-0.9-1.3-0.9-2.1c0-1.6,1.3-2.9,3-2.9c1.6,0,2.9,1.3,2.9,3
					C31,54.4,29.6,55.8,28,55.8z M28,50.8c-1.1,0-2,0.9-2,2c0,0.5,0.2,1.1,0.6,1.4c0.4,0.4,0.9,0.6,1.4,0.6c1.1,0,2-0.9,2-2
					C30,51.7,29.1,50.8,28,50.8z"/>
			</g>
			<g>
				<path class="st1" d="M28,53.3c-0.3,0-0.5-0.2-0.5-0.5V36.2c0-0.3,0.2-0.5,0.5-0.5c0.3,0,0.5,0.2,0.5,0.5v16.6
					C28.5,53.1,28.3,53.3,28,53.3z"/>
			</g>
			<g>
				<path class="st1" d="M10.5,48.5c-0.8,0-1.5-0.3-2.1-0.9c-0.6-0.6-0.9-1.3-0.9-2.1c0-0.8,0.3-1.5,0.9-2.1
					c0.6-0.6,1.3-0.9,2.1-0.9c0.8,0,1.5,0.3,2.1,0.9c1.1,1.1,1.1,3,0,4.2C12,48.2,11.2,48.5,10.5,48.5z M10.5,43.5
					c-0.5,0-1.1,0.2-1.4,0.6c-0.4,0.4-0.6,0.9-0.6,1.4c0,0.5,0.2,1.1,0.6,1.4c0.8,0.8,2.1,0.8,2.9,0c0.8-0.8,0.8-2.1,0-2.9
					C11.5,43.7,11,43.5,10.5,43.5z"/>
			</g>
			<g>
				<path class="st1" d="M10.5,46c-0.1,0-0.2,0-0.3-0.1C10,45.8,10,45.7,10,45.5c0-0.1,0-0.2,0.1-0.3l9.3-9.3c0.2-0.2,0.5-0.2,0.6,0
					c0.1,0.1,0.1,0.2,0.1,0.3c0,0.1,0,0.2-0.1,0.3l-9.3,9.3C10.7,46,10.6,46,10.5,46z"/>
			</g>
			<g>
				<path class="st1" d="M3.2,30.9c-1.6,0-2.9-1.3-2.9-2.9c0-1.6,1.3-3,2.9-3c1.6,0,3,1.3,3,3C6.1,29.6,4.8,30.9,3.2,30.9z M3.2,26
					c-1.1,0-2,0.9-2,2c0,1.1,0.9,2,2,2c1.1,0,2-0.9,2-2C5.2,26.9,4.3,26,3.2,26z"/>
			</g>
			<g>
				<path class="st1" d="M13.3,28.5H3.2c-0.3,0-0.5-0.2-0.5-0.5s0.2-0.5,0.5-0.5h10.1c0.3,0,0.5,0.2,0.5,0.5S13.6,28.5,13.3,28.5z"
					/>
			</g>
			<g>
				<path class="st1" d="M10.5,13.4c-0.8,0-1.5-0.3-2.1-0.9c-0.6-0.6-0.9-1.3-0.9-2.1c0-0.8,0.3-1.5,0.9-2.1
					c0.6-0.6,1.3-0.9,2.1-0.9c0.8,0,1.5,0.3,2.1,0.9c0.6,0.6,0.9,1.3,0.9,2.1c0,0.8-0.3,1.5-0.9,2.1C12,13.1,11.2,13.4,10.5,13.4z
					 M10.5,8.4C9.9,8.4,9.4,8.6,9,9c-0.4,0.4-0.6,0.9-0.6,1.4c0,0.5,0.2,1.1,0.6,1.4c0.8,0.8,2.1,0.8,2.9,0c0.4-0.4,0.6-0.9,0.6-1.4
					c0-0.5-0.2-1.1-0.6-1.4C11.5,8.6,11,8.4,10.5,8.4z"/>
			</g>
			<g>
				<path class="st1" d="M19.7,20.1c-0.1,0-0.2,0-0.3-0.1l-9.2-9.2C10,10.7,10,10.6,10,10.5c0-0.1,0-0.2,0.1-0.3
					c0.2-0.2,0.5-0.2,0.6,0l9.2,9.2c0.1,0.1,0.1,0.2,0.1,0.3s0,0.2-0.1,0.3C19.9,20.1,19.8,20.1,19.7,20.1z"/>
			</g>
			<g>
				<path class="st1" d="M17.8,36.8c-3.1,0-5.7-2.5-5.8-5.6c-0.1-2.4,1.3-4.7,3.5-5.6c0.6-1.7,1.9-3.1,3.5-4c0-2,0.7-3.8,2-5.3
					c1.4-1.5,3.2-2.3,5.2-2.4c4-0.2,7.4,2.8,7.8,6.7c2.3,0.4,4.3,2.2,4.8,4.5c0.3-0.1,0.7-0.1,1-0.1c0.1,0,0.2,0,0.3,0
					c3.1,0,5.7,2.5,5.8,5.6c0.1,3.2-2.4,5.9-5.6,6.1c-1.9,0.1-3.9,0.1-6.4,0.1c-1.6,0-3.2,0-4.8,0c-1.6,0-3.2,0-4.7,0
					c-2.5,0-4.5,0-6.3,0.1C18,36.8,17.9,36.8,17.8,36.8z M26.5,14.8c-0.1,0-0.2,0-0.3,0c-1.8,0.1-3.4,0.8-4.6,2.1
					c-1.2,1.3-1.8,3-1.7,4.7l0,0.1c0,0.2-0.1,0.3-0.3,0.4c-1.6,0.8-2.8,2.1-3.3,3.8c0,0.1-0.1,0.2-0.3,0.3c-2,0.8-3.3,2.7-3.2,4.8
					c0.1,2.7,2.4,4.8,5.1,4.7c1.9-0.1,3.9-0.1,6.4-0.1c1.6,0,3.2,0,4.7,0c1.6,0,3.2,0,4.7,0c2.5,0,4.5,0,6.4-0.1
					c2.7-0.1,4.8-2.4,4.7-5.1c-0.1-2.7-2.4-4.8-5.1-4.7c-0.5,0-0.9,0.1-1.3,0.2c-0.1,0-0.3,0-0.4,0C38.1,26,38,25.8,38,25.7
					c-0.3-2.3-2.2-4-4.5-4.2c-0.2,0-0.4-0.2-0.4-0.4C32.9,17.5,30,14.8,26.5,14.8z"/>
			</g>
			<g>
				<path class="st1" d="M36.4,28c-0.3,0-0.5-0.2-0.5-0.5s0.2-0.5,0.5-0.5c0.9,0,1.6-0.6,1.6-1.4c0-0.3,0.2-0.5,0.5-0.5
					c0.3,0,0.5,0.2,0.5,0.5C38.9,26.9,37.8,28,36.4,28z"/>
			</g>
		</g>
	</g>
</g>
</svg>
