<?xml version="1.0" encoding="utf-8"?>
<!-- Generator: Adobe Illustrator 21.0.2, SVG Export Plug-In . SVG Version: 6.00 Build 0)  -->
<svg version="1.1" id="Layer_1" xmlns="http://www.w3.org/2000/svg" xmlns:xlink="http://www.w3.org/1999/xlink" x="0px" y="0px"
	 viewBox="0 0 56 56" style="enable-background:new 0 0 56 56;" xml:space="preserve">
<style type="text/css">
	.st0{fill:none;stroke:#EAEE55;stroke-miterlimit:10;}
	.st1{fill:#3C3950;}
	.st2{fill:none;stroke:#FFA1C3;stroke-miterlimit:10;}
	.st3{fill:none;stroke:#69FF7F;stroke-miterlimit:10;}
	.st4{fill:none;stroke:#67D1FF;stroke-miterlimit:10;}
</style>
<g>
	<circle class="st0" cx="28.2" cy="27.8" r="18.5"/>
	<g>
		<g>
			<g>
				<path class="st1" d="M28.1,50.1c-12.3,0-22.4-10-22.4-22.4c0-12.3,10-22.4,22.4-22.4c12.3,0,22.4,10,22.4,22.4
					C50.5,40,40.4,50.1,28.1,50.1z M28.1,6.3c-11.8,0-21.4,9.6-21.4,21.4c0,11.8,9.6,21.4,21.4,21.4c11.8,0,21.4-9.6,21.4-21.4
					C49.5,15.9,39.9,6.3,28.1,6.3z"/>
			</g>
			<g>
				<path class="st1" d="M28.1,43.2c-8.6,0-15.5-7-15.5-15.5c0-8.6,7-15.5,15.5-15.5c8.6,0,15.5,7,15.5,15.5
					C43.6,36.3,36.7,43.2,28.1,43.2z M28.1,13.1c-8.1,0-14.6,6.6-14.6,14.6c0,8.1,6.6,14.6,14.6,14.6s14.6-6.6,14.6-14.6
					C42.7,19.6,36.2,13.1,28.1,13.1z"/>
			</g>
			<g>
				<path class="st1" d="M28.1,33.9c-3.4,0-6.2-2.8-6.2-6.2c0-3.4,2.8-6.2,6.2-6.2s6.2,2.8,6.2,6.2C34.3,31.1,31.5,33.9,28.1,33.9z
					 M28.1,22.4c-2.9,0-5.3,2.4-5.3,5.3c0,2.9,2.4,5.3,5.3,5.3s5.3-2.4,5.3-5.3C33.4,24.8,31,22.4,28.1,22.4z"/>
			</g>
			<g>
				<path class="st1" d="M28.1,13.1c-0.3,0-0.5-0.2-0.5-0.5V0.9c0-0.3,0.2-0.5,0.5-0.5c0.3,0,0.5,0.2,0.5,0.5v11.7
					C28.6,12.9,28.4,13.1,28.1,13.1z"/>
			</g>
			<g>
				<path class="st1" d="M55.3,28.2H43.2c-0.3,0-0.5-0.2-0.5-0.5c0-0.3,0.2-0.5,0.5-0.5h12.1c0.3,0,0.5,0.2,0.5,0.5
					C55.8,27.9,55.6,28.2,55.3,28.2z"/>
			</g>
			<g>
				<path class="st1" d="M28.1,55.6c-0.3,0-0.5-0.2-0.5-0.5V42.7c0-0.3,0.2-0.5,0.5-0.5c0.3,0,0.5,0.2,0.5,0.5v12.4
					C28.6,55.4,28.4,55.6,28.1,55.6z"/>
			</g>
			<g>
				<path class="st1" d="M13,28.2H0.7c-0.3,0-0.5-0.2-0.5-0.5c0-0.3,0.2-0.5,0.5-0.5H13c0.3,0,0.5,0.2,0.5,0.5
					C13.5,27.9,13.3,28.2,13,28.2z"/>
			</g>
			<g>
				<path class="st1" d="M28.1,30.4c-1.5,0-2.7-1.2-2.7-2.7c0-1.5,1.2-2.7,2.7-2.7c1.5,0,2.7,1.2,2.7,2.7
					C30.8,29.2,29.6,30.4,28.1,30.4z M28.1,25.9c-1,0-1.7,0.8-1.7,1.7c0,1,0.8,1.7,1.7,1.7c1,0,1.8-0.8,1.8-1.7
					C29.9,26.7,29.1,25.9,28.1,25.9z"/>
			</g>
		</g>
	</g>
</g>
</svg>
