<?xml version="1.0" encoding="utf-8"?>
<!-- Generator: Adobe Illustrator 21.0.2, SVG Export Plug-In . SVG Version: 6.00 Build 0)  -->
<svg version="1.1" id="Layer_1" xmlns="http://www.w3.org/2000/svg" xmlns:xlink="http://www.w3.org/1999/xlink" x="0px" y="0px"
	 viewBox="0 0 131 32" style="enable-background:new 0 0 131 32;" xml:space="preserve">
<style type="text/css">
	.st0{fill:#00BCD4;}
	.st1{fill:#FFFFFF;}
</style>
<path class="st0" d="M15.8,1.5l-15,10.9L6.4,30H25l5.8-17.6L15.8,1.5z M19.5,27.1H9.6l1.9-5.8L19.5,27.1z M6.9,11.5l6-4.4l-1.4,4.4
	H6.9z M10.6,14.5l-0.7,2.1L7,14.5L10.6,14.5z M27,14.5l-3.8,11.8l-10.8-7.8l1.3-3.9H27V14.5z M14.6,11.5l1.9-5.8l8,5.8H14.6z
	 M8.9,19.5l-1.4,4.4l-2.3-7L8.9,19.5z"/>
<g>
	<path class="st1" d="M39,13.1h-5.2v-1.3h11.9v1.3h-5.2v13.4H39V13.1z"/>
	<path class="st1" d="M61.5,11.8v14.7H60v-6.8h-9.2v6.8h-1.6V11.8h1.6v6.6H60v-6.6H61.5z"/>
	<path class="st1" d="M77.8,25.2v1.3H67.4V11.8h10.1v1.3h-8.5v5.2h7.6v1.3h-7.6v5.5H77.8z"/>
	<path class="st1" d="M91.8,18.9h3.1v6c-0.8,0.6-1.7,1.1-2.8,1.4c-1,0.3-2.1,0.5-3.2,0.5c-1.5,0-2.9-0.3-4.1-1
		c-1.2-0.7-2.2-1.6-2.9-2.7s-1-2.5-1-3.9s0.3-2.8,1-3.9s1.7-2.1,2.9-2.7c1.2-0.7,2.6-1,4.2-1c1.3,0,2.5,0.2,3.5,0.7s1.9,1.1,2.6,1.9
		l-2.2,2c-1-1.1-2.3-1.7-3.8-1.7c-0.9,0-1.8,0.2-2.5,0.6c-0.7,0.4-1.3,0.9-1.7,1.7c-0.4,0.7-0.6,1.5-0.6,2.5c0,0.9,0.2,1.7,0.6,2.4
		s1,1.3,1.7,1.7c0.7,0.4,1.5,0.6,2.5,0.6c1,0,1.9-0.2,2.6-0.6V18.9z"/>
	<path class="st1" d="M110.4,23.8v2.7H99.1V11.8h11.1v2.7h-7.7v3.2h6.8v2.6h-6.8v3.4H110.4z"/>
	<path class="st1" d="M127.6,26.5l0-8.8l-4.3,7.3h-1.5l-4.3-7.1v8.6h-3.2V11.8h2.8l5.5,9.1l5.4-9.1h2.8l0,14.7H127.6z"/>
</g>
</svg>
