<?xml version="1.0" encoding="utf-8"?>
<!-- Generator: Adobe Illustrator 21.0.2, SVG Export Plug-In . SVG Version: 6.00 Build 0)  -->
<svg version="1.1" id="Layer_1" xmlns="http://www.w3.org/2000/svg" xmlns:xlink="http://www.w3.org/1999/xlink" x="0px" y="0px"
	 viewBox="0 0 42.2 53.5" style="enable-background:new 0 0 42.2 53.5;" xml:space="preserve">
<style type="text/css">
	.st0{fill:#00BCD4;}
	.st1{fill:url(#SVGID_1_);}
</style>
<path class="st0" d="M32.1,22.5L32.1,22.5L16.7,11.3L0,23.4L6.4,43H27l6.4-19.6L32.1,22.5z M20.8,39.7h-11l2.1-6.5L20.8,39.7z
	 M6.9,22.4l6.7-4.8L12,22.4H6.9z M11,25.6L10.2,28l-3.3-2.4H11z M29.2,25.6L25,38.7L13,30l1.4-4.4H29.2z M15.4,22.4l2.1-6.5l8.9,6.5
	H15.4z M9.1,31.3l-1.6,4.8L5,28.3L9.1,31.3z"/>
<g>
	<g>
		<path class="st0" d="M4.6,50.8c0.1,0,0.1-0.1,0.2-0.1c0,0,0.1-0.1,0.2-0.1c0.3-0.2,0.4-0.5,0.4-0.9c0-0.3-0.1-0.6-0.3-0.9
			c-0.1-0.1-0.3-0.3-0.6-0.3c-0.2-0.1-0.5-0.1-0.9-0.1H1.6v5.2h2.2c0.7,0,1.2-0.2,1.4-0.5c0.2-0.3,0.4-0.6,0.4-1
			c0-0.3-0.1-0.6-0.3-0.8C5.1,51,4.9,50.9,4.6,50.8z M2.7,49.3h0.5c0.3,0,0.6,0,0.7,0.1c0.1,0.1,0.2,0.2,0.2,0.5
			c0,0.2-0.1,0.4-0.2,0.4c-0.2,0.1-0.4,0.1-0.7,0.1H2.7V49.3z M4.2,52.4c-0.2,0.1-0.4,0.1-0.7,0.1H2.7v-1.2h0.7c0.4,0,0.6,0,0.8,0.1
			c0.2,0.1,0.3,0.2,0.3,0.5C4.4,52.1,4.4,52.3,4.2,52.4z M8.4,48.3H7.2v5.2h3.3v-1H8.4V48.3z M14.2,48.2c-0.7,0-1.4,0.3-1.9,0.8
			c-0.5,0.5-0.8,1.1-0.8,1.9c0,0.8,0.3,1.4,0.8,1.9c0.5,0.5,1.1,0.8,1.9,0.8c0.7,0,1.4-0.3,1.9-0.8c0.5-0.5,0.8-1.1,0.8-1.9
			c0-0.8-0.3-1.4-0.8-1.9C15.6,48.4,15,48.2,14.2,48.2z M15.3,52c-0.3,0.3-0.6,0.5-1.1,0.5c-0.4,0-0.8-0.2-1.1-0.5
			c-0.3-0.3-0.4-0.7-0.4-1.2c0-0.5,0.1-0.9,0.4-1.2c0.3-0.3,0.6-0.5,1.1-0.5c0.4,0,0.8,0.2,1.1,0.5c0.3,0.3,0.4,0.7,0.4,1.2
			C15.7,51.3,15.6,51.7,15.3,52z M20.9,49.3c0.5,0,1,0.2,1.3,0.7l0.7-0.8c-0.6-0.6-1.2-1-2.1-1c-0.7,0-1.4,0.3-1.9,0.8
			c-0.5,0.5-0.8,1.2-0.8,1.9c0,0.8,0.2,1.4,0.7,1.9c0.5,0.5,1.1,0.8,1.9,0.8c0.8,0,1.4-0.3,2-1l-0.7-0.8c-0.3,0.4-0.8,0.7-1.3,0.7
			c-0.4,0-0.7-0.1-1-0.4c-0.3-0.3-0.4-0.7-0.4-1.2c0-0.5,0.1-0.9,0.4-1.1C20.1,49.4,20.5,49.3,20.9,49.3z M27.5,48.3l-1.9,2.1v-2.1
			h-1.1v5.2h1.1V52l0.5-0.6l1.5,2h1.3c-0.2-0.3-0.6-0.8-1-1.5c-0.5-0.7-0.8-1.1-1-1.4l2-2.3H27.5z M33.4,50.9
			c-0.3-0.2-0.6-0.4-1.1-0.5c-0.5-0.1-0.8-0.2-0.9-0.3c-0.1-0.1-0.2-0.2-0.2-0.4c0-0.2,0.1-0.3,0.2-0.4c0.1-0.1,0.3-0.1,0.4-0.1
			c0.5,0,0.9,0.2,1.3,0.5l0.6-0.8c-0.2-0.2-0.5-0.4-0.9-0.5c-0.3-0.1-0.7-0.2-1-0.2c-0.5,0-0.9,0.1-1.3,0.4
			c-0.3,0.3-0.5,0.6-0.5,1.1c0,0.5,0.1,0.9,0.4,1.1c0.3,0.2,0.7,0.4,1.3,0.6c0.4,0.1,0.6,0.2,0.7,0.3c0.1,0.1,0.2,0.2,0.2,0.4
			c0,0.2-0.1,0.3-0.2,0.4c-0.1,0.1-0.3,0.1-0.5,0.1c-0.5,0-1-0.2-1.5-0.7l-0.7,0.8c0.6,0.6,1.3,0.9,2.1,0.9c0.5,0,1-0.1,1.3-0.4
			c0.3-0.3,0.5-0.7,0.5-1.1C33.8,51.5,33.6,51.2,33.4,50.9z"/>
	</g>
</g>
<g id="XMLID_1_">
	<g>
		
			<linearGradient id="SVGID_1_" gradientUnits="userSpaceOnUse" x1="27.3862" y1="612.4577" x2="41.9501" y2="597.8939" gradientTransform="matrix(1 0 0 1 0 -597.6703)">
			<stop  offset="0" style="stop-color:#4A2970"/>
			<stop  offset="1" style="stop-color:#F61B55"/>
		</linearGradient>
		<path class="st1" d="M42.2,0.8v13.5c0,0.4-0.3,0.8-0.8,0.8H27.9c-0.4,0-0.8-0.3-0.8-0.7V0.8c0-0.4,0.3-0.8,0.8-0.8h13.5
			C41.8,0,42.2,0.3,42.2,0.8z M37.9,10.7V9.3H34v1.3H37.9z M37.9,8.1V6.8H34v1.3H37.9z M37.9,5.7V4.3H34v1.3H37.9L37.9,5.7z
			 M32.8,10.7V4.3h-1.3v6.3H32.8L32.8,10.7z"/>
	</g>
</g>
</svg>
