<?xml version="1.0" encoding="utf-8"?>
<!-- Generator: Adobe Illustrator 21.0.2, SVG Export Plug-In . SVG Version: 6.00 Build 0)  -->
<svg version="1.1" id="Layer_1" xmlns="http://www.w3.org/2000/svg" xmlns:xlink="http://www.w3.org/1999/xlink" x="0px" y="0px"
	 viewBox="0 0 38 38" style="enable-background:new 0 0 38 38;" xml:space="preserve">
<style type="text/css">
	.st0{fill:#00BCD4;}
</style>
<path class="st0" d="M19,0.7L4,11.6l5.7,17.6h18.5L34,11.6L19,0.7z M22.7,26.3h-9.9l1.9-5.8L22.7,26.3z M10.2,10.7l6-4.4l-1.4,4.4
	H10.2z M13.9,13.7l-0.7,2.1l-2.9-2.1C10.3,13.7,13.9,13.7,13.9,13.7z M30.3,13.7l-3.8,11.8l-10.8-7.8l1.3-3.9h13.3V13.7z M17.9,10.7
	l1.9-5.8l8,5.8H17.9z M12.2,18.7l-1.4,4.4l-2.3-7L12.2,18.7z"/>
<g>
	<g>
		<path class="st0" d="M5.9,34.5c0.1,0,0.1-0.1,0.2-0.1c0,0,0.1-0.1,0.2-0.1c0.3-0.2,0.4-0.5,0.4-0.9c0-0.3-0.1-0.6-0.3-0.9
			c-0.1-0.1-0.3-0.3-0.6-0.3C5.5,32.1,5.2,32,4.9,32H2.9v5.2h2.2c0.7,0,1.2-0.2,1.4-0.5c0.2-0.3,0.4-0.6,0.4-1
			c0-0.3-0.1-0.6-0.3-0.8C6.5,34.7,6.2,34.6,5.9,34.5z M4,33h0.5c0.3,0,0.6,0,0.7,0.1c0.1,0.1,0.2,0.2,0.2,0.5
			c0,0.2-0.1,0.4-0.2,0.4c-0.2,0.1-0.4,0.1-0.7,0.1H4V33z M5.5,36.1c-0.2,0.1-0.4,0.1-0.7,0.1H4V35h0.7c0.4,0,0.6,0,0.8,0.1
			c0.2,0.1,0.3,0.2,0.3,0.5C5.8,35.9,5.7,36,5.5,36.1z M9.7,32H8.6v5.2h3.3v-1H9.7V32z M15.6,31.9c-0.7,0-1.4,0.3-1.9,0.8
			c-0.5,0.5-0.8,1.1-0.8,1.9c0,0.8,0.3,1.4,0.8,1.9c0.5,0.5,1.1,0.8,1.9,0.8c0.7,0,1.4-0.3,1.9-0.8c0.5-0.5,0.8-1.1,0.8-1.9
			c0-0.8-0.3-1.4-0.8-1.9C16.9,32.2,16.3,31.9,15.6,31.9z M16.6,35.8c-0.3,0.3-0.6,0.5-1.1,0.5c-0.4,0-0.8-0.2-1.1-0.5
			c-0.3-0.3-0.4-0.7-0.4-1.2c0-0.5,0.1-0.9,0.4-1.2c0.3-0.3,0.6-0.5,1.1-0.5c0.4,0,0.8,0.2,1.1,0.5c0.3,0.3,0.4,0.7,0.4,1.2
			C17,35,16.9,35.4,16.6,35.8z M22.2,33c0.5,0,1,0.2,1.3,0.7l0.7-0.8c-0.6-0.6-1.2-1-2.1-1c-0.7,0-1.4,0.3-1.9,0.8
			c-0.5,0.5-0.8,1.2-0.8,1.9c0,0.8,0.2,1.4,0.7,1.9c0.5,0.5,1.1,0.8,1.9,0.8c0.8,0,1.4-0.3,2-1l-0.7-0.8c-0.3,0.4-0.8,0.7-1.3,0.7
			c-0.4,0-0.7-0.1-1-0.4c-0.3-0.3-0.4-0.7-0.4-1.2c0-0.5,0.1-0.9,0.4-1.1C21.4,33.1,21.8,33,22.2,33z M28.8,32l-1.9,2.1V32h-1.1v5.2
			h1.1v-1.5l0.5-0.6l1.5,2h1.3c-0.2-0.3-0.6-0.8-1-1.5c-0.5-0.7-0.8-1.1-1-1.4l2-2.3H28.8z M34.7,34.6c-0.3-0.2-0.6-0.4-1.1-0.5
			c-0.5-0.1-0.8-0.2-0.9-0.3c-0.1-0.1-0.2-0.2-0.2-0.4c0-0.2,0.1-0.3,0.2-0.4c0.1-0.1,0.3-0.1,0.4-0.1c0.5,0,0.9,0.2,1.3,0.5
			l0.6-0.8c-0.2-0.2-0.5-0.4-0.9-0.5c-0.3-0.1-0.7-0.2-1-0.2c-0.5,0-0.9,0.1-1.3,0.4c-0.3,0.3-0.5,0.6-0.5,1.1
			c0,0.5,0.1,0.9,0.4,1.1c0.3,0.2,0.7,0.4,1.3,0.6c0.4,0.1,0.6,0.2,0.7,0.3c0.1,0.1,0.2,0.2,0.2,0.4c0,0.2-0.1,0.3-0.2,0.4
			c-0.1,0.1-0.3,0.1-0.5,0.1c-0.5,0-1-0.2-1.5-0.7l-0.7,0.8c0.6,0.6,1.3,0.9,2.1,0.9c0.5,0,1-0.1,1.3-0.4c0.3-0.3,0.5-0.7,0.5-1.1
			C35.1,35.2,34.9,34.9,34.7,34.6z"/>
	</g>
</g>
</svg>
